{
.appVersion = "1192";
copyright = "Copyright 2011 The Londrina Solid Authors (https://github.com/marcelommp/Londrina-Typeface), with Reserved Font Name \"Londrina Solid\"";
customParameters = (
{
name = description;
value = "";
},
{
name = licenseURL;
value = "http://scripts.sil.org/OFL";
},
{
name = license;
value = "This Font Software is licensed under the SIL Open Font License, Version 1.1. This license is available with a FAQ at: http://scripts.sil.org/OFL";
},
{
name = vendorID;
value = PYRS;
},
{
name = panose;
value = (
0,
0,
4,
0,
0,
0,
0,
0,
0,
0
);
},
{
name = unicodeRanges;
value = (
0,
1
);
},
{
name = codePageRanges;
value = (
1252
);
},
{
name = blueScale;
value = 0.037;
},
{
name = glyphOrder;
value = (
.notdef,
A,
Aacute,
Acircumflex,
Adieresis,
Agrave,
Aring,
Atilde,
AE,
B,
C,
Ccedilla,
D,
Eth,
E,
Eacute,
Ecircumflex,
Edieresis,
Egrave,
F,
G,
H,
I,
Iacute,
Icircumflex,
Idieresis,
Igrave,
J,
K,
L,
M,
N,
Ntilde,
O,
Oacute,
Ocircumflex,
Odieresis,
Ograve,
Oslash,
Otilde,
OE,
P,
Thorn,
Q,
R,
S,
Scaron,
T,
U,
Uacute,
Ucircumflex,
Udieresis,
Ugrave,
V,
W,
X,
Y,
Yacute,
Ydieresis,
Z,
Zcaron,
a,
aacute,
acircumflex,
adieresis,
agrave,
aring,
atilde,
ae,
b,
c,
ccedilla,
d,
eth,
e,
eacute,
ecircumflex,
edieresis,
egrave,
f,
g,
h,
i,
iacute,
icircumflex,
idieresis,
igrave,
ij,
j,
k,
l,
m,
n,
ntilde,
o,
oacute,
ocircumflex,
odieresis,
ograve,
oslash,
otilde,
oe,
p,
thorn,
q,
r,
s,
scaron,
germandbls,
t,
u,
uacute,
ucircumflex,
udieresis,
ugrave,
v,
w,
x,
y,
yacute,
ydieresis,
z,
zcaron,
f_f,
f_f_i,
f_f_l,
fi,
fl,
ordfeminine,
ordmasculine,
zero,
one,
two,
three,
four,
five,
six,
seven,
eight,
nine,
uni00B9,
uni00B2,
uni00B3,
onehalf,
onequarter,
threequarters,
oneeighth,
threeeighths,
fiveeighths,
seveneighths,
asterisk,
backslash,
periodcentered,
bullet,
colon,
comma,
ellipsis,
exclam,
exclamdown,
numbersign,
period,
question,
questiondown,
quotedbl,
quotesingle,
semicolon,
slash,
underscore,
braceleft,
braceright,
bracketleft,
bracketright,
parenleft,

glyphs = (
{
glyphname = A;
layers = (
{
hints = (
{
horizontal = 1;
place = "{-4, 709}";
type = Stem;
},
{
place = "{4, 433}";
type = Stem;
}
);
layerId = "0C1D5C58-AE70-45E1-B635-E72A3DDAF756";
paths = (
{
closed = 1;
nodes = (
"335 464 OFFCURVE",
"390 220 OFFCURVE",
"437 1 CURVE",
"437 0 LINE",
"408 -5 OFFCURVE",
"385 -5 OFFCURVE",
"371 -2 CURVE",
"363 -1 OFFCURVE",
"355 0 OFFCURVE",
"348 2 CURVE",
"347 2 LINE",
"331 47 OFFCURVE",
"325 93 OFFCURVE",
"301 168 CURVE",
"240 171 OFFCURVE",
"197 169 OFFCURVE",
"138 170 CURVE",
"131 143 OFFCURVE",
"116 5 OFFCURVE",
"96 1 CURVE SMOOTH",
"87 -1 OFFCURVE",
"64 2 OFFCURVE",
"15 1 CURVE SMOOTH",
"4 1 LINE",
"4 2 LINE",
"12 29 OFFCURVE",
"52 387 OFFCURVE",
"161 700 CURVE",
"183 703 OFFCURVE",
"189 697 OFFCURVE",
"280 705 CURVE"
);
},
{
closed = 1;
nodes = (
"215 248 OFFCURVE",
"253 248 OFFCURVE",
"303 249 CURVE",
"265 462 OFFCURVE",
"243 568 OFFCURVE",
"236 575 CURVE",
"198 587 OFFCURVE",
"199 582 OFFCURVE",
"137 249 CURVE",
"146 248 OFFCURVE",
"164 249 OFFCURVE",
"189 248 CURVE"
);
}
);
width = 434;
}
);
leftKerningGroup = A;
note = A;
rightKerningGroup = A;
unicode = 0041;
},
{
glyphname = Aacute;
layers = (
{
hints = (
{
horizontal = 1;
place = "{-4, 915}";
type = Stem;
},
{
place = "{4, 433}";
type = Stem;
}
);
layerId = "0C1D5C58-AE70-45E1-B635-E72A3DDAF756";
paths = (
{
closed = 1;
nodes = (
"263 764 OFFCURVE",
"357 853 OFFCURVE",
"366 858 CURVE",
"349 876 OFFCURVE",
"332 894 OFFCURVE",
"315 911 CURVE",
"275 876 OFFCURVE",
"202 796 OFFCURVE",
"155 753 CURVE",
"169 749 OFFCURVE",
"215 745 OFFCURVE",
"255 750 CURVE"
);
},
{
closed = 1;
nodes = (
"335 464 OFFCURVE",
"390 220 OFFCURVE",
"437 1 CURVE",
"437 0 LINE",
"408 -5 OFFCURVE",
"385 -5 OFFCURVE",
"371 -2 CURVE",
"363 -1 OFFCURVE",
"355 0 OFFCURVE",
"348 2 CURVE",
"347 2 LINE",
"331 47 OFFCURVE",
"325 93 OFFCURVE",
"301 168 CURVE",
"240 171 OFFCURVE",
"197 169 OFFCURVE",
"138 170 CURVE",
"131 143 OFFCURVE",
"116 5 OFFCURVE",
"96 1 CURVE SMOOTH",
"87 -1 OFFCURVE",
"64 2 OFFCURVE",
"15 1 CURVE SMOOTH",
"4 1 LINE",
"4 2 LINE",
"12 29 OFFCURVE",
"52 387 OFFCURVE",
"161 700 CURVE",
"183 703 OFFCURVE",
"189 697 OFFCURVE",
"280 705 CURVE"
);
},
{
closed = 1;
nodes = (
"215 248 OFFCURVE",
"253 248 OFFCURVE",
"303 249 CURVE",
"265 462 OFFCURVE",
"240 575 OFFCURVE",
"236 575 CURVE",
"195 578 OFFCURVE",
"199 582 OFFCURVE",
"137 249 CURVE",
"146 248 OFFCURVE",
"164 249 OFFCURVE",
"189 248 CURVE"
);
}
);
width = 434;
}
);
leftKerningGroup = A;
note = Aacute;
rightKerningGroup = A;
unicode = 00C1;
},
{
glyphname = Acircumflex;
layers = (
{
hints = (
{
horizontal = 1;
place = "{705, 49}";
type = Stem;
},
{
place = "{4, 433}";
type = Stem;
}
);
layerId = "0C1D5C58-AE70-45E1-B635-E72A3DDAF756";
paths = (
{
closed = 1;
nodes = (
"382 755 LINE",
"379 757 OFFCURVE",
"347 748 OFFCURVE",
"302 750 CURVE",
"298 750 OFFCURVE",
"287 761 OFFCURVE",
"269 779 CURVE SMOOTH",
"246 801 LINE",
"237 813 OFFCURVE",
"225 825 OFFCURVE",
"220 828 CURVE",
"213 825 OFFCURVE",
"162 758 OFFCURVE",
"142 752 CURVE",
"124 750 OFFCURVE",
"124 751 OFFCURVE",
"59 754 CURVE",
"113 822 OFFCURVE",
"159 859 OFFCURVE",
"220 916 CURVE"
);
},
{
closed = 1;
nodes = (
"335 464 OFFCURVE",
"390 220 OFFCURVE",
"437 1 CURVE",
"437 0 LINE",
"408 -5 OFFCURVE",
"385 -5 OFFCURVE",
"371 -2 CURVE",
"363 -1 OFFCURVE",
"355 0 OFFCURVE",
"348 2 CURVE",
"347 2 LINE",
"331 47 OFFCURVE",
"325 93 OFFCURVE",
"301 168 CURVE",
"240 171 OFFCURVE",
"197 169 OFFCURVE",
"138 170 CURVE",
"131 143 OFFCURVE",
"116 5 OFFCURVE",
"96 1 CURVE SMOOTH",
"87 -1 OFFCURVE",
"64 2 OFFCURVE",
"15 1 CURVE SMOOTH",
"4 1 LINE",
"4 2 LINE",
"12 29 OFFCURVE",
"52 387 OFFCURVE",
"161 700 CURVE",
"183 703 OFFCURVE",
"189 697 OFFCURVE",
"280 705 CURVE"
);
},
{
closed = 1;
nodes = (
"215 248 OFFCURVE",
"253 248 OFFCURVE",
"303 249 CURVE",
"265 462 OFFCURVE",
"243 568 OFFCURVE",
"236 575 CURVE",
"198 587 OFFCURVE",
"199 582 OFFCURVE",
"137 249 CURVE",
"146 248 OFFCURVE",
"164 249 OFFCURVE",
"189 248 CURVE"
);
}
);
width = 434;
}
);
leftKerningGroup = A;
note = Acircumflex;
rightKerningGroup = A;
unicode = 00C2;
},
{
glyphname = Adieresis;
layers = (
{
hints = (
{
horizontal = 1;
place = "{705, 53}";
type = Stem;
},
{
place = "{166, 92}";
type = Stem;
}
);
layerId = "0C1D5C58-AE70-45E1-B635-E72A3DDAF756";
paths = (
{
closed = 1;
nodes = (
"164 758 LINE SMOOTH",
"141 758 OFFCURVE",
"118 759 OFFCURVE",
"96 759 CURVE SMOOTH",
"93 759 LINE",
"88 785 OFFCURVE",
"92 843 OFFCURVE",
"92 860 CURVE",
"110 866 OFFCURVE",
"158 867 OFFCURVE",
"172 861 CURVE",
"172 859 OFFCURVE",
"166 788 OFFCURVE",
"166 765 CURVE SMOOTH",
"166 758 LINE"
);
},
{
closed = 1;
nodes = (
"330 758 LINE",
"307 758 OFFCURVE",
"284 759 OFFCURVE",
"262 759 CURVE SMOOTH",
"259 759 LINE",
"254 785 OFFCURVE",
"258 843 OFFCURVE",
"258 860 CURVE",
"276 866 OFFCURVE",
"324 867 OFFCURVE",
"338 861 CURVE",
"338 859 OFFCURVE",
"332 777 OFFCURVE",
"332 760 CURVE SMOOTH",
"332 759 LINE"
);
},
{
closed = 1;
nodes = (
"335 464 OFFCURVE",
"390 220 OFFCURVE",
"437 1 CURVE",
"437 0 LINE",
"408 -5 OFFCURVE",
"385 -5 OFFCURVE",
"371 -2 CURVE",
"363 -1 OFFCURVE",
"355 0 OFFCURVE",
"348 2 CURVE",
"347 2 LINE",
"331 47 OFFCURVE",
"325 93 OFFCURVE",
"301 168 CURVE",
"240 171 OFFCURVE",
"197 169 OFFCURVE",
"138 170 CURVE",
"131 143 OFFCURVE",
"116 5 OFFCURVE",
"96 1 CURVE SMOOTH",
"87 -1 OFFCURVE",
"64 2 OFFCURVE",
"15 1 CURVE SMOOTH",
"4 1 LINE",
"4 2 LINE",
"12 29 OFFCURVE",
"52 387 OFFCURVE",
"161 700 CURVE",
"183 703 OFFCURVE",
"189 697 OFFCURVE",
"280 705 CURVE"
);
},
{
closed = 1;
nodes = (
"215 248 OFFCURVE",
"253 248 OFFCURVE",
"303 249 CURVE",
"265 462 OFFCURVE",
"243 568 OFFCURVE",
"236 575 CURVE",
"198 587 OFFCURVE",
"199 582 OFFCURVE",
"137 249 CURVE",
"146 248 OFFCURVE",
"164 249 OFFCURVE",
"189 248 CURVE"
);
}
);
width = 434;
}
);
leftKerningGroup = A;
note = Adieresis;
rightKerningGroup = A;
unicode = 00C4;
},
{
glyphname = Agrave;
layers = (
{
hints = (
{
horizontal = 1;
place = "{705, 41.81}";
type = Stem;
},
{
place = "{4, 433}";
type = Stem;
}
);
layerId = "0C1D5C58-AE70-45E1-B635-E72A3DDAF756";
paths = (
{
closed = 1;
nodes = (
"80 875 OFFCURVE",
"98 893 OFFCURVE",
"115 910 CURVE",
"154 874 OFFCURVE",
"228 795 OFFCURVE",
"274 752 CURVE",
"260 748 OFFCURVE",
"214 744 OFFCURVE",
"175 749 CURVE",
"168 760 OFFCURVE",
"72 853 OFFCURVE",
"63 857 CURVE"
);
},
{
closed = 1;
nodes = (
"387 234 OFFCURVE",
"411 118 OFFCURVE",
"437 1 CURVE",
"437 0 LINE",
"408 -5 OFFCURVE",
"385 -5 OFFCURVE",
"371 -2 CURVE",
"363 -1 OFFCURVE",
"355 0 OFFCURVE",
"348 2 CURVE",
"347 2 LINE",
"331 47 OFFCURVE",
"325 93 OFFCURVE",
"301 168 CURVE",
"240 171 OFFCURVE",
"197 169 OFFCURVE",
"138 170 CURVE",
"131 143 OFFCURVE",
"116 5 OFFCURVE",
"96 1 CURVE SMOOTH",
"87 -1 OFFCURVE",
"64 2 OFFCURVE",
"15 1 CURVE SMOOTH",
"4 1 LINE",
"4 2 LINE",
"10 29 OFFCURVE",
"52 387 OFFCURVE",
"161 700 CURVE",
"183 703 OFFCURVE",
"189 697 OFFCURVE",
"280 705 CURVE",
"293 654 OFFCURVE",
"346 418 OFFCURVE",
"362 351 CURVE SMOOTH"
);
},
{
closed = 1;
nodes = (
"215 248 OFFCURVE",
"253 248 OFFCURVE",
"303 249 CURVE",
"265 462 OFFCURVE",
"243 568 OFFCURVE",
"236 575 CURVE",
"198 587 OFFCURVE",
"199 582 OFFCURVE",
"137 249 CURVE",
"146 248 OFFCURVE",
"164 249 OFFCURVE",
"189 248 CURVE"
);
}
);
width = 434;
}
);
leftKerningGroup = A;
note = Agrave;
rightKerningGroup = A;
unicode = 00C0;
},
{
glyphname = Aring;
layers = (
{
hints = (
{
horizontal = 1;
place = "{705, 47}";
type = Stem;
},
{
horizontal = 1;
place = "{795, 96}";
type = Stem;
},
{
place = "{169, 93}";
type = Stem;
}
);
layerId = "0C1D5C58-AE70-45E1-B635-E72A3DDAF756";
paths = (
{
closed = 1;
nodes = (
"310 865 OFFCURVE",
"308 817 OFFCURVE",
"292 777 CURVE",
"272 746 OFFCURVE",
"210 750 OFFCURVE",
"176 752 CURVE SMOOTH",
"115 755 OFFCURVE",
"117 847 OFFCURVE",
"130 895 CURVE SMOOTH",
"139 929 OFFCURVE",
"181 938 OFFCURVE",
"219 935 CURVE SMOOTH",
"247 933 OFFCURVE",
"283 927 OFFCURVE",
"298 906 CURVE"
);
},
{
closed = 1;
nodes = (
"205 891 OFFCURVE",
"195 889 OFFCURVE",
"186 885 CURVE",
"172 876 OFFCURVE",
"169 861 OFFCURVE",
"169 848 CURVE SMOOTH",
"169 825 OFFCURVE",
"169 795 OFFCURVE",
"204 795 CURVE SMOOTH",
"214 795 LINE",
"229 796 OFFCURVE",
"250 795 OFFCURVE",
"257 810 CURVE",
"260 823 OFFCURVE",
"263 840 OFFCURVE",
"262 855 CURVE SMOOTH",
"259 886 OFFCURVE",
"236 891 OFFCURVE",
"216 891 CURVE SMOOTH"
);
},
{
closed = 1;
nodes = (
"335 464 OFFCURVE",
"390 220 OFFCURVE",
"437 1 CURVE",
"437 0 LINE",
"408 -5 OFFCURVE",
"385 -5 OFFCURVE",
"371 -2 CURVE",
"363 -1 OFFCURVE",
"355 0 OFFCURVE",
"348 2 CURVE",
"347 2 LINE",
"331 47 OFFCURVE",
"325 93 OFFCURVE",
"301 168 CURVE",
"240 171 OFFCURVE",
"197 169 OFFCURVE",
"138 170 CURVE",
"131 143 OFFCURVE",
"116 5 OFFCURVE",
"96 1 CURVE SMOOTH",
"87 -1 OFFCURVE",
"64 2 OFFCURVE",
"15 1 CURVE SMOOTH",
"4 1 LINE",
"4 2 LINE",
"12 29 OFFCURVE",
"52 387 OFFCURVE",
"161 700 CURVE",
"183 703 OFFCURVE",
"189 697 OFFCURVE",
"280 705 CURVE"
);
},
{
closed = 1;
nodes = (
"215 248 OFFCURVE",
"253 248 OFFCURVE",
"303 249 CURVE",
"265 462 OFFCURVE",
"243 568 OFFCURVE",
"236 575 CURVE",
"198 587 OFFCURVE",
"199 582 OFFCURVE",
"137 249 CURVE",
"146 248 OFFCURVE",
"164 249 OFFCURVE",
"189 248 CURVE"
);
}
);
width = 434;
}
);
leftKerningGroup = A;
note = Aring;
rightKerningGroup = A;
unicode = 00C5;
},
{
glyphname = Atilde;
layers = (
{
hints = (
{
horizontal = 1;
place = "{705, 46}";
type = Stem;
},
{
place = "{4, 433}";
type = Stem;
}
);
layerId = "0C1D5C58-AE70-45E1-B635-E72A3DDAF756";
paths = (
{
closed = 1;
nodes = (
"97 755 LINE",
"87 757 OFFCURVE",
"69 758 OFFCURVE",
"53 758 CURVE SMOOTH",
"42 758 OFFCURVE",
"30 757 OFFCURVE",
"17 757 CURVE",
"25 785 OFFCURVE",
"51 858 OFFCURVE",
"77 886 CURVE SMOOTH",
"112 922 OFFCURVE",
"169 933 OFFCURVE",
"212 905 CURVE",
"240 885 OFFCURVE",
"258 803 OFFCURVE",
"307 817 CURVE SMOOTH",
"349 830 OFFCURVE",
"360 876 OFFCURVE",
"359 911 CURVE",
"378 912 OFFCURVE",
"398 912 OFFCURVE",
"418 913 CURVE",
"419 912 LINE",
"419 907 OFFCURVE",
"420 904 OFFCURVE",
"420 899 CURVE",
"425 837 OFFCURVE",
"391 762 OFFCURVE",
"325 751 CURVE SMOOTH",
"282 744 OFFCURVE",
"239 751 OFFCURVE",
"219 814 CURVE",
"205 848 OFFCURVE",
"191 857 OFFCURVE",
"166 854 CURVE SMOOTH",
"126 848 OFFCURVE",
"96 813 OFFCURVE",
"97 756 CURVE SMOOTH"
);
},
{
closed = 1;
nodes = (
"387 234 OFFCURVE",
"411 118 OFFCURVE",
"437 1 CURVE",
"437 0 LINE",
"408 -5 OFFCURVE",
"385 -5 OFFCURVE",
"371 -2 CURVE",
"363 -1 OFFCURVE",
"355 0 OFFCURVE",
"348 2 CURVE",
"347 2 LINE",
"331 47 OFFCURVE",
"325 93 OFFCURVE",
"301 168 CURVE",
"240 171 OFFCURVE",
"197 169 OFFCURVE",
"138 170 CURVE",
"131 143 OFFCURVE",
"116 5 OFFCURVE",
"96 1 CURVE SMOOTH",
"87 -1 OFFCURVE",
"64 2 OFFCURVE",
"15 1 CURVE SMOOTH",
"4 1 LINE",
"4 2 LINE",
"12 29 OFFCURVE",
"52 387 OFFCURVE",
"161 700 CURVE",
"183 703 OFFCURVE",
"189 697 OFFCURVE",
"280 705 CURVE",
"293 654 OFFCURVE",
"346 418 OFFCURVE",
"362 351 CURVE SMOOTH"
);
},
{
closed = 1;
nodes = (
"215 248 OFFCURVE",
"253 248 OFFCURVE",
"303 249 CURVE",
"265 462 OFFCURVE",
"243 568 OFFCURVE",
"236 575 CURVE",
"198 587 OFFCURVE",
"199 582 OFFCURVE",
"137 249 CURVE",
"146 248 OFFCURVE",
"164 249 OFFCURVE",
"189 248 CURVE"
);
}
);
width = 434;
}
);
leftKerningGroup = A;
note = Atilde;
rightKerningGroup = A;
unicode = 00C3;
},
{
glyphname = AE;
layers = (
{
hints = (
{
horizontal = 1;
place = "{80, 90.5}";
type = Stem;
},
{
horizontal = 1;
place = "{213, 97}";
type = Stem;
},
{
horizontal = 1;
place = "{386, 233}";
type = Stem;
},
{
place = "{9, 690}";
type = Stem;
}
);
layerId = "0C1D5C58-AE70-45E1-B635-E72A3DDAF756";
paths = (
{
closed = 1;
nodes = (
"696 78 LINE",
"694 3 LINE",
"626 4 OFFCURVE",
"559 2 OFFCURVE",
"494 -1 CURVE SMOOTH",
"429 -4 OFFCURVE",
"385 -4 OFFCURVE",
"387 0 CURVE",
"386 0 LINE",
"382 11 OFFCURVE",
"378 23 OFFCURVE",
"374 38 CURVE",
"371 53 OFFCURVE",
"367 68 OFFCURVE",
"363 83 CURVE",
"360 98 OFFCURVE",
"352 127 OFFCURVE",
"341 169 CURVE",
"114 172 LINE",
"107 131 OFFCURVE",
"101 103 OFFCURVE",
"98 87 CURVE SMOOTH",
"95 72 OFFCURVE",
"90 44 OFFCURVE",
"83 3 CURVE",
"82 3 OFFCURVE",
"81 3 OFFCURVE",
"78 2 CURVE",
"9 2 LINE",
"13 15 OFFCURVE",
"27 110 OFFCURVE",
"51 241 CURVE",
"80 373 OFFCURVE",
"107 540 OFFCURVE",
"171 700 CURVE",
"176 701 OFFCURVE",
"186 701 OFFCURVE",
"202 701 CURVE SMOOTH",
"402 699 LINE SMOOTH",
"529 698 OFFCURVE",
"604 698 OFFCURVE",
"626 698 CURVE SMOOTH",
"670 698 OFFCURVE",
"699 696 OFFCURVE",
"699 695 CURVE SMOOTH",
"698 620 LINE",
"655 623 OFFCURVE",
"618 619 OFFCURVE",
"574 619 CURVE SMOOTH",
"530 620 OFFCURVE",
"482 621 OFFCURVE",
"453 616 CURVE",
"450 616 LINE",
"449 615 LINE",
"450 596 OFFCURVE",
"449 596 OFFCURVE",
"447 542 CURVE SMOOTH",
"445 488 OFFCURVE",
"444 451 OFFCURVE",
"445 389 CURVE",
"446 388 LINE",
"471 387 OFFCURVE",
"517 387 OFFCURVE",
"558 386 CURVE",
"558 385 LINE",
"559 372 OFFCURVE",
"559 326 OFFCURVE",
"559 319 CURVE SMOOTH",
"559 313 LINE",
"532 312 OFFCURVE",
"517 310 OFFCURVE",
"513 309 CURVE SMOOTH",
"509 308 OFFCURVE",
"488 309 OFFCURVE",
"450 310 CURVE",
"447 286 OFFCURVE",
"445 269 OFFCURVE",
"446 227 CURVE SMOOTH",
"447 186 OFFCURVE",
"447 164 OFFCURVE",
"444 85 CURVE",
"445 84 LINE",
"518 85 OFFCURVE",
"605 77 OFFCURVE",
"696 80 CURVE"
);
},
{
closed = 1;
nodes = (
"229 210 OFFCURVE",
"252 211 OFFCURVE",
"340 213 CURVE",
"279 510 OFFCURVE",
"246 617 OFFCURVE",
"240 617 CURVE SMOOTH",
"210 617 OFFCURVE",
"220 616 OFFCURVE",
"213 615 CURVE",
"207 615 OFFCURVE",
"208 623 OFFCURVE",
"192 554 CURVE SMOOTH",
"177 485 OFFCURVE",
"153 372 OFFCURVE",
"121 213 CURVE",
"129 212 OFFCURVE",
"152 212 OFFCURVE",
"190 211 CURVE SMOOTH"
);
},
{
closed = 1;
nodes = (
"559 313 LINE",
"559 312 OFFCURVE",
"559 312 OFFCURVE",
"560 313 CURVE"
);
}
);
width = 716;
}
);
leftKerningGroup = AE;
note = AE;
rightKerningGroup = AE;
unicode = 00C6;
},
{
glyphname = B;
layers = (
{
hints = (
{
horizontal = 1;
place = "{84.68, 204.32}";
type = Stem;
},
{
horizontal = 1;
place = "{378.99, 233}";
type = Stem;
},
{
place = "{126.41, 233.46}";
type = Stem;
},
{
place = "{130, 223.02}";
type = Stem;
}
);
layerId = "0C1D5C58-AE70-45E1-B635-E72A3DDAF756";
paths = (
{
closed = 1;
nodes = (
"385 343 OFFCURVE",
"388 339 OFFCURVE",
"395 331 CURVE",
"437 278 OFFCURVE",
"478 231 OFFCURVE",
"463 145 CURVE SMOOTH",
"430 -44 OFFCURVE",
"211 -2 OFFCURVE",
"66 2 CURVE SMOOTH",
"58 2 OFFCURVE",
"51 1 OFFCURVE",
"44 4 CURVE",
"36 235 OFFCURVE",
"45 460 OFFCURVE",
"41 692 CURVE",
"42 693 LINE",
"202 737 OFFCURVE",
"439 732 OFFCURVE",
"439 508 CURVE SMOOTH",
"439 452 OFFCURVE",
"417 397 OFFCURVE",
"390 352 CURVE SMOOTH"
);
},
{
closed = 1;
nodes = (
"279 374 OFFCURVE",
"315 382 OFFCURVE",
"337 432 CURVE",
"349 455 OFFCURVE",
"358 488 OFFCURVE",
"350 527 CURVE SMOOTH",
"339 589 OFFCURVE",
"295 610 OFFCURVE",
"232 612 CURVE SMOOTH",
"196 614 OFFCURVE",
"148 613 OFFCURVE",
"131 604 CURVE",
"132 590 OFFCURVE",
"132 557 OFFCURVE",
"130 507 CURVE SMOOTH",
"129 453 OFFCURVE",
"129 412 OFFCURVE",
"136 386 CURVE",
"145 385 OFFCURVE",
"161 383 OFFCURVE",
"185 381 CURVE SMOOTH"
);
},
{
closed = 1;
nodes = (
"269 81 OFFCURVE",
"316 82 OFFCURVE",
"352 145 CURVE SMOOTH",
"364 167 OFFCURVE",
"362 201 OFFCURVE",
"349 235 CURVE SMOOTH",
"328 295 OFFCURVE",
"254 288 OFFCURVE",
"232 290 CURVE SMOOTH",
"215 292 OFFCURVE",
"183 291 OFFCURVE",
"135 289 CURVE",
"121 268 OFFCURVE",
"125 189 OFFCURVE",
"139 91 CURVE",
"147 90 OFFCURVE",
"163 88 OFFCURVE",
"185 87 CURVE SMOOTH"
);
}
);
width = 477;
}
);
note = B;
rightKerningGroup = B;
unicode = 0042;
},
{
glyphname = C;
layers = (
{
hints = (
{
horizontal = 1;
place = "{-13.6, 104.11}";
type = Stem;
},
{
horizontal = 1;
place = "{611, 115.72}";
type = Stem;
},
{
place = "{33, 92.14}";
type = Stem;
},
{
place = "{369, 101.65}";
type = Stem;
},
{
horizontal = 1;
place = "{-11, 101.51}";
type = Stem;
},
{
place = "{372, 97.42}";
type = Stem;
}
);
layerId = "0C1D5C58-AE70-45E1-B635-E72A3DDAF756";
paths = (
{
closed = 1;
nodes = (
"125 543 OFFCURVE",
"150 609 OFFCURVE",
"202 611 CURVE",
"249 615 OFFCURVE",
"287 608 OFFCURVE",
"308 593 CURVE",
"375 558 OFFCURVE",
"369 491 OFFCURVE",
"369 421 CURVE",
"393 415 OFFCURVE",
"423 412 OFFCURVE",
"465 420 CURVE",
"505 611 OFFCURVE",
"338 775 OFFCURVE",
"150 714 CURVE",
"75 694 OFFCURVE",
"32 619 OFFCURVE",
"33 537 CURVE SMOOTH",
"30 321 OFFCURVE",
"31 218 OFFCURVE",
"36 122 CURVE",
"47 10 OFFCURVE",
"168 -24 OFFCURVE",
"263 -11 CURVE",
"410 -6 OFFCURVE",
"499 138 OFFCURVE",
"461 283 CURVE",
"435 288 OFFCURVE",
"399 282 OFFCURVE",
"372 284 CURVE",
"373 142 OFFCURVE",
"318 69 OFFCURVE",
"189 96 CURVE",
"110 126 OFFCURVE",
"125 227 OFFCURVE",
"128 371 CURVE"
);
}
);
width = 488;
}
);
leftKerningGroup = C;
note = C;
rightKerningGroup = C;
unicode = 0043;
},
{
glyphname = Ccedilla;
layers = (
{
hints = (
{
horizontal = 1;
place = "{280.26, 128.24}";
type = Stem;
},
{
place = "{31.75, 432.54}";
type = Stem;
},
{
place = "{126, 242}";
type = Stem;
}
);
layerId = "0C1D5C58-AE70-45E1-B635-E72A3DDAF756";
paths = (
{
closed = 1;
nodes = (
"36 537 OFFCURVE",
"38 553 OFFCURVE",
"41 564 CURVE",
"50 630 OFFCURVE",
"85 694 OFFCURVE",
"157 703 CURVE",
"169 706 OFFCURVE",
"182 707 OFFCURVE",
"193 708 CURVE SMOOTH",
"269 714 OFFCURVE",
"337 701 OFFCURVE",
"393 649 CURVE SMOOTH",
"456 590 OFFCURVE",
"475 501 OFFCURVE",
"459 414 CURVE",
"450 412 OFFCURVE",
"443 411 OFFCURVE",
"439 411 CURVE",
"416 406 OFFCURVE",
"396 409 OFFCURVE",
"373 412 CURVE",
"363 412 OFFCURVE",
"363 486 OFFCURVE",
"358 511 CURVE",
"353 546 OFFCURVE",
"329 607 OFFCURVE",
"229 610 CURVE SMOOTH",
"136 614 OFFCURVE",
"122 497 OFFCURVE",
"126 354 CURVE",
"123 170 OFFCURVE",
"143 89 OFFCURVE",
"252 87 CURVE",
"289 88 OFFCURVE",
"323 105 OFFCURVE",
"345 139 CURVE SMOOTH",
"368 173 OFFCURVE",
"371 221 OFFCURVE",
"368 278 CURVE",
"392 279 OFFCURVE",
"430 283 OFFCURVE",
"455 278 CURVE",
"487 140 OFFCURVE",
"415 -10 OFFCURVE",
"262 -10 CURVE",
"262 -9 LINE",
"255 -44 OFFCURVE",
"242 -92 OFFCURVE",
"236 -112 CURVE",
"236 -113 LINE",
"213 -111 OFFCURVE",
"187 -116 OFFCURVE",
"167 -113 CURVE",
"166 -113 OFFCURVE",
"166 -112 OFFCURVE",
"166 -111 CURVE",
"171 -87 OFFCURVE",
"186 -36 OFFCURVE",
"190 -9 CURVE",
"190 -8 LINE",
"62 -12 OFFCURVE",
"38 78 OFFCURVE",
"34 198 CURVE",
"34 203 LINE",
"31 288 OFFCURVE",
"31 388 OFFCURVE",
"34 514 CURVE"
);
}
);
width = 476;
}
);
leftKerningGroup = C;
note = Ccedilla;
rightKerningGroup = C;
unicode = 00C7;
},
{
glyphname = D;
layers = (
{
hints = (
{
horizontal = 1;
place = "{1, 701}";
type = Stem;
},
{
place = "{39, 423}";
type = Stem;
}
);
layerId = "0C1D5C58-AE70-45E1-B635-E72A3DDAF756";
paths = (
{
closed = 1;
nodes = (
"327 690 OFFCURVE",
"369 656 OFFCURVE",
"393 617 CURVE SMOOTH",
"431 556 OFFCURVE",
"458 479 OFFCURVE",
"462 407 CURVE",
"459 344 OFFCURVE",
"460 280 OFFCURVE",
"448 219 CURVE",
"448 213 OFFCURVE",
"440 200 OFFCURVE",
"432 179 CURVE SMOOTH",
"411 129 OFFCURVE",
"363 59 OFFCURVE",
"320 5 CURVE",
"232 2 OFFCURVE",
"141 2 OFFCURVE",
"57 2 CURVE",
"56 1 LINE",
"27 212 OFFCURVE",
"45 455 OFFCURVE",
"40 687 CURVE",
"43 691 LINE",
"119 710 OFFCURVE",
"207 698 OFFCURVE",
"284 701 CURVE"
);
},
{
closed = 1;
nodes = (
"291 131 OFFCURVE",
"294 141 OFFCURVE",
"329 187 CURVE SMOOTH",
"348 212 OFFCURVE",
"363 255 OFFCURVE",
"373 314 CURVE",
"375 338 OFFCURVE",
"375 361 OFFCURVE",
"373 386 CURVE SMOOTH",
"363 498 OFFCURVE",
"307 565 OFFCURVE",
"266 573 CURVE",
"253 574 OFFCURVE",
"242 575 OFFCURVE",
"232 575 CURVE",
"216 576 OFFCURVE",
"184 575 OFFCURVE",
"136 571 CURVE",
"131 571 LINE",
"134 550 OFFCURVE",
"135 515 OFFCURVE",
"135 465 CURVE SMOOTH",
"135 415 OFFCURVE",
"134 379 OFFCURVE",
"133 357 CURVE SMOOTH",
"132 335 OFFCURVE",
"132 297 OFFCURVE",
"134 245 CURVE SMOOTH",
"136 193 OFFCURVE",
"138 156 OFFCURVE",
"139 135 CURVE",
"146 130 OFFCURVE",
"165 129 OFFCURVE",
"194 129 CURVE SMOOTH"
);
}
);
width = 482;
}
);
note = D;
rightKerningGroup = D;
unicode = 0044;
},
{
glyphname = Eth;
layers = (
{
hints = (
{
horizontal = 1;
place = "{105, 192}";
type = Stem;
},
{
horizontal = 1;
place = "{390, 207}";
type = Stem;
},
{
place = "{226, 148}";
type = Stem;
}
);
layerId = "0C1D5C58-AE70-45E1-B635-E72A3DDAF756";
paths = (
{
closed = 1;
nodes = (
"22 391 LINE",
"45 391 LINE",
"45 432 OFFCURVE",
"46 473 OFFCURVE",
"46 515 CURVE SMOOTH",
"47 559 OFFCURVE",
"40 652 OFFCURVE",
"47 689 CURVE",
"117 703 OFFCURVE",
"200 705 OFFCURVE",
"273 701 CURVE",
"369 681 OFFCURVE",
"424 586 OFFCURVE",
"448 478 CURVE",
"455 455 OFFCURVE",
"458 431 OFFCURVE",
"460 407 CURVE",
"461 344 OFFCURVE",
"460 280 OFFCURVE",
"447 219 CURVE",
"446 218 LINE",
"439 185 OFFCURVE",
"425 141 OFFCURVE",
"394 90 CURVE SMOOTH",
"369 49 OFFCURVE",
"342 24 OFFCURVE",
"319 6 CURVE",
"232 -4 OFFCURVE",
"139 4 OFFCURVE",
"56 3 CURVE",
"56 2 LINE",
"47 102 OFFCURVE",
"45 198 OFFCURVE",
"45 295 CURVE",
"29 295 OFFCURVE",
"12 296 OFFCURVE",
"-3 297 CURVE",
"-3 324 OFFCURVE",
"-3 353 OFFCURVE",
"-3 391 CURVE"
);
},
{
closed = 1;
nodes = (
"261 108 OFFCURVE",
"274 112 OFFCURVE",
"298 127 CURVE",
"330 162 OFFCURVE",
"355 193 OFFCURVE",
"374 306 CURVE",
"376 333 OFFCURVE",
"376 361 OFFCURVE",
"375 386 CURVE",
"365 507 OFFCURVE",
"310 577 OFFCURVE",
"270 593 CURVE",
"257 595 OFFCURVE",
"244 597 OFFCURVE",
"233 597 CURVE",
"213 600 OFFCURVE",
"172 593 OFFCURVE",
"123 590 CURVE",
"127 570 OFFCURVE",
"128 530 OFFCURVE",
"128 474 CURVE SMOOTH",
"128 438 OFFCURVE",
"127 410 OFFCURVE",
"126 390 CURVE",
"143 390 LINE",
"226 390 LINE",
"226 372 OFFCURVE",
"228 327 OFFCURVE",
"229 297 CURVE",
"193 297 LINE SMOOTH",
"173 297 OFFCURVE",
"150 298 OFFCURVE",
"124 298 CURVE",
"124 246 OFFCURVE",
"129 131 OFFCURVE",
"131 111 CURVE",
"135 105 OFFCURVE",
"162 104 OFFCURVE",
"195 105 CURVE SMOOTH"
);
}
);
width = 482;
}
);
note = Eth;
rightKerningGroup = D;
unicode = 00D0;
},
{
glyphname = E;
layers = (
{
hints = (
{
horizontal = 1;
place = "{93, 205}";
type = Stem;
},
{
horizontal = 1;
place = "{394, 205}";
type = Stem;
},
{
place = "{40.35, 420.75}";
type = Stem;
}
);
layerId = "0C1D5C58-AE70-45E1-B635-E72A3DDAF756";
paths = (
{
closed = 1;
nodes = (
"460 86 LINE",
"461 59 OFFCURVE",
"461 29 OFFCURVE",
"455 3 CURVE",
"319 4 OFFCURVE",
"174 -6 OFFCURVE",
"45 5 CURVE",
"45 237 OFFCURVE",
"33 460 OFFCURVE",
"46 689 CURVE",
"201 697 OFFCURVE",
"460 701 OFFCURVE",
"460 695 CURVE",
"463 668 OFFCURVE",
"459 641 OFFCURVE",
"459 614 CURVE SMOOTH",
"459 604 LINE",
"416 601 OFFCURVE",
"376 599 OFFCURVE",
"332 599 CURVE SMOOTH",
"277 599 LINE SMOOTH",
"252 599 OFFCURVE",
"207 600 OFFCURVE",
"146 596 CURVE",
"142 595 LINE",
"143 579 OFFCURVE",
"142 548 OFFCURVE",
"139 504 CURVE SMOOTH",
"136 452 OFFCURVE",
"135 416 OFFCURVE",
"141 395 CURVE",
"142 394 LINE",
"237 391 OFFCURVE",
"261 394 OFFCURVE",
"319 391 CURVE",
"319 390 LINE",
"323 355 OFFCURVE",
"320 326 OFFCURVE",
"321 303 CURVE",
"266 298 OFFCURVE",
"289 300 OFFCURVE",
"196 298 CURVE SMOOTH",
"167 297 OFFCURVE",
"150 296 OFFCURVE",
"146 293 CURVE",
"139 254 OFFCURVE",
"144 189 OFFCURVE",
"143 94 CURVE",
"144 93 LINE",
"308 94 OFFCURVE",
"361 85 OFFCURVE",
"460 88 CURVE"
);
}
);
width = 481;
}
);
note = E;
rightKerningGroup = AE;
unicode = 0045;
},
{
glyphname = Eacute;
layers = (
{
hints = (
{
horizontal = 1;
place = "{93, 205}";
type = Stem;
},
{
horizontal = 1;
place = "{394, 205}";
type = Stem;
},
{
horizontal = 1;
place = "{697.73, 55.27}";
type = Stem;
},
{
place = "{40.35, 420.75}";
type = Stem;
}
);
layerId = "0C1D5C58-AE70-45E1-B635-E72A3DDAF756";
paths = (
{
closed = 1;
nodes = (
"263 764 OFFCURVE",
"357 853 OFFCURVE",
"366 858 CURVE",
"349 876 OFFCURVE",
"332 894 OFFCURVE",
"315 911 CURVE",
"275 876 OFFCURVE",
"202 796 OFFCURVE",
"155 753 CURVE",
"169 749 OFFCURVE",
"215 745 OFFCURVE",
"255 750 CURVE"
);
},
{
closed = 1;
nodes = (
"460 86 LINE",
"461 59 OFFCURVE",
"461 29 OFFCURVE",
"455 3 CURVE",
"319 4 OFFCURVE",
"174 -6 OFFCURVE",
"45 5 CURVE",
"45 237 OFFCURVE",
"33 460 OFFCURVE",
"46 689 CURVE",
"201 697 OFFCURVE",
"460 701 OFFCURVE",
"460 695 CURVE",
"463 668 OFFCURVE",
"459 641 OFFCURVE",
"459 614 CURVE SMOOTH",
"459 604 LINE",
"416 601 OFFCURVE",
"376 599 OFFCURVE",
"332 599 CURVE SMOOTH",
"277 599 LINE SMOOTH",
"252 599 OFFCURVE",
"207 600 OFFCURVE",
"146 596 CURVE",
"142 595 LINE",
"143 579 OFFCURVE",
"142 548 OFFCURVE",
"139 504 CURVE SMOOTH",
"136 452 OFFCURVE",
"135 416 OFFCURVE",
"141 395 CURVE",
"142 394 LINE",
"237 391 OFFCURVE",
"261 394 OFFCURVE",
"319 391 CURVE",
"319 390 LINE",
"323 355 OFFCURVE",
"320 326 OFFCURVE",
"321 303 CURVE",
"266 298 OFFCURVE",
"289 300 OFFCURVE",
"196 298 CURVE SMOOTH",
"167 297 OFFCURVE",
"150 296 OFFCURVE",
"146 293 CURVE",
"139 254 OFFCURVE",
"144 189 OFFCURVE",
"143 94 CURVE",
"144 93 LINE",
"308 94 OFFCURVE",
"361 85 OFFCURVE",
"460 88 CURVE"
);
}
);
width = 481;
}
);
note = Eacute;
rightKerningGroup = AE;
unicode = 00C9;
},
{
glyphname = Ecircumflex;
layers = (
{
hints = (
{
horizontal = 1;
place = "{93, 205}";
type = Stem;
},
{
horizontal = 1;
place = "{394, 205}";
type = Stem;
},
{
horizontal = 1;
place = "{697.73, 56.27}";
type = Stem;
},
{
place = "{40.35, 420.75}";
type = Stem;
}
);
layerId = "0C1D5C58-AE70-45E1-B635-E72A3DDAF756";
paths = (
{
closed = 1;
nodes = (
"413 755 LINE",
"410 757 OFFCURVE",
"378 748 OFFCURVE",
"333 750 CURVE",
"329 750 OFFCURVE",
"318 761 OFFCURVE",
"300 779 CURVE SMOOTH",
"277 801 LINE",
"268 813 OFFCURVE",
"256 825 OFFCURVE",
"251 828 CURVE",
"244 825 OFFCURVE",
"193 758 OFFCURVE",
"173 752 CURVE",
"155 750 OFFCURVE",
"155 751 OFFCURVE",
"90 754 CURVE",
"144 822 OFFCURVE",
"190 859 OFFCURVE",
"251 916 CURVE"
);
},
{
closed = 1;
nodes = (
"460 86 LINE",
"461 59 OFFCURVE",
"461 29 OFFCURVE",
"455 3 CURVE",
"319 4 OFFCURVE",
"174 -6 OFFCURVE",
"45 5 CURVE",
"45 237 OFFCURVE",
"33 460 OFFCURVE",
"46 689 CURVE",
"201 697 OFFCURVE",
"460 701 OFFCURVE",
"460 695 CURVE",
"463 668 OFFCURVE",
"459 641 OFFCURVE",
"459 614 CURVE SMOOTH",
"459 604 LINE",
"416 601 OFFCURVE",
"376 599 OFFCURVE",
"332 599 CURVE SMOOTH",
"277 599 LINE SMOOTH",
"252 599 OFFCURVE",
"207 600 OFFCURVE",
"146 596 CURVE",
"142 595 LINE",
"143 579 OFFCURVE",
"142 548 OFFCURVE",
"139 504 CURVE SMOOTH",
"136 452 OFFCURVE",
"135 416 OFFCURVE",
"141 395 CURVE",
"142 394 LINE",
"237 391 OFFCURVE",
"261 394 OFFCURVE",
"319 391 CURVE",
"319 390 LINE",
"323 355 OFFCURVE",
"320 326 OFFCURVE",
"321 303 CURVE",
"266 298 OFFCURVE",
"289 300 OFFCURVE",
"196 298 CURVE SMOOTH",
"167 297 OFFCURVE",
"150 296 OFFCURVE",
"146 293 CURVE",
"139 254 OFFCURVE",
"144 189 OFFCURVE",
"143 94 CURVE",
"144 93 LINE",
"308 94 OFFCURVE",
"361 85 OFFCURVE",
"460 88 CURVE"
);
}
);
width = 481;
}
);
note = Ecircumflex;
rightKerningGroup = AE;
unicode = 00CA;
},
{
glyphname = Edieresis;
layers = (
{
hints = (
{
horizontal = 1;
place = "{93, 205}";
type = Stem;
},
{
horizontal = 1;
place = "{394, 205}";
type = Stem;
},
{
horizontal = 1;
place = "{697.73, 61.27}";
type = Stem;
},
{
place = "{192, 92}";
type = Stem;
}
);
layerId = "0C1D5C58-AE70-45E1-B635-E72A3DDAF756";
paths = (
{
closed = 1;
nodes = (
"190 758 LINE",
"168 758 OFFCURVE",
"145 759 OFFCURVE",
"122 759 CURVE SMOOTH",
"119 759 LINE",
"114 785 OFFCURVE",
"118 843 OFFCURVE",
"118 860 CURVE",
"137 866 OFFCURVE",
"184 867 OFFCURVE",
"198 861 CURVE",
"198 859 OFFCURVE",
"192 777 OFFCURVE",
"192 760 CURVE SMOOTH",
"192 759 LINE"
);
},
{
closed = 1;
nodes = (
"356 758 LINE",
"334 758 OFFCURVE",
"311 759 OFFCURVE",
"288 759 CURVE SMOOTH",
"285 759 LINE",
"280 785 OFFCURVE",
"284 843 OFFCURVE",
"284 860 CURVE",
"303 866 OFFCURVE",
"350 867 OFFCURVE",
"364 861 CURVE",
"364 859 OFFCURVE",
"358 778 OFFCURVE",
"358 760 CURVE SMOOTH",
"358 759 LINE"
);
},
{
closed = 1;
nodes = (
"460 86 LINE",
"461 59 OFFCURVE",
"461 29 OFFCURVE",
"455 3 CURVE",
"319 4 OFFCURVE",
"174 -6 OFFCURVE",
"45 5 CURVE",
"45 237 OFFCURVE",
"33 460 OFFCURVE",
"46 689 CURVE",
"201 697 OFFCURVE",
"460 701 OFFCURVE",
"460 695 CURVE",
"463 668 OFFCURVE",
"459 641 OFFCURVE",
"459 614 CURVE SMOOTH",
"459 604 LINE",
"416 601 OFFCURVE",
"376 599 OFFCURVE",
"332 599 CURVE SMOOTH",
"277 599 LINE SMOOTH",
"252 599 OFFCURVE",
"207 600 OFFCURVE",
"146 596 CURVE",
"142 595 LINE",
"143 579 OFFCURVE",
"142 548 OFFCURVE",
"139 504 CURVE SMOOTH",
"136 452 OFFCURVE",
"135 416 OFFCURVE",
"141 395 CURVE",
"142 394 LINE",
"237 391 OFFCURVE",
"261 394 OFFCURVE",
"319 391 CURVE",
"319 390 LINE",
"323 355 OFFCURVE",
"320 326 OFFCURVE",
"321 303 CURVE",
"266 298 OFFCURVE",
"289 300 OFFCURVE",
"196 298 CURVE SMOOTH",
"167 297 OFFCURVE",
"150 296 OFFCURVE",
"146 293 CURVE",
"139 254 OFFCURVE",
"144 189 OFFCURVE",
"143 94 CURVE",
"144 93 LINE",
"308 94 OFFCURVE",
"361 85 OFFCURVE",
"460 88 CURVE"
);
}
);
width = 481;
}
);
note = Edieresis;
rightKerningGroup = AE;
unicode = 00CB;
},
{
glyphname = Egrave;
layers = (
{
hints = (
{
horizontal = 1;
place = "{93, 205}";
type = Stem;
},
{
horizontal = 1;
place = "{394, 205}";
type = Stem;
},
{
horizontal = 1;
place = "{697.73, 49.08}";
type = Stem;
},
{
place = "{40.35, 420.75}";
type = Stem;
}
);
layerId = "0C1D5C58-AE70-45E1-B635-E72A3DDAF756";
paths = (
{
closed = 1;
nodes = (
"137 875 OFFCURVE",
"155 893 OFFCURVE",
"172 910 CURVE",
"211 874 OFFCURVE",
"285 795 OFFCURVE",
"331 752 CURVE",
"317 748 OFFCURVE",
"271 744 OFFCURVE",
"232 749 CURVE",
"225 760 OFFCURVE",
"129 853 OFFCURVE",
"120 857 CURVE"
);
},
{
closed = 1;
nodes = (
"460 86 LINE",
"461 59 OFFCURVE",
"461 29 OFFCURVE",
"455 3 CURVE",
"319 4 OFFCURVE",
"174 -6 OFFCURVE",
"45 5 CURVE",
"45 237 OFFCURVE",
"33 460 OFFCURVE",
"46 689 CURVE",
"201 697 OFFCURVE",
"460 701 OFFCURVE",
"460 695 CURVE",
"463 668 OFFCURVE",
"459 641 OFFCURVE",
"459 614 CURVE SMOOTH",
"459 604 LINE",
"416 601 OFFCURVE",
"376 599 OFFCURVE",
"332 599 CURVE SMOOTH",
"277 599 LINE SMOOTH",
"252 599 OFFCURVE",
"207 600 OFFCURVE",
"146 596 CURVE",
"142 595 LINE",
"143 579 OFFCURVE",
"142 548 OFFCURVE",
"139 504 CURVE SMOOTH",
"136 452 OFFCURVE",
"135 416 OFFCURVE",
"141 395 CURVE",
"142 394 LINE",
"237 391 OFFCURVE",
"261 394 OFFCURVE",
"319 391 CURVE",
"319 390 LINE",
"323 355 OFFCURVE",
"320 326 OFFCURVE",
"321 303 CURVE",
"266 298 OFFCURVE",
"289 300 OFFCURVE",
"196 298 CURVE SMOOTH",
"167 297 OFFCURVE",
"150 296 OFFCURVE",
"146 293 CURVE",
"139 254 OFFCURVE",
"144 189 OFFCURVE",
"143 94 CURVE",
"144 93 LINE",
"308 94 OFFCURVE",
"361 85 OFFCURVE",
"460 88 CURVE"
);
}
);
width = 481;
}
);
note = Egrave;
rightKerningGroup = AE;
unicode = 00C8;
},
{
glyphname = F;
layers = (
{
hints = (
{
horizontal = 1;
place = "{391, 189}";
type = Stem;
},
{
place = "{41, 449.25}";
type = Stem;
}
);
layerId = "0C1D5C58-AE70-45E1-B635-E72A3DDAF756";
paths = (
{
closed = 1;
nodes = (
"354 290 OFFCURVE",
"353 289 OFFCURVE",
"352 289 CURVE",
"323 287 OFFCURVE",
"296 286 OFFCURVE",
"273 285 CURVE SMOOTH",
"257 284 OFFCURVE",
"217 282 OFFCURVE",
"156 280 CURVE SMOOTH",
"155 280 LINE",
"152 108 LINE SMOOTH",
"151 71 OFFCURVE",
"151 35 OFFCURVE",
"151 1 CURVE",
"129 -1 OFFCURVE",
"107 -2 OFFCURVE",
"95 -3 CURVE",
"92 -4 OFFCURVE",
"44 -1 OFFCURVE",
"42 1 CURVE SMOOTH",
"41 2 LINE",
"41 244 OFFCURVE",
"43 368 OFFCURVE",
"43 679 CURVE SMOOTH",
"43 680 LINE",
"112 692 OFFCURVE",
"378 710 OFFCURVE",
"490 682 CURVE",
"490 660 OFFCURVE",
"491 615 OFFCURVE",
"489 591 CURVE",
"410 592 OFFCURVE",
"367 592 OFFCURVE",
"308 589 CURVE SMOOTH",
"264 587 OFFCURVE",
"248 586 OFFCURVE",
"154 580 CURVE",
"150 518 OFFCURVE",
"149 475 OFFCURVE",
"149 451 CURVE SMOOTH",
"149 430 OFFCURVE",
"152 392 OFFCURVE",
"158 392 CURVE SMOOTH",
"229 391 OFFCURVE",
"278 391 OFFCURVE",
"306 391 CURVE SMOOTH",
"326 391 OFFCURVE",
"340 391 OFFCURVE",
"353 392 CURVE",
"360 377 OFFCURVE",
"352 314 OFFCURVE",
"354 290 CURVE"
);
}
);
width = 494;
}
);
note = F;
rightKerningGroup = F;
unicode = 0046;
},
{
glyphname = G;
layers = (
{
hints = (
{
horizontal = 1;
place = "{76.5, 199.5}";
type = Stem;
},
{
horizontal = 1;
place = "{358.5, 115.5}";
type = Stem;
},
{
place = "{115.57, 124.43}";
type = Stem;
}
);
layerId = "0C1D5C58-AE70-45E1-B635-E72A3DDAF756";
paths = (
{
closed = 1;
nodes = (
"240 346 LINE SMOOTH",
"240 348 OFFCURVE",
"240 345 OFFCURVE",
"243 348 CURVE",
"277 369 OFFCURVE",
"421 352 OFFCURVE",
"448 352 CURVE",
"451 351 LINE",
"459 280 OFFCURVE",
"464 197 OFFCURVE",
"451 125 CURVE",
"444 57 OFFCURVE",
"407 25 OFFCURVE",
"356 6 CURVE",
"290 -13 OFFCURVE",
"208 -28 OFFCURVE",
"144 -1 CURVE SMOOTH",
"73 29 OFFCURVE",
"48 87 OFFCURVE",
"38 187 CURVE SMOOTH",
"29 272 OFFCURVE",
"25 317 OFFCURVE",
"28 416 CURVE SMOOTH",
"31 535 OFFCURVE",
"26 676 OFFCURVE",
"194 699 CURVE SMOOTH",
"343 718 OFFCURVE",
"469 643 OFFCURVE",
"450 481 CURVE",
"450 479 OFFCURVE",
"449 477 OFFCURVE",
"449 475 CURVE",
"439 477 OFFCURVE",
"382 469 OFFCURVE",
"357 474 CURVE SMOOTH",
"352 475 OFFCURVE",
"357 489 OFFCURVE",
"356 534 CURVE",
"354 565 OFFCURVE",
"310 608 OFFCURVE",
"257 610 CURVE",
"176 616 OFFCURVE",
"147 583 OFFCURVE",
"134 530 CURVE SMOOTH",
"117 467 OFFCURVE",
"112 354 OFFCURVE",
"118 259 CURVE",
"130 140 OFFCURVE",
"144 105 OFFCURVE",
"198 84 CURVE",
"248 70 OFFCURVE",
"284 77 OFFCURVE",
"307 87 CURVE SMOOTH",
"331 98 OFFCURVE",
"347 99 OFFCURVE",
"364 151 CURVE",
"373 247 OFFCURVE",
"359 274 OFFCURVE",
"358 275 CURVE",
"354 276 OFFCURVE",
"340 276 OFFCURVE",
"318 276 CURVE",
"297 277 OFFCURVE",
"281 276 OFFCURVE",
"272 276 CURVE SMOOTH",
"260 276 OFFCURVE",
"250 276 OFFCURVE",
"244 278 CURVE",
"241 303 OFFCURVE",
"243 316 OFFCURVE",
"240 345 CURVE"
);
}
);
width = 481;
}
);
leftKerningGroup = G;
note = G;
rightKerningGroup = G;
unicode = 0047;
},
{
glyphname = H;
layers = (
{
hints = (
{
horizontal = 1;
place = "{0.16, 706.59}";
type = Stem;
},
{
place = "{143, 218}";
type = Stem;
},
{
place = "{121, 232}";
type = Stem;
}
);
layerId = "0C1D5C58-AE70-45E1-B635-E72A3DDAF756";
paths = (
{
closed = 1;
nodes = (
"469 6 LINE",
"440 1 OFFCURVE",
"402 3 OFFCURVE",
"376 3 CURVE SMOOTH",
"375 3 LINE",
"362 128 OFFCURVE",
"369 152 OFFCURVE",
"361 299 CURVE",
"315 299 LINE",
"264 304 OFFCURVE",
"207 303 OFFCURVE",
"143 296 CURVE",
"138 114 OFFCURVE",
"144 97 OFFCURVE",
"141 4 CURVE",
"116 -6 OFFCURVE",
"70 7 OFFCURVE",
"54 1 CURVE",
"46 114 OFFCURVE",
"36 494 OFFCURVE",
"40 698 CURVE",
"41 699 LINE",
"43 699 LINE",
"68 694 OFFCURVE",
"97 702 OFFCURVE",
"121 696 CURVE",
"129 582 OFFCURVE",
"127 482 OFFCURVE",
"139 395 CURVE",
"140 395 LINE",
"242 390 OFFCURVE",
"319 395 OFFCURVE",
"352 398 CURVE",
"353 398 LINE",
"356 493 OFFCURVE",
"355 586 OFFCURVE",
"353 700 CURVE",
"379 706 OFFCURVE",
"417 708 OFFCURVE",
"442 706 CURVE"
);
}
);
width = 499;
}
);
note = H;
unicode = 0048;
},
{
glyphname = I;
layers = (
{
hints = (
{
horizontal = 1;
place = "{-4, 712.63}";
type = Stem;
},
{
place = "{66, 122}";
type = Stem;
}
);
layerId = "0C1D5C58-AE70-45E1-B635-E72A3DDAF756";
paths = (
{
closed = 1;
nodes = (
"75 708 LINE",
"113 711 OFFCURVE",
"116 704 OFFCURVE",
"188 703 CURVE",
"188 699 LINE SMOOTH",
"187 469 OFFCURVE",
"177 234 OFFCURVE",
"187 3 CURVE",
"169 -10 OFFCURVE",
"94 2 OFFCURVE",
"67 -4 CURVE",
"71 81 OFFCURVE",
"72 175 OFFCURVE",
"70 274 CURVE SMOOTH",
"69 374 OFFCURVE",
"67 461 OFFCURVE",
"66 534 CURVE",
"66 592 OFFCURVE",
"69 650 OFFCURVE",
"75 706 CURVE"
);
}
);
width = 260;
}
);
note = I;
rightKerningGroup = I;
unicode = 0049;
},
{
glyphname = Iacute;
layers = (
{
hints = (
{
horizontal = 1;
place = "{-4, 915}";
type = Stem;
},
{
place = "{66, 230}";
type = Stem;
}
);
layerId = "0C1D5C58-AE70-45E1-B635-E72A3DDAF756";
paths = (
{
closed = 1;
nodes = (
"193 764 OFFCURVE",
"287 853 OFFCURVE",
"296 858 CURVE",
"279 876 OFFCURVE",
"262 894 OFFCURVE",
"245 911 CURVE",
"205 876 OFFCURVE",
"132 796 OFFCURVE",
"85 753 CURVE",
"99 749 OFFCURVE",
"145 745 OFFCURVE",
"185 750 CURVE"
);
},
{
closed = 1;
nodes = (
"75 708 LINE",
"113 711 OFFCURVE",
"116 704 OFFCURVE",
"188 703 CURVE",
"188 699 LINE SMOOTH",
"187 469 OFFCURVE",
"177 234 OFFCURVE",
"187 3 CURVE",
"169 -10 OFFCURVE",
"94 2 OFFCURVE",
"67 -4 CURVE",
"71 81 OFFCURVE",
"72 175 OFFCURVE",
"70 274 CURVE SMOOTH",
"69 374 OFFCURVE",
"67 461 OFFCURVE",
"66 534 CURVE",
"66 592 OFFCURVE",
"69 650 OFFCURVE",
"75 706 CURVE"
);
}
);
width = 259;
}
);
note = Iacute;
rightKerningGroup = I;
unicode = 00CD;
},
{
glyphname = Icircumflex;
layers = (
{
hints = (
{
horizontal = 1;
place = "{703, 51}";
type = Stem;
},
{
place = "{-19, 323}";
type = Stem;
}
);
layerId = "0C1D5C58-AE70-45E1-B635-E72A3DDAF756";
paths = (
{
closed = 1;
nodes = (
"304 755 LINE",
"301 757 OFFCURVE",
"269 748 OFFCURVE",
"224 750 CURVE",
"220 750 OFFCURVE",
"209 761 OFFCURVE",
"191 779 CURVE SMOOTH",
"168 801 LINE",
"159 813 OFFCURVE",
"147 825 OFFCURVE",
"142 828 CURVE",
"135 825 OFFCURVE",
"84 758 OFFCURVE",
"64 752 CURVE",
"46 750 OFFCURVE",
"46 751 OFFCURVE",
"-19 754 CURVE",
"35 822 OFFCURVE",
"81 859 OFFCURVE",
"142 916 CURVE"
);
},
{
closed = 1;
nodes = (
"75 708 LINE",
"113 711 OFFCURVE",
"116 704 OFFCURVE",
"188 703 CURVE",
"188 699 LINE SMOOTH",
"187 469 OFFCURVE",
"177 234 OFFCURVE",
"187 3 CURVE",
"169 -10 OFFCURVE",
"94 2 OFFCURVE",
"67 -4 CURVE",
"71 81 OFFCURVE",
"72 175 OFFCURVE",
"70 274 CURVE SMOOTH",
"69 374 OFFCURVE",
"67 461 OFFCURVE",
"66 534 CURVE",
"66 592 OFFCURVE",
"69 650 OFFCURVE",
"75 706 CURVE"
);
}
);
width = 260;
}
);
note = Icircumflex;
rightKerningGroup = I;
unicode = 00CE;
},
{
glyphname = Idieresis;
layers = (
{
hints = (
{
horizontal = 1;
place = "{703, 56}";
type = Stem;
},
{
place = "{90, 92}";
type = Stem;
}
);
layerId = "0C1D5C58-AE70-45E1-B635-E72A3DDAF756";
paths = (
{
closed = 1;
nodes = (
"88 758 LINE",
"65 758 OFFCURVE",
"42 759 OFFCURVE",
"20 759 CURVE SMOOTH",
"17 759 LINE",
"12 785 OFFCURVE",
"16 843 OFFCURVE",
"16 860 CURVE",
"34 866 OFFCURVE",
"82 867 OFFCURVE",
"96 861 CURVE",
"96 859 OFFCURVE",
"90 777 OFFCURVE",
"90 760 CURVE SMOOTH",
"90 759 LINE"
);
},
{
closed = 1;
nodes = (
"254 758 LINE",
"231 758 OFFCURVE",
"208 759 OFFCURVE",
"186 759 CURVE SMOOTH",
"183 759 LINE",
"178 785 OFFCURVE",
"182 843 OFFCURVE",
"182 860 CURVE",
"200 866 OFFCURVE",
"248 867 OFFCURVE",
"262 861 CURVE",
"262 859 OFFCURVE",
"256 778 OFFCURVE",
"256 760 CURVE SMOOTH",
"256 759 LINE"
);
},
{
closed = 1;
nodes = (
"75 708 LINE",
"113 711 OFFCURVE",
"116 704 OFFCURVE",
"188 703 CURVE",
"188 699 LINE SMOOTH",
"187 469 OFFCURVE",
"177 234 OFFCURVE",
"187 3 CURVE",
"169 -10 OFFCURVE",
"94 2 OFFCURVE",
"67 -4 CURVE",
"71 81 OFFCURVE",
"72 175 OFFCURVE",
"70 274 CURVE SMOOTH",
"69 374 OFFCURVE",
"67 461 OFFCURVE",
"66 534 CURVE",
"66 592 OFFCURVE",
"69 650 OFFCURVE",
"75 706 CURVE"
);
}
);
width = 260;
}
);
note = Idieresis;
rightKerningGroup = I;
unicode = 00CF;
},
{
glyphname = Igrave;
layers = (
{
hints = (
{
horizontal = 1;
place = "{703, 43.81}";
type = Stem;
},
{
place = "{-16, 211}";
type = Stem;
}
);
layerId = "0C1D5C58-AE70-45E1-B635-E72A3DDAF756";
paths = (
{
closed = 1;
nodes = (
"1 875 OFFCURVE",
"19 893 OFFCURVE",
"36 910 CURVE",
"75 874 OFFCURVE",
"149 795 OFFCURVE",
"195 752 CURVE",
"181 748 OFFCURVE",
"135 744 OFFCURVE",
"96 749 CURVE",
"89 760 OFFCURVE",
"-7 853 OFFCURVE",
"-16 857 CURVE"
);
},
{
closed = 1;
nodes = (
"75 708 LINE",
"113 711 OFFCURVE",
"116 704 OFFCURVE",
"188 703 CURVE",
"188 699 LINE SMOOTH",
"187 469 OFFCURVE",
"177 234 OFFCURVE",
"187 3 CURVE",
"169 -10 OFFCURVE",
"94 2 OFFCURVE",
"67 -4 CURVE",
"71 81 OFFCURVE",
"72 175 OFFCURVE",
"70 274 CURVE SMOOTH",
"69 374 OFFCURVE",
"67 461 OFFCURVE",
"66 534 CURVE",
"66 592 OFFCURVE",
"69 650 OFFCURVE",
"75 706 CURVE"
);
}
);
width = 260;
}
);
note = Igrave;
rightKerningGroup = I;
unicode = 00CC;
},
{
glyphname = J;
layers = (
{
hints = (
{
horizontal = 1;
place = "{-8.02, 720.02}";
type = Stem;
},
{
place = "{101, 225.37}";
type = Stem;
}
);
layerId = "0C1D5C58-AE70-45E1-B635-E72A3DDAF756";
paths = (
{
closed = 1;
nodes = (
"329 710 LINE",
"361 711 OFFCURVE",
"393 711 OFFCURVE",
"425 712 CURVE",
"422 587 OFFCURVE",
"432 458 OFFCURVE",
"429 329 CURVE SMOOTH",
"424 220 OFFCURVE",
"437 62 OFFCURVE",
"313 16 CURVE",
"257 -12 OFFCURVE",
"186 -13 OFFCURVE",
"126 0 CURVE",
"17 32 OFFCURVE",
"-1 186 OFFCURVE",
"4 288 CURVE",
"29 292 OFFCURVE",
"71 291 OFFCURVE",
"101 286 CURVE",
"101 282 LINE SMOOTH",
"101 277 OFFCURVE",
"102 271 OFFCURVE",
"102 265 CURVE",
"104 233 OFFCURVE",
"103 88 OFFCURVE",
"224 102 CURVE SMOOTH",
"340 112 OFFCURVE",
"327 219 OFFCURVE",
"329 243 CURVE",
"327 383 OFFCURVE",
"324 544 OFFCURVE",
"329 703 CURVE SMOOTH"
);
}
);
width = 463;
}
);
leftKerningGroup = J;
note = J;
rightKerningGroup = J;
unicode = 004A;
},
{
glyphname = K;
layers = (
{
hints = (
{
horizontal = 1;
place = "{-0.25, 699.25}";
type = Stem;
},
{
place = "{38.81, 424.19}";
type = Stem;
}
);
layerId = "0C1D5C58-AE70-45E1-B635-E72A3DDAF756";
paths = (
{
closed = 1;
nodes = (
"296 242 OFFCURVE",
"379 122 OFFCURVE",
"463 4 CURVE",
"431 -1 OFFCURVE",
"395 2 OFFCURVE",
"363 2 CURVE",
"225 150 OFFCURVE",
"193 227 OFFCURVE",
"142 292 CURVE",
"142 273 OFFCURVE",
"142 248 OFFCURVE",
"140 218 CURVE",
"138 152 OFFCURVE",
"144 48 OFFCURVE",
"144 5 CURVE",
"116 -3 OFFCURVE",
"69 -1 OFFCURVE",
"43 5 CURVE",
"32 234 OFFCURVE",
"46 466 OFFCURVE",
"45 699 CURVE",
"75 699 OFFCURVE",
"107 697 OFFCURVE",
"137 697 CURVE",
"139 620 OFFCURVE",
"136 549 OFFCURVE",
"139 429 CURVE",
"232 527 LINE",
"292 595 OFFCURVE",
"322 641 OFFCURVE",
"362 695 CURVE",
"394 693 OFFCURVE",
"430 697 OFFCURVE",
"462 693 CURVE",
"373 558 OFFCURVE",
"323 494 OFFCURVE",
"212 360 CURVE"
);
}
);
width = 459;
}
);
note = K;
rightKerningGroup = K;
unicode = 004B;
},
{
glyphname = L;
layers = (
{
hints = (
{
horizontal = 1;
place = "{-2.52, 710.52}";
type = Stem;
},
{
place = "{36, 421}";
type = Stem;
}
);
layerId = "0C1D5C58-AE70-45E1-B635-E72A3DDAF756";
paths = (
{
closed = 1;
nodes = (
"457 83 OFFCURVE",
"454 64 OFFCURVE",
"455 46 CURVE",
"454 -3 OFFCURVE",
"448 0 OFFCURVE",
"431 0 CURVE",
"403 3 OFFCURVE",
"358 -6 OFFCURVE",
"36 -1 CURVE",
"36 17 LINE",
"48 317 OFFCURVE",
"43 422 OFFCURVE",
"39 703 CURVE",
"59 711 OFFCURVE",
"119 710 OFFCURVE",
"148 698 CURVE",
"143 567 OFFCURVE",
"149 424 OFFCURVE",
"149 289 CURVE SMOOTH",
"149 244 OFFCURVE",
"150 180 OFFCURVE",
"147 102 CURVE",
"147 101 LINE",
"150 102 OFFCURVE",
"236 105 OFFCURVE",
"258 104 CURVE SMOOTH",
"324 101 OFFCURVE",
"435 94 OFFCURVE",
"457 97 CURVE"
);
}
);
width = 461;
}
);
note = L;
rightKerningGroup = L;
unicode = 004C;
},
{
glyphname = M;
layers = (
{
hints = (
{
horizontal = 1;
place = "{506, -20}";
target = down;
type = TopGhost;
},
{
place = "{137, 221}";
type = Stem;
}
);
layerId = "0C1D5C58-AE70-45E1-B635-E72A3DDAF756";
paths = (
{
closed = 1;
nodes = (
"456 -1 LINE",
"426 3 OFFCURVE",
"390 1 OFFCURVE",
"366 1 CURVE",
"357 162 OFFCURVE",
"363 206 OFFCURVE",
"358 506 CURVE",
"346 489 OFFCURVE",
"353 496 OFFCURVE",
"307 399 CURVE SMOOTH",
"257 293 OFFCURVE",
"255 273 OFFCURVE",
"247 273 CURVE",
"227 286 OFFCURVE",
"176 416 OFFCURVE",
"137 497 CURVE",
"135 357 OFFCURVE",
"136 256 OFFCURVE",
"137 192 CURVE SMOOTH",
"138 128 OFFCURVE",
"141 65 OFFCURVE",
"145 3 CURVE",
"115 -1 OFFCURVE",
"78 0 OFFCURVE",
"48 0 CURVE SMOOTH",
"39 0 OFFCURVE",
"39 76 OFFCURVE",
"44 686 CURVE",
"67 693 OFFCURVE",
"103 689 OFFCURVE",
"137 691 CURVE",
"138 691 LINE",
"148 680 OFFCURVE",
"186 578 OFFCURVE",
"248 464 CURVE",
"255 466 OFFCURVE",
"319 648 OFFCURVE",
"354 694 CURVE",
"368 692 OFFCURVE",
"428 697 OFFCURVE",
"460 697 CURVE",
"455 569 OFFCURVE",
"466 446 OFFCURVE",
"459 318 CURVE"
);
}
);
width = 501;
}
);
note = M;
rightKerningGroup = I;
unicode = 004D;
},
{
glyphname = N;
layers = (
{
hints = (
{
horizontal = 1;
place = "{0, 21}";
target = up;
type = BottomGhost;
},
{
place = "{42, 99}";
type = Stem;
},
{
place = "{363, 93}";
type = Stem;
},
{
horizontal = 1;
place = "{-3, 21}";
target = up;
type = BottomGhost;
}
);
layerId = "0C1D5C58-AE70-45E1-B635-E72A3DDAF756";
paths = (
{
closed = 1;
nodes = (
"456 137 OFFCURVE",
"457 172 OFFCURVE",
"457 211 CURVE SMOOTH",
"457 268 OFFCURVE",
"457 326 OFFCURVE",
"456 382 CURVE",
"456 704 LINE",
"441 707 OFFCURVE",
"426 708 OFFCURVE",
"408 709 CURVE",
"391 709 OFFCURVE",
"374 708 OFFCURVE",
"358 706 CURVE",
"358 674 OFFCURVE",
"357 661 OFFCURVE",
"358 621 CURVE SMOOTH",
"359 573 OFFCURVE",
"362 504 OFFCURVE",
"363 408 CURVE SMOOTH",
"363 368 OFFCURVE",
"370 266 OFFCURVE",
"368 210 CURVE",
"356 244 OFFCURVE",
"272 432 OFFCURVE",
"199 565 CURVE SMOOTH",
"167 626 OFFCURVE",
"153 652 OFFCURVE",
"136 694 CURVE",
"136 697 OFFCURVE",
"100 700 OFFCURVE",
"85 701 CURVE SMOOTH",
"70 702 OFFCURVE",
"58 702 OFFCURVE",
"48 700 CURVE",
"41 615 OFFCURVE",
"39 524 OFFCURVE",
"39 432 CURVE SMOOTH",
"39 307 OFFCURVE",
"42 198 OFFCURVE",
"42 71 CURVE SMOOTH",
"42 1 LINE",
"65 1 OFFCURVE",
"87 -3 OFFCURVE",
"108 -3 CURVE",
"120 -4 OFFCURVE",
"130 -3 OFFCURVE",
"142 0 CURVE",
"141 19 OFFCURVE",
"141 43 OFFCURVE",
"141 68 CURVE SMOOTH",
"141 94 LINE SMOOTH",
"141 335 OFFCURVE",
"140 430 OFFCURVE",
"140 453 CURVE",
"143 465 OFFCURVE",
"146 451 OFFCURVE",
"160 420 CURVE SMOOTH",
"239 253 OFFCURVE",
"337 71 OFFCURVE",
"372 0 CURVE",
"457 0 LINE",
"457 20 LINE",
"455 49 OFFCURVE",
"454 75 OFFCURVE",
"456 100 CURVE"
);
}
);
width = 498;
}
);
note = N;
rightKerningGroup = I;
unicode = 004E;
},
{
glyphname = Ntilde;
layers = (
{
hints = (
{
horizontal = 1;
place = "{0, 21}";
target = up;
type = BottomGhost;
},
{
horizontal = 1;
place = "{854, 65.8}";
type = Stem;
},
{
place = "{42, 99}";
type = Stem;
},
{
place = "{363, 93}";
type = Stem;
},
{
place = "{402, 62.16}";
type = Stem;
},
{
horizontal = 1;
place = "{748.04, 163.96}";
type = Stem;
},
{
horizontal = 1;
place = "{-3, 21}";
target = up;
type = BottomGhost;
}
);
layerId = "0C1D5C58-AE70-45E1-B635-E72A3DDAF756";
paths = (
{
closed = 1;
nodes = (
"140 755 LINE SMOOTH",
"140 813 OFFCURVE",
"169 854 OFFCURVE",
"215 854 CURVE",
"236 853 OFFCURVE",
"249 844 OFFCURVE",
"262 813 CURVE",
"283 747 OFFCURVE",
"334 742 OFFCURVE",
"377 752 CURVE SMOOTH",
"435 766 OFFCURVE",
"474 847 OFFCURVE",
"462 910 CURVE",
"462 911 LINE",
"461 912 LINE",
"441 911 OFFCURVE",
"421 911 OFFCURVE",
"402 910 CURVE",
"403 875 OFFCURVE",
"392 829 OFFCURVE",
"350 816 CURVE SMOOTH",
"301 802 OFFCURVE",
"283 884 OFFCURVE",
"255 904 CURVE",
"212 932 OFFCURVE",
"155 921 OFFCURVE",
"120 885 CURVE SMOOTH",
"94 857 OFFCURVE",
"68 784 OFFCURVE",
"60 756 CURVE",
"73 756 OFFCURVE",
"85 757 OFFCURVE",
"96 757 CURVE SMOOTH",
"112 757 OFFCURVE",
"130 756 OFFCURVE",
"140 754 CURVE"
);
},
{
closed = 1;
nodes = (
"457 268 OFFCURVE",
"457 326 OFFCURVE",
"456 382 CURVE",
"456 704 LINE",
"441 707 OFFCURVE",
"426 708 OFFCURVE",
"408 709 CURVE",
"391 709 OFFCURVE",
"374 708 OFFCURVE",
"358 706 CURVE",
"358 674 OFFCURVE",
"357 661 OFFCURVE",
"358 621 CURVE SMOOTH",
"359 573 OFFCURVE",
"362 504 OFFCURVE",
"363 408 CURVE SMOOTH",
"363 368 OFFCURVE",
"370 266 OFFCURVE",
"368 210 CURVE",
"356 244 OFFCURVE",
"272 432 OFFCURVE",
"199 565 CURVE SMOOTH",
"167 626 OFFCURVE",
"153 652 OFFCURVE",
"136 694 CURVE",
"136 697 OFFCURVE",
"100 700 OFFCURVE",
"85 701 CURVE SMOOTH",
"70 702 OFFCURVE",
"58 702 OFFCURVE",
"48 700 CURVE",
"41 615 OFFCURVE",
"39 524 OFFCURVE",
"39 432 CURVE SMOOTH",
"39 307 OFFCURVE",
"42 198 OFFCURVE",
"42 71 CURVE SMOOTH",
"42 1 LINE",
"65 1 OFFCURVE",
"87 -3 OFFCURVE",
"108 -3 CURVE",
"120 -4 OFFCURVE",
"130 -3 OFFCURVE",
"142 0 CURVE",
"141 19 OFFCURVE",
"141 43 OFFCURVE",
"141 68 CURVE SMOOTH",
"141 94 LINE SMOOTH",
"141 335 OFFCURVE",
"140 430 OFFCURVE",
"140 453 CURVE",
"143 465 OFFCURVE",
"146 451 OFFCURVE",
"160 420 CURVE SMOOTH",
"239 253 OFFCURVE",
"337 71 OFFCURVE",
"372 0 CURVE",
"457 0 LINE",
"457 20 LINE",
"455 49 OFFCURVE",
"454 75 OFFCURVE",
"456 100 CURVE",
"456 137 OFFCURVE",
"457 172 OFFCURVE",
"457 211 CURVE SMOOTH"
);
}
);
width = 516;
}
);
note = Ntilde;
rightKerningGroup = I;
unicode = 00D1;
},
{
glyphname = O;
layers = (
{
hints = (
{
horizontal = 1;
place = "{-14.37, 714.7}";
type = Stem;
},
{
place = "{105, 264}";
type = Stem;
}
);
layerId = "0C1D5C58-AE70-45E1-B635-E72A3DDAF756";
paths = (
{
closed = 1;
nodes = (
"212 722 OFFCURVE",
"395 713 OFFCURVE",
"437 592 CURVE",
"459 543 OFFCURVE",
"457 484 OFFCURVE",
"455 431 CURVE SMOOTH",
"451 360 OFFCURVE",
"454 295 OFFCURVE",
"450 226 CURVE SMOOTH",
"447 193 LINE SMOOTH",
"443 146 OFFCURVE",
"433 97 OFFCURVE",
"409 58 CURVE",
"366 -1 OFFCURVE",
"268 -20 OFFCURVE",
"192 -13 CURVE SMOOTH",
"97 -5 OFFCURVE",
"39 36 OFFCURVE",
"36 168 CURVE SMOOTH",
"32 272 OFFCURVE",
"23 377 OFFCURVE",
"31 482 CURVE",
"32 545 OFFCURVE",
"46 637 OFFCURVE",
"107 671 CURVE"
);
},
{
closed = 1;
nodes = (
"369 347 LINE SMOOTH",
"369 374 OFFCURVE",
"368 400 OFFCURVE",
"368 427 CURVE",
"366 465 OFFCURVE",
"378 605 OFFCURVE",
"253 612 CURVE SMOOTH",
"134 619 OFFCURVE",
"103 513 OFFCURVE",
"105 325 CURVE SMOOTH",
"107 182 OFFCURVE",
"113 122 OFFCURVE",
"157 91 CURVE SMOOTH",
"175 78 OFFCURVE",
"201 73 OFFCURVE",
"234 74 CURVE SMOOTH",
"327 76 OFFCURVE",
"360 119 OFFCURVE",
"364 188 CURVE",
"364 235 OFFCURVE",
"369 313 OFFCURVE",
"369 312 CURVE"
);
}
);
width = 483;
}
);
leftKerningGroup = G;
note = O;
rightKerningGroup = O;
unicode = 004F;
},
{
glyphname = Oacute;
layers = (
{
hints = (
{
horizontal = 1;
place = "{702.33, 49.67}";
type = Stem;
},
{
place = "{105, 264}";
type = Stem;
}
);
layerId = "0C1D5C58-AE70-45E1-B635-E72A3DDAF756";
paths = (
{
closed = 1;
nodes = (
"286 763 OFFCURVE",
"381 852 OFFCURVE",
"390 857 CURVE",
"373 875 OFFCURVE",
"355 893 OFFCURVE",
"338 910 CURVE",
"298 875 OFFCURVE",
"226 795 OFFCURVE",
"179 752 CURVE",
"192 748 OFFCURVE",
"238 744 OFFCURVE",
"278 749 CURVE"
);
},
{
closed = 1;
nodes = (
"212 724 OFFCURVE",
"395 715 OFFCURVE",
"437 594 CURVE",
"459 546 OFFCURVE",
"457 486 OFFCURVE",
"455 433 CURVE SMOOTH",
"452 362 OFFCURVE",
"455 297 OFFCURVE",
"450 228 CURVE SMOOTH",
"447 195 LINE SMOOTH",
"444 148 OFFCURVE",
"434 99 OFFCURVE",
"409 60 CURVE",
"367 2 OFFCURVE",
"269 -17 OFFCURVE",
"192 -11 CURVE SMOOTH",
"98 -2 OFFCURVE",
"40 38 OFFCURVE",
"36 170 CURVE SMOOTH",
"33 274 OFFCURVE",
"24 379 OFFCURVE",
"31 484 CURVE",
"32 547 OFFCURVE",
"46 639 OFFCURVE",
"107 673 CURVE"
);
},
{
closed = 1;
nodes = (
"369 349 LINE SMOOTH",
"369 376 OFFCURVE",
"368 403 OFFCURVE",
"368 430 CURVE",
"367 467 OFFCURVE",
"379 607 OFFCURVE",
"253 615 CURVE SMOOTH",
"134 621 OFFCURVE",
"104 516 OFFCURVE",
"105 327 CURVE SMOOTH",
"108 184 OFFCURVE",
"114 124 OFFCURVE",
"158 93 CURVE SMOOTH",
"175 81 OFFCURVE",
"201 75 OFFCURVE",
"234 76 CURVE SMOOTH",
"327 79 OFFCURVE",
"360 122 OFFCURVE",
"364 191 CURVE",
"364 238 OFFCURVE",
"369 316 OFFCURVE",
"369 314 CURVE"
);
}
);
width = 485;
}
);
leftKerningGroup = G;
note = Oacute;
rightKerningGroup = O;
unicode = 00D3;
},
{
glyphname = Ocircumflex;
layers = (
{
hints = (
{
horizontal = 1;
place = "{702.33, 51.67}";
type = Stem;
},
{
place = "{105, 264}";
type = Stem;
}
);
layerId = "0C1D5C58-AE70-45E1-B635-E72A3DDAF756";
paths = (
{
closed = 1;
nodes = (
"410 755 LINE",
"407 757 OFFCURVE",
"374 748 OFFCURVE",
"330 750 CURVE",
"326 750 OFFCURVE",
"314 761 OFFCURVE",
"296 779 CURVE SMOOTH",
"274 801 LINE",
"264 813 OFFCURVE",
"253 825 OFFCURVE",
"247 828 CURVE",
"240 825 OFFCURVE",
"190 758 OFFCURVE",
"169 752 CURVE",
"151 750 OFFCURVE",
"151 751 OFFCURVE",
"87 754 CURVE",
"141 822 OFFCURVE",
"186 859 OFFCURVE",
"248 916 CURVE"
);
},
{
closed = 1;
nodes = (
"212 724 OFFCURVE",
"395 715 OFFCURVE",
"437 594 CURVE",
"459 546 OFFCURVE",
"457 486 OFFCURVE",
"455 433 CURVE SMOOTH",
"451 362 OFFCURVE",
"454 297 OFFCURVE",
"450 228 CURVE SMOOTH",
"447 195 LINE SMOOTH",
"443 148 OFFCURVE",
"433 99 OFFCURVE",
"409 60 CURVE",
"366 2 OFFCURVE",
"268 -17 OFFCURVE",
"192 -11 CURVE SMOOTH",
"97 -2 OFFCURVE",
"39 38 OFFCURVE",
"36 170 CURVE SMOOTH",
"32 274 OFFCURVE",
"23 379 OFFCURVE",
"31 484 CURVE",
"32 547 OFFCURVE",
"46 639 OFFCURVE",
"107 673 CURVE"
);
},
{
closed = 1;
nodes = (
"369 349 LINE SMOOTH",
"369 376 OFFCURVE",
"368 403 OFFCURVE",
"368 430 CURVE",
"366 467 OFFCURVE",
"378 607 OFFCURVE",
"253 615 CURVE SMOOTH",
"134 621 OFFCURVE",
"103 516 OFFCURVE",
"105 327 CURVE SMOOTH",
"107 184 OFFCURVE",
"113 124 OFFCURVE",
"157 93 CURVE SMOOTH",
"175 81 OFFCURVE",
"201 75 OFFCURVE",
"234 76 CURVE SMOOTH",
"327 79 OFFCURVE",
"360 122 OFFCURVE",
"364 191 CURVE",
"364 238 OFFCURVE",
"369 316 OFFCURVE",
"369 314 CURVE"
);
}
);
width = 484;
}
);
leftKerningGroup = G;
note = Ocircumflex;
rightKerningGroup = O;
unicode = 00D4;
},
{
glyphname = Odieresis;
layers = (
{
hints = (
{
horizontal = 1;
place = "{702.33, 56.67}";
type = Stem;
},
{
place = "{199, 92}";
type = Stem;
},
{
place = "{105, 264}";
type = Stem;
}
);
layerId = "0C1D5C58-AE70-45E1-B635-E72A3DDAF756";
paths = (
{
closed = 1;
nodes = (
"197 758 LINE",
"174 758 OFFCURVE",
"151 759 OFFCURVE",
"129 759 CURVE SMOOTH",
"126 759 LINE",
"121 785 OFFCURVE",
"125 843 OFFCURVE",
"125 860 CURVE",
"143 866 OFFCURVE",
"191 867 OFFCURVE",
"205 861 CURVE",
"205 859 OFFCURVE",
"199 777 OFFCURVE",
"199 760 CURVE SMOOTH",
"199 759 LINE"
);
},
{
closed = 1;
nodes = (
"363 758 LINE",
"340 758 OFFCURVE",
"317 759 OFFCURVE",
"295 759 CURVE SMOOTH",
"292 759 LINE",
"287 785 OFFCURVE",
"291 843 OFFCURVE",
"291 860 CURVE",
"309 866 OFFCURVE",
"357 867 OFFCURVE",
"371 861 CURVE",
"371 859 OFFCURVE",
"365 777 OFFCURVE",
"365 760 CURVE SMOOTH",
"365 759 LINE"
);
},
{
closed = 1;
nodes = (
"212 724 OFFCURVE",
"395 715 OFFCURVE",
"437 594 CURVE",
"459 546 OFFCURVE",
"457 486 OFFCURVE",
"455 433 CURVE SMOOTH",
"451 362 OFFCURVE",
"454 297 OFFCURVE",
"450 228 CURVE SMOOTH",
"447 195 LINE SMOOTH",
"443 148 OFFCURVE",
"433 99 OFFCURVE",
"409 60 CURVE",
"366 2 OFFCURVE",
"268 -17 OFFCURVE",
"192 -11 CURVE SMOOTH",
"97 -2 OFFCURVE",
"39 38 OFFCURVE",
"36 170 CURVE SMOOTH",
"32 274 OFFCURVE",
"23 379 OFFCURVE",
"31 484 CURVE",
"32 547 OFFCURVE",
"46 639 OFFCURVE",
"107 673 CURVE"
);
},
{
closed = 1;
nodes = (
"369 349 LINE SMOOTH",
"369 376 OFFCURVE",
"368 403 OFFCURVE",
"368 430 CURVE",
"366 467 OFFCURVE",
"378 607 OFFCURVE",
"253 615 CURVE SMOOTH",
"134 621 OFFCURVE",
"103 516 OFFCURVE",
"105 327 CURVE SMOOTH",
"107 184 OFFCURVE",
"113 124 OFFCURVE",
"157 93 CURVE SMOOTH",
"175 81 OFFCURVE",
"201 75 OFFCURVE",
"234 76 CURVE SMOOTH",
"327 79 OFFCURVE",
"360 122 OFFCURVE",
"364 191 CURVE",
"364 238 OFFCURVE",
"369 316 OFFCURVE",
"369 314 CURVE"
);
}
);
width = 484;
}
);
leftKerningGroup = G;
note = Odieresis;
rightKerningGroup = O;
unicode = 00D6;
},
{
glyphname = Ograve;
layers = (
{
hints = (
{
horizontal = 1;
place = "{702.33, 44.48}";
type = Stem;
},
{
place = "{105, 264}";
type = Stem;
}
);
layerId = "0C1D5C58-AE70-45E1-B635-E72A3DDAF756";
paths = (
{
closed = 1;
nodes = (
"93 875 OFFCURVE",
"110 893 OFFCURVE",
"127 910 CURVE",
"167 874 OFFCURVE",
"240 795 OFFCURVE",
"287 752 CURVE",
"273 748 OFFCURVE",
"227 744 OFFCURVE",
"187 749 CURVE",
"180 760 OFFCURVE",
"85 853 OFFCURVE",
"76 857 CURVE"
);
},
{
closed = 1;
nodes = (
"212 724 OFFCURVE",
"395 715 OFFCURVE",
"437 594 CURVE",
"459 546 OFFCURVE",
"457 486 OFFCURVE",
"455 433 CURVE SMOOTH",
"452 362 OFFCURVE",
"455 297 OFFCURVE",
"450 228 CURVE SMOOTH",
"447 195 LINE SMOOTH",
"444 148 OFFCURVE",
"434 99 OFFCURVE",
"409 60 CURVE",
"367 2 OFFCURVE",
"269 -17 OFFCURVE",
"192 -11 CURVE SMOOTH",
"98 -2 OFFCURVE",
"40 38 OFFCURVE",
"36 170 CURVE SMOOTH",
"33 274 OFFCURVE",
"24 379 OFFCURVE",
"31 484 CURVE",
"32 547 OFFCURVE",
"46 639 OFFCURVE",
"107 673 CURVE"
);
},
{
closed = 1;
nodes = (
"369 349 LINE SMOOTH",
"369 376 OFFCURVE",
"368 403 OFFCURVE",
"368 430 CURVE",
"367 467 OFFCURVE",
"379 607 OFFCURVE",
"253 615 CURVE SMOOTH",
"134 621 OFFCURVE",
"104 516 OFFCURVE",
"105 327 CURVE SMOOTH",
"108 184 OFFCURVE",
"114 124 OFFCURVE",
"158 93 CURVE SMOOTH",
"175 81 OFFCURVE",
"201 75 OFFCURVE",
"234 76 CURVE SMOOTH",
"327 79 OFFCURVE",
"360 122 OFFCURVE",
"364 191 CURVE",
"364 238 OFFCURVE",
"369 316 OFFCURVE",
"369 314 CURVE"
);
}
);
width = 485;
}
);
leftKerningGroup = G;
note = Ograve;
rightKerningGroup = O;
unicode = 00D2;
},
{
glyphname = Oslash;
layers = (
{
hints = (
{
horizontal = 1;
place = "{-18, 21}";
target = up;
type = BottomGhost;
},
{
horizontal = 1;
place = "{614, 92}";
type = Stem;
},
{
place = "{32, 81}";
type = Stem;
},
{
place = "{368, 83}";
type = Stem;
},
{
horizontal = 1;
place = "{1, 84}";
type = Stem;
}
);
layerId = "0C1D5C58-AE70-45E1-B635-E72A3DDAF756";
paths = (
{
closed = 1;
nodes = (
"452 402 OFFCURVE",
"450 430 OFFCURVE",
"447 462 CURVE",
"444 530 OFFCURVE",
"432 600 OFFCURVE",
"386 649 CURVE",
"388 671 OFFCURVE",
"402 694 OFFCURVE",
"406 717 CURVE",
"389 726 OFFCURVE",
"346 721 OFFCURVE",
"314 724 CURVE",
"307 717 OFFCURVE",
"308 701 OFFCURVE",
"303 692 CURVE",
"281 702 OFFCURVE",
"255 706 OFFCURVE",
"227 706 CURVE SMOOTH",
"153 704 OFFCURVE",
"95 674 OFFCURVE",
"60 600 CURVE SMOOTH",
"39 557 OFFCURVE",
"36 508 OFFCURVE",
"32 460 CURVE SMOOTH",
"28 411 OFFCURVE",
"29 361 OFFCURVE",
"31 313 CURVE SMOOTH",
"32 229 OFFCURVE",
"38 139 OFFCURVE",
"74 68 CURVE",
"77 65 OFFCURVE",
"80 62 OFFCURVE",
"82 59 CURVE",
"81 54 OFFCURVE",
"79 50 OFFCURVE",
"78 45 CURVE",
"70 25 OFFCURVE",
"57 -12 OFFCURVE",
"57 -21 CURVE",
"92 -19 OFFCURVE",
"132 -21 OFFCURVE",
"147 -18 CURVE",
"149 -15 LINE",
"157 -6 OFFCURVE",
"160 4 OFFCURVE",
"162 10 CURVE",
"181 4 OFFCURVE",
"205 2 OFFCURVE",
"230 1 CURVE SMOOTH",
"332 -2 OFFCURVE",
"401 51 OFFCURVE",
"428 148 CURVE SMOOTH",
"447 222 OFFCURVE",
"452 299 OFFCURVE",
"451 372 CURVE"
);
},
{
closed = 1;
nodes = (
"191 357 OFFCURVE",
"183 333 OFFCURVE",
"131 184 CURVE",
"107 225 OFFCURVE",
"110 314 OFFCURVE",
"110 358 CURVE",
"112 385 OFFCURVE",
"113 415 OFFCURVE",
"113 446 CURVE",
"116 482 OFFCURVE",
"114 610 OFFCURVE",
"240 614 CURVE",
"252 611 OFFCURVE",
"264 608 OFFCURVE",
"275 602 CURVE"
);
},
{
closed = 1;
nodes = (
"244 228 OFFCURVE",
"302 368 OFFCURVE",
"337 505 CURVE",
"354 460 OFFCURVE",
"366 422 OFFCURVE",
"368 379 CURVE SMOOTH",
"370 334 OFFCURVE",
"369 307 OFFCURVE",
"368 279 CURVE",
"365 243 OFFCURVE",
"373 213 OFFCURVE",
"335 147 CURVE",
"317 109 OFFCURVE",
"272 89 OFFCURVE",
"235 85 CURVE",
"219 85 OFFCURVE",
"206 88 OFFCURVE",
"195 94 CURVE"
);
}
);
width = 479;
}
);
leftKerningGroup = G;
note = Oslash;
rightKerningGroup = O;
unicode = 00D8;
},
{
glyphname = Otilde;
layers = (
{
hints = (
{
horizontal = 1;
place = "{702.33, 35.29}";
type = Stem;
},
{
place = "{105, 264}";
type = Stem;
}
);
layerId = "0C1D5C58-AE70-45E1-B635-E72A3DDAF756";
paths = (
{
closed = 1;
nodes = (
"118 744 LINE",
"107 745 OFFCURVE",
"90 746 OFFCURVE",
"73 746 CURVE SMOOTH",
"62 746 OFFCURVE",
"51 746 OFFCURVE",
"37 745 CURVE",
"45 774 OFFCURVE",
"72 847 OFFCURVE",
"97 874 CURVE",
"133 910 OFFCURVE",
"190 922 OFFCURVE",
"232 893 CURVE SMOOTH",
"260 873 OFFCURVE",
"278 791 OFFCURVE",
"327 805 CURVE SMOOTH",
"369 818 OFFCURVE",
"380 865 OFFCURVE",
"379 899 CURVE",
"399 901 OFFCURVE",
"419 901 OFFCURVE",
"439 901 CURVE",
"439 900 LINE",
"440 900 LINE",
"451 837 OFFCURVE",
"413 756 OFFCURVE",
"355 742 CURVE SMOOTH",
"311 731 OFFCURVE",
"260 737 OFFCURVE",
"240 803 CURVE",
"227 833 OFFCURVE",
"213 843 OFFCURVE",
"193 843 CURVE SMOOTH",
"146 843 OFFCURVE",
"117 802 OFFCURVE",
"118 745 CURVE SMOOTH"
);
},
{
closed = 1;
nodes = (
"212 724 OFFCURVE",
"395 715 OFFCURVE",
"437 594 CURVE",
"459 546 OFFCURVE",
"457 486 OFFCURVE",
"455 433 CURVE SMOOTH",
"451 362 OFFCURVE",
"454 297 OFFCURVE",
"450 228 CURVE SMOOTH",
"447 195 LINE SMOOTH",
"443 148 OFFCURVE",
"433 99 OFFCURVE",
"409 60 CURVE",
"366 2 OFFCURVE",
"268 -17 OFFCURVE",
"192 -11 CURVE SMOOTH",
"97 -2 OFFCURVE",
"39 38 OFFCURVE",
"36 170 CURVE SMOOTH",
"32 274 OFFCURVE",
"23 379 OFFCURVE",
"31 484 CURVE",
"32 547 OFFCURVE",
"46 639 OFFCURVE",
"107 673 CURVE"
);
},
{
closed = 1;
nodes = (
"369 349 LINE SMOOTH",
"369 376 OFFCURVE",
"368 403 OFFCURVE",
"368 430 CURVE",
"366 467 OFFCURVE",
"378 607 OFFCURVE",
"253 615 CURVE SMOOTH",
"134 621 OFFCURVE",
"103 516 OFFCURVE",
"105 327 CURVE SMOOTH",
"107 184 OFFCURVE",
"113 124 OFFCURVE",
"157 93 CURVE SMOOTH",
"175 81 OFFCURVE",
"201 75 OFFCURVE",
"234 76 CURVE SMOOTH",
"327 79 OFFCURVE",
"360 122 OFFCURVE",
"364 191 CURVE",
"364 238 OFFCURVE",
"369 316 OFFCURVE",
"369 314 CURVE"
);
}
);
width = 484;
}
);
leftKerningGroup = G;
note = Otilde;
rightKerningGroup = O;
unicode = 00D5;
},
{
glyphname = OE;
layers = (
{
hints = (
{
horizontal = 1;
place = "{-13, 106}";
type = Stem;
},
{
horizontal = 1;
place = "{302, 92}";
type = Stem;
},
{
horizontal = 1;
place = "{596, 101}";
type = Stem;
},
{
place = "{28.26, 80.74}";
type = Stem;
},
{
place = "{371, 143}";
type = Stem;
},
{
horizontal = 1;
place = "{591, 109.25}";
type = Stem;
},
{
horizontal = 1;
place = "{3, 101}";
type = Stem;
}
);
layerId = "0C1D5C58-AE70-45E1-B635-E72A3DDAF756";
paths = (
{
closed = 1;
nodes = (
"523 592 LINE",
"600 595 OFFCURVE",
"598 596 OFFCURVE",
"620 596 CURVE SMOOTH",
"642 596 OFFCURVE",
"664 596 OFFCURVE",
"686 595 CURVE",
"730 595 OFFCURVE",
"767 599 OFFCURVE",
"810 596 CURVE",
"811 695 LINE SMOOTH",
"811 697 OFFCURVE",
"746 699 OFFCURVE",
"662 697 CURVE SMOOTH",
"605 696 OFFCURVE",
"538 695 OFFCURVE",
"494 692 CURVE SMOOTH",
"422 689 LINE",
"421 668 OFFCURVE",
"419 648 OFFCURVE",
"418 627 CURVE",
"412 636 OFFCURVE",
"405 645 OFFCURVE",
"396 653 CURVE",
"319 712 OFFCURVE",
"195 714 OFFCURVE",
"107 671 CURVE",
"98 666 OFFCURVE",
"91 660 OFFCURVE",
"84 653 CURVE",
"43 606 OFFCURVE",
"32 542 OFFCURVE",
"31 482 CURVE",
"24 377 OFFCURVE",
"32 272 OFFCURVE",
"36 168 CURVE SMOOTH",
"37 129 OFFCURVE",
"41 90 OFFCURVE",
"60 57 CURVE",
"84 4 OFFCURVE",
"137 -8 OFFCURVE",
"192 -13 CURVE SMOOTH",
"231 -16 OFFCURVE",
"269 -14 OFFCURVE",
"306 -3 CURVE SMOOTH",
"347 8 OFFCURVE",
"386 26 OFFCURVE",
"409 58 CURVE",
"413 65 OFFCURVE",
"417 72 OFFCURVE",
"420 79 CURVE",
"421 54 OFFCURVE",
"421 30 OFFCURVE",
"421 5 CURVE",
"550 -6 OFFCURVE",
"670 4 OFFCURVE",
"806 3 CURVE",
"808 98 LINE",
"808 100 LINE",
"763 99 OFFCURVE",
"719 99 OFFCURVE",
"676 101 CURVE SMOOTH",
"633 104 OFFCURVE",
"614 105 OFFCURVE",
"515 104 CURVE",
"514 105 LINE",
"519 264 OFFCURVE",
"513 258 OFFCURVE",
"520 297 CURVE",
"523 300 OFFCURVE",
"543 301 OFFCURVE",
"580 302 CURVE SMOOTH",
"595 302 OFFCURVE",
"599 303 OFFCURVE",
"600 303 CURVE SMOOTH",
"601 303 LINE",
"613 302 OFFCURVE",
"621 302 OFFCURVE",
"625 303 CURVE SMOOTH",
"629 304 OFFCURVE",
"644 305 OFFCURVE",
"671 306 CURVE",
"671 312 LINE SMOOTH",
"671 319 OFFCURVE",
"671 379 OFFCURVE",
"670 392 CURVE",
"670 393 LINE",
"649 394 OFFCURVE",
"629 394 OFFCURVE",
"608 394 CURVE SMOOTH",
"516 395 LINE",
"515 396 LINE",
"510 414 OFFCURVE",
"510 433 OFFCURVE",
"514 509 CURVE SMOOTH",
"518 585 OFFCURVE",
"520 572 OFFCURVE",
"519 591 CURVE",
"520 592 LINE"
);
},
{
closed = 1;
nodes = (
"371 309 LINE",
"368 262 LINE SMOOTH",
"367 233 OFFCURVE",
"366 212 OFFCURVE",
"365 202 CURVE SMOOTH",
"361 158 OFFCURVE",
"359 154 OFFCURVE",
"341 131 CURVE",
"333 123 OFFCURVE",
"323 115 OFFCURVE",
"312 106 CURVE",
"300 100 OFFCURVE",
"277 95 OFFCURVE",
"240 93 CURVE",
"205 89 OFFCURVE",
"179 93 OFFCURVE",
"163 102 CURVE",
"145 113 OFFCURVE",
"136 124 OFFCURVE",
"130 134 CURVE",
"124 151 OFFCURVE",
"120 168 OFFCURVE",
"118 187 CURVE",
"114 207 OFFCURVE",
"111 250 OFFCURVE",
"109 319 CURVE SMOOTH",
"108 387 OFFCURVE",
"109 432 OFFCURVE",
"112 454 CURVE SMOOTH",
"115 476 OFFCURVE",
"119 497 OFFCURVE",
"122 518 CURVE",
"129 539 OFFCURVE",
"141 557 OFFCURVE",
"159 570 CURVE",
"198 588 OFFCURVE",
"229 595 OFFCURVE",
"257 591 CURVE",
"284 589 OFFCURVE",
"302 585 OFFCURVE",
"313 582 CURVE",
"338 569 OFFCURVE",
"361 544 OFFCURVE",
"362 516 CURVE SMOOTH",
"365 471 LINE",
"371 418 LINE"
);
},
{
closed = 1;
nodes = (
"671 306 LINE",
"671 305 OFFCURVE",
"671 305 OFFCURVE",
"672 306 CURVE"
);
}
);
width = 830;
}
);
leftKerningGroup = G;
note = OE;
rightKerningGroup = AE;
unicode = 0152;
},
{
glyphname = P;
layers = (
{
hints = (
{
horizontal = 1;
place = "{3.38, 710.24}";
type = Stem;
},
{
place = "{133, 258.48}";
type = Stem;
},
{
horizontal = 1;
place = "{353, 265}";
type = Stem;
}
);
layerId = "0C1D5C58-AE70-45E1-B635-E72A3DDAF756";
paths = (
{
closed = 1;
nodes = (
"484 478 LINE",
"473 325 OFFCURVE",
"355 250 OFFCURVE",
"149 262 CURVE",
"152 225 OFFCURVE",
"148 205 OFFCURVE",
"153 11 CURVE SMOOTH",
"153 10 LINE",
"152 10 OFFCURVE",
"151 9 OFFCURVE",
"150 9 CURVE",
"122 2 OFFCURVE",
"78 2 OFFCURVE",
"44 6 CURVE",
"36 200 OFFCURVE",
"45 473 OFFCURVE",
"37 695 CURVE",
"202 739 OFFCURVE",
"472 718 OFFCURVE",
"484 491 CURVE"
);
},
{
closed = 1;
nodes = (
"377 547 OFFCURVE",
"363 571 OFFCURVE",
"344 583 CURVE",
"305 610 OFFCURVE",
"270 620 OFFCURVE",
"199 618 CURVE SMOOTH",
"169 617 OFFCURVE",
"148 615 OFFCURVE",
"132 611 CURVE",
"134 582 OFFCURVE",
"132 579 OFFCURVE",
"133 479 CURVE SMOOTH",
"134 423 OFFCURVE",
"135 380 OFFCURVE",
"139 353 CURVE",
"216 353 OFFCURVE",
"431 350 OFFCURVE",
"386 515 CURVE SMOOTH"
);
}
);
width = 497;
}
);
note = P;
rightKerningGroup = P;
unicode = 0050;
},
{
glyphname = Thorn;
layers = (
{
hints = (
{
horizontal = 1;
place = "{-3, 730}";
type = Stem;
},
{
place = "{36, 414}";
type = Stem;
},
{
place = "{139, 226}";
type = Stem;
}
);
layerId = "0C1D5C58-AE70-45E1-B635-E72A3DDAF756";
paths = (
{
closed = 1;
nodes = (
"185 147 OFFCURVE",
"154 170 OFFCURVE",
"135 212 CURVE",
"137 172 OFFCURVE",
"138 133 OFFCURVE",
"137 90 CURVE SMOOTH",
"135 16 LINE SMOOTH",
"135 9 OFFCURVE",
"135 6 OFFCURVE",
"136 3 CURVE",
"124 -4 OFFCURVE",
"58 1 OFFCURVE",
"36 -3 CURVE",
"39 124 OFFCURVE",
"39 221 OFFCURVE",
"38 293 CURVE",
"38 393 OFFCURVE",
"39 492 OFFCURVE",
"38 593 CURVE",
"38 644 OFFCURVE",
"39 689 OFFCURVE",
"42 727 CURVE",
"75 728 OFFCURVE",
"116 726 OFFCURVE",
"138 725 CURVE",
"138 669 OFFCURVE",
"140 719 OFFCURVE",
"139 572 CURVE",
"149 600 OFFCURVE",
"190 633 OFFCURVE",
"251 633 CURVE SMOOTH",
"396 633 OFFCURVE",
"450 559 OFFCURVE",
"450 409 CURVE SMOOTH",
"448 288 OFFCURVE",
"421 139 OFFCURVE",
"293 134 CURVE",
"272 132 OFFCURVE",
"248 135 OFFCURVE",
"224 140 CURVE SMOOTH"
);
},
{
closed = 1;
nodes = (
"365 387 OFFCURVE",
"364 404 OFFCURVE",
"361 420 CURVE",
"355 471 OFFCURVE",
"351 541 OFFCURVE",
"230 541 CURVE SMOOTH",
"151 541 OFFCURVE",
"139 480 OFFCURVE",
"139 383 CURVE SMOOTH",
"139 307 OFFCURVE",
"161 224 OFFCURVE",
"241 224 CURVE SMOOTH",
"321 224 OFFCURVE",
"365 269 OFFCURVE",
"365 372 CURVE SMOOTH"
);
}
);
width = 478;
}
);
note = Thorn;
rightKerningGroup = Thorn;
unicode = 00DE;
},
{
glyphname = Q;
layers = (
{
hints = (
{
horizontal = 1;
place = "{-9.5, 723.5}";
type = Stem;
},
{
place = "{29.63, 438.37}";
type = Stem;
},
{
place = "{112, 274}";
type = Stem;
}
);
layerId = "0C1D5C58-AE70-45E1-B635-E72A3DDAF756";
paths = (
{
closed = 1;
nodes = (
"462 231 OFFCURVE",
"464 197 OFFCURVE",
"456 165 CURVE",
"453 139 OFFCURVE",
"447 118 OFFCURVE",
"404 64 CURVE",
"413 53 OFFCURVE",
"421 44 OFFCURVE",
"427 34 CURVE",
"429 23 OFFCURVE",
"418 14 OFFCURVE",
"398 1 CURVE SMOOTH",
"384 -8 OFFCURVE",
"381 -17 OFFCURVE",
"367 -2 CURVE",
"362 4 OFFCURVE",
"346 15 OFFCURVE",
"340 24 CURVE",
"324 5 OFFCURVE",
"272 -9 OFFCURVE",
"231 -6 CURVE SMOOTH",
"165 -1 OFFCURVE",
"129 17 OFFCURVE",
"90 54 CURVE SMOOTH",
"23 118 OFFCURVE",
"30 209 OFFCURVE",
"30 307 CURVE SMOOTH",
"30 400 OFFCURVE",
"25 522 OFFCURVE",
"52 618 CURVE",
"71 674 OFFCURVE",
"151 714 OFFCURVE",
"253 714 CURVE SMOOTH",
"346 714 OFFCURVE",
"394 709 OFFCURVE",
"439 602 CURVE",
"462 530 OFFCURVE",
"468 448 OFFCURVE",
"468 368 CURVE SMOOTH",
"468 327 OFFCURVE",
"468 304 OFFCURVE",
"465 264 CURVE SMOOTH"
);
},
{
closed = 1;
nodes = (
"289 165 OFFCURVE",
"296 174 OFFCURVE",
"306 176 CURVE",
"329 162 OFFCURVE",
"330 147 OFFCURVE",
"347 130 CURVE",
"363 160 OFFCURVE",
"382 194 OFFCURVE",
"386 263 CURVE SMOOTH",
"390 366 OFFCURVE",
"385 441 OFFCURVE",
"371 522 CURVE SMOOTH",
"357 589 OFFCURVE",
"341 617 OFFCURVE",
"255 617 CURVE SMOOTH",
"129 616 OFFCURVE",
"124 585 OFFCURVE",
"116 460 CURVE SMOOTH",
"113 426 OFFCURVE",
"112 393 OFFCURVE",
"112 355 CURVE SMOOTH",
"112 326 LINE SMOOTH",
"112 309 OFFCURVE",
"110 288 OFFCURVE",
"111 262 CURVE SMOOTH",
"114 177 OFFCURVE",
"121 73 OFFCURVE",
"254 73 CURVE SMOOTH",
"273 73 OFFCURVE",
"293 79 OFFCURVE",
"294 86 CURVE",
"284 98 OFFCURVE",
"259 126 OFFCURVE",
"258 138 CURVE",
"260 149 OFFCURVE",
"271 152 OFFCURVE",
"281 160 CURVE"
);
}
);
width = 495;
}
);
leftKerningGroup = Q;
note = Q;
rightKerningGroup = Q;
unicode = 0051;
},
{
glyphname = R;
layers = (
{
hints = (
{
horizontal = 1;
place = "{0, 21}";
target = up;
type = BottomGhost;
},
{
horizontal = 1;
place = "{309, 86.63}";
type = Stem;
},
{
horizontal = 1;
place = "{699, 18.01}";
type = Stem;
},
{
place = "{43.68, 107.32}";
type = Stem;
},
{
place = "{393, 109.57}";
type = Stem;
},
{
horizontal = 1;
place = "{614, 99}";
type = Stem;
}
);
layerId = "0C1D5C58-AE70-45E1-B635-E72A3DDAF756";
paths = (
{
closed = 1;
nodes = (
"516 3 LINE",
"386 164 OFFCURVE",
"363 185 OFFCURVE",
"253 309 CURVE",
"412 306 OFFCURVE",
"443 337 OFFCURVE",
"473 393 CURVE",
"556 532 OFFCURVE",
"454 705 OFFCURVE",
"296 713 CURVE",
"199 724 OFFCURVE",
"108 710 OFFCURVE",
"33 699 CURVE",
"43 632 OFFCURVE",
"48 3 OFFCURVE",
"40 0 CURVE",
"50 2 OFFCURVE",
"117 -7 OFFCURVE",
"158 7 CURVE",
"155 49 OFFCURVE",
"149 128 OFFCURVE",
"151 212 CURVE SMOOTH",
"151 239 OFFCURVE",
"152 261 OFFCURVE",
"153 278 CURVE",
"201 239 LINE",
"275 168 OFFCURVE",
"346 70 OFFCURVE",
"402 1 CURVE",
"436 -1 OFFCURVE",
"476 3 OFFCURVE",
"517 3 CURVE"
);
},
{
closed = 1;
nodes = (
"137 401 LINE",
"136 408 OFFCURVE",
"135 421 OFFCURVE",
"135 441 CURVE SMOOTH",
"135 463 OFFCURVE",
"140 556 OFFCURVE",
"129 614 CURVE",
"187 624 OFFCURVE",
"234 629 OFFCURVE",
"268 625 CURVE SMOOTH",
"350 617 OFFCURVE",
"406 570 OFFCURVE",
"393 480 CURVE SMOOTH",
"387 434 OFFCURVE",
"365 407 OFFCURVE",
"325 400 CURVE SMOOTH",
"283 393 OFFCURVE",
"218 395 OFFCURVE",
"138 401 CURVE"
);
}
);
width = 518;
}
);
note = R;
rightKerningGroup = R;
unicode = 0052;
},
{
glyphname = S;
layers = (
{
hints = (
{
horizontal = 1;
place = "{-5, 704.04}";
type = Stem;
},
{
place = "{12, 455.38}";
type = Stem;
}
);
layerId = "0C1D5C58-AE70-45E1-B635-E72A3DDAF756";
paths = (
{
closed = 1;
nodes = (
"462 474 LINE",
"428 468 OFFCURVE",
"391 466 OFFCURVE",
"361 474 CURVE",
"371 533 OFFCURVE",
"347 573 OFFCURVE",
"303 588 CURVE SMOOTH",
"223 616 OFFCURVE",
"118 559 OFFCURVE",
"127 477 CURVE",
"136 426 OFFCURVE",
"173 400 OFFCURVE",
"232 398 CURVE SMOOTH",
"396 393 OFFCURVE",
"467 311 OFFCURVE",
"463 212 CURVE SMOOTH",
"461 63 OFFCURVE",
"361 -9 OFFCURVE",
"248 -5 CURVE SMOOTH",
"140 -1 OFFCURVE",
"25 59 OFFCURVE",
"15 171 CURVE",
"15 172 LINE",
"13 182 OFFCURVE",
"11 194 OFFCURVE",
"12 206 CURVE",
"45 210 OFFCURVE",
"84 206 OFFCURVE",
"114 206 CURVE",
"113 155 OFFCURVE",
"144 115 OFFCURVE",
"216 97 CURVE SMOOTH",
"297 78 OFFCURVE",
"367 134 OFFCURVE",
"359 215 CURVE SMOOTH",
"348 310 OFFCURVE",
"253 301 OFFCURVE",
"167 310 CURVE",
"95 321 OFFCURVE",
"47 371 OFFCURVE",
"31 423 CURVE SMOOTH",
"18 463 OFFCURVE",
"19 504 OFFCURVE",
"31 542 CURVE SMOOTH",
"49 604 OFFCURVE",
"94 657 OFFCURVE",
"155 683 CURVE SMOOTH",
"220 710 OFFCURVE",
"313 701 OFFCURVE",
"377 672 CURVE",
"441 639 OFFCURVE",
"482 574 OFFCURVE",
"463 474 CURVE"
);
}
);
width = 485;
}
);
leftKerningGroup = S;
note = S;
rightKerningGroup = S;
unicode = 0053;
},
{
glyphname = Scaron;
layers = (
{
hints = (
{
horizontal = 1;
place = "{699.04, 209.96}";
type = Stem;
},
{
place = "{-33, 455.38}";
type = Stem;
}
);
layerId = "0C1D5C58-AE70-45E1-B635-E72A3DDAF756";
paths = (
{
closed = 1;
nodes = (
"408 908 LINE",
"405 906 OFFCURVE",
"372 915 OFFCURVE",
"328 913 CURVE",
"323 913 OFFCURVE",
"279 869 OFFCURVE",
"272 861 CURVE SMOOTH",
"262 850 OFFCURVE",
"251 838 OFFCURVE",
"245 835 CURVE",
"238 837 OFFCURVE",
"187 904 OFFCURVE",
"167 911 CURVE",
"149 913 OFFCURVE",
"149 912 OFFCURVE",
"85 909 CURVE",
"138 841 OFFCURVE",
"185 803 OFFCURVE",
"246 747 CURVE"
);
},
{
closed = 1;
nodes = (
"417 474 LINE",
"383 468 OFFCURVE",
"346 466 OFFCURVE",
"316 474 CURVE",
"326 533 OFFCURVE",
"302 573 OFFCURVE",
"258 588 CURVE SMOOTH",
"178 616 OFFCURVE",
"73 559 OFFCURVE",
"82 477 CURVE",
"91 426 OFFCURVE",
"128 400 OFFCURVE",
"187 398 CURVE SMOOTH",
"351 393 OFFCURVE",
"422 311 OFFCURVE",
"418 212 CURVE SMOOTH",
"416 63 OFFCURVE",
"316 -9 OFFCURVE",
"203 -5 CURVE SMOOTH",
"95 -1 OFFCURVE",
"-20 59 OFFCURVE",
"-30 171 CURVE",
"-30 172 LINE",
"-32 182 OFFCURVE",
"-34 194 OFFCURVE",
"-33 206 CURVE",
"0 210 OFFCURVE",
"39 206 OFFCURVE",
"69 206 CURVE",
"68 155 OFFCURVE",
"99 115 OFFCURVE",
"171 97 CURVE SMOOTH",
"252 78 OFFCURVE",
"322 134 OFFCURVE",
"314 215 CURVE SMOOTH",
"303 310 OFFCURVE",
"208 301 OFFCURVE",
"122 310 CURVE",
"50 321 OFFCURVE",
"2 371 OFFCURVE",
"-14 423 CURVE SMOOTH",
"-27 463 OFFCURVE",
"-26 504 OFFCURVE",
"-14 542 CURVE SMOOTH",
"4 604 OFFCURVE",
"49 657 OFFCURVE",
"110 683 CURVE SMOOTH",
"175 710 OFFCURVE",
"268 701 OFFCURVE",
"332 672 CURVE",
"396 639 OFFCURVE",
"437 574 OFFCURVE",
"418 474 CURVE"
);
}
);
width = 485;
}
);
leftKerningGroup = S;
note = Scaron;
rightKerningGroup = S;
unicode = 0160;
},
{
glyphname = T;
layers = (
{
hints = (
{
horizontal = 1;
place = "{-1, 706.5}";
type = Stem;
},
{
place = "{10, 422.62}";
type = Stem;
}
);
layerId = "0C1D5C58-AE70-45E1-B635-E72A3DDAF756";
paths = (
{
closed = 1;
nodes = (
"146 705 OFFCURVE",
"295 710 OFFCURVE",
"432 695 CURVE",
"434 665 OFFCURVE",
"433 625 OFFCURVE",
"428 592 CURVE",
"413 595 OFFCURVE",
"394 596 OFFCURVE",
"366 595 CURVE SMOOTH",
"350 594 OFFCURVE",
"329 593 OFFCURVE",
"302 593 CURVE SMOOTH",
"276 593 LINE",
"277 589 OFFCURVE",
"277 585 OFFCURVE",
"276 581 CURVE",
"275 575 OFFCURVE",
"275 510 OFFCURVE",
"275 446 CURVE SMOOTH",
"276 374 OFFCURVE",
"277 244 OFFCURVE",
"282 8 CURVE SMOOTH",
"282 6 LINE",
"244 0 OFFCURVE",
"206 6 OFFCURVE",
"168 -1 CURVE",
"167 3 OFFCURVE",
"168 34 OFFCURVE",
"168 95 CURVE SMOOTH",
"169 135 OFFCURVE",
"169 190 OFFCURVE",
"168 262 CURVE SMOOTH",
"167 334 OFFCURVE",
"165 441 OFFCURVE",
"161 584 CURVE",
"161 588 LINE",
"132 596 OFFCURVE",
"24 595 OFFCURVE",
"15 597 CURVE",
"10 606 OFFCURVE",
"10 654 OFFCURVE",
"10 704 CURVE"
);
}
);
width = 443;
}
);
leftKerningGroup = T;
note = T;
rightKerningGroup = T;
unicode = 0054;
},
{
glyphname = U;
layers = (
{
hints = (
{
horizontal = 1;
place = "{-15.26, 696.01}";
type = Stem;
},
{
place = "{133.43, 237.57}";
type = Stem;
}
);
layerId = "0C1D5C58-AE70-45E1-B635-E72A3DDAF756";
paths = (
{
closed = 1;
nodes = (
"402 674 OFFCURVE",
"449 681 OFFCURVE",
"469 669 CURVE",
"477 498 OFFCURVE",
"476 323 OFFCURVE",
"457 151 CURVE SMOOTH",
"446 63 OFFCURVE",
"388 -5 OFFCURVE",
"293 -14 CURVE SMOOTH",
"174 -25 OFFCURVE",
"46 24 OFFCURVE",
"40 157 CURVE SMOOTH",
"38 232 OFFCURVE",
"38 311 OFFCURVE",
"40 394 CURVE SMOOTH",
"42 489 OFFCURVE",
"42 584 OFFCURVE",
"41 679 CURVE",
"40 680 LINE",
"41 680 LINE SMOOTH",
"70 680 OFFCURVE",
"109 683 OFFCURVE",
"138 677 CURVE",
"137 658 OFFCURVE",
"137 640 OFFCURVE",
"137 623 CURVE SMOOTH",
"130 354 OFFCURVE",
"129 234 OFFCURVE",
"170 124 CURVE",
"181 107 OFFCURVE",
"196 96 OFFCURVE",
"215 90 CURVE",
"262 77 OFFCURVE",
"309 90 OFFCURVE",
"332 127 CURVE",
"387 252 OFFCURVE",
"366 483 OFFCURVE",
"371 671 CURVE"
);
}
);
width = 505;
}
);
leftKerningGroup = U;
note = U;
rightKerningGroup = U;
unicode = 0055;
},
{
glyphname = Uacute;
layers = (
{
hints = (
{
horizontal = 1;
place = "{-16, 927}";
type = Stem;
},
{
place = "{133, 238}";
type = Stem;
}
);
layerId = "0C1D5C58-AE70-45E1-B635-E72A3DDAF756";
paths = (
{
closed = 1;
nodes = (
"307 764 OFFCURVE",
"401 853 OFFCURVE",
"410 858 CURVE",
"393 876 OFFCURVE",
"376 894 OFFCURVE",
"359 911 CURVE",
"319 876 OFFCURVE",
"246 796 OFFCURVE",
"199 753 CURVE",
"213 749 OFFCURVE",
"259 745 OFFCURVE",
"299 750 CURVE"
);
},
{
closed = 1;
nodes = (
"447 676 OFFCURVE",
"460 674 OFFCURVE",
"469 669 CURVE",
"472 605 OFFCURVE",
"474 540 OFFCURVE",
"474 476 CURVE SMOOTH",
"474 368 OFFCURVE",
"470 258 OFFCURVE",
"457 151 CURVE SMOOTH",
"445 50 OFFCURVE",
"375 -16 OFFCURVE",
"261 -16 CURVE SMOOTH",
"152 -16 OFFCURVE",
"45 36 OFFCURVE",
"40 157 CURVE SMOOTH",
"38 194 OFFCURVE",
"38 233 OFFCURVE",
"38 272 CURVE SMOOTH",
"38 365 OFFCURVE",
"42 465 OFFCURVE",
"42 561 CURVE SMOOTH",
"42 600 OFFCURVE",
"41 640 OFFCURVE",
"41 679 CURVE",
"40 680 LINE",
"41 680 LINE SMOOTH",
"55 680 OFFCURVE",
"72 681 OFFCURVE",
"89 681 CURVE SMOOTH",
"106 681 OFFCURVE",
"123 680 OFFCURVE",
"138 677 CURVE",
"132 571 OFFCURVE",
"133 485 OFFCURVE",
"133 415 CURVE SMOOTH",
"133 236 OFFCURVE",
"139 85 OFFCURVE",
"250 85 CURVE SMOOTH",
"284 85 OFFCURVE",
"315 99 OFFCURVE",
"332 127 CURVE",
"366 204 OFFCURVE",
"371 322 OFFCURVE",
"371 445 CURVE SMOOTH",
"371 496 OFFCURVE",
"370 547 OFFCURVE",
"370 597 CURVE SMOOTH",
"370 622 OFFCURVE",
"370 647 OFFCURVE",
"371 671 CURVE",
"389 673 OFFCURVE",
"412 676 OFFCURVE",
"432 676 CURVE SMOOTH"
);
}
);
width = 505;
}
);
leftKerningGroup = U;
note = Uacute;
rightKerningGroup = U;
unicode = 00DA;
},
{
glyphname = Ucircumflex;
layers = (
{
hints = (
{
horizontal = 1;
place = "{675.13, 74.87}";
type = Stem;
},
{
place = "{133.43, 237.57}";
type = Stem;
},
{
horizontal = 1;
place = "{680, 74}";
type = Stem;
}
);
layerId = "0C1D5C58-AE70-45E1-B635-E72A3DDAF756";
paths = (
{
closed = 1;
nodes = (
"411 755 LINE",
"408 757 OFFCURVE",
"375 748 OFFCURVE",
"331 750 CURVE",
"327 750 OFFCURVE",
"315 761 OFFCURVE",
"297 779 CURVE SMOOTH",
"275 801 LINE",
"265 813 OFFCURVE",
"254 825 OFFCURVE",
"248 828 CURVE",
"241 825 OFFCURVE",
"191 758 OFFCURVE",
"170 752 CURVE",
"152 750 OFFCURVE",
"152 751 OFFCURVE",
"88 754 CURVE",
"142 822 OFFCURVE",
"187 859 OFFCURVE",
"249 916 CURVE"
);
},
{
closed = 1;
nodes = (
"464 671 OFFCURVE",
"467 670 OFFCURVE",
"469 669 CURVE",
"477 498 OFFCURVE",
"476 323 OFFCURVE",
"457 151 CURVE SMOOTH",
"446 63 OFFCURVE",
"388 -5 OFFCURVE",
"293 -14 CURVE SMOOTH",
"174 -25 OFFCURVE",
"46 24 OFFCURVE",
"40 157 CURVE SMOOTH",
"38 238 OFFCURVE",
"38 324 OFFCURVE",
"40 413 CURVE SMOOTH",
"41 502 OFFCURVE",
"42 591 OFFCURVE",
"41 679 CURVE",
"40 680 LINE",
"41 680 LINE SMOOTH",
"70 680 OFFCURVE",
"109 683 OFFCURVE",
"138 677 CURVE",
"137 658 OFFCURVE",
"137 640 OFFCURVE",
"137 623 CURVE SMOOTH",
"130 354 OFFCURVE",
"129 234 OFFCURVE",
"170 124 CURVE",
"181 107 OFFCURVE",
"196 96 OFFCURVE",
"215 90 CURVE SMOOTH",
"252 79 OFFCURVE",
"292 88 OFFCURVE",
"311 114 CURVE SMOOTH",
"393 226 OFFCURVE",
"366 472 OFFCURVE",
"371 671 CURVE",
"394 673 OFFCURVE",
"440 680 OFFCURVE",
"460 671 CURVE"
);
}
);
width = 505;
}
);
leftKerningGroup = U;
note = Ucircumflex;
rightKerningGroup = U;
unicode = 00DB;
},
{
glyphname = Udieresis;
layers = (
{
hints = (
{
horizontal = 1;
place = "{680, 79}";
type = Stem;
},
{
place = "{206, 92}";
type = Stem;
},
{
horizontal = 1;
place = "{675.13, 83.87}";
type = Stem;
},
{
place = "{133.43, 237.57}";
type = Stem;
}
);
layerId = "0C1D5C58-AE70-45E1-B635-E72A3DDAF756";
paths = (
{
closed = 1;
nodes = (
"204 758 LINE",
"181 758 OFFCURVE",
"158 759 OFFCURVE",
"136 759 CURVE SMOOTH",
"133 759 LINE",
"128 785 OFFCURVE",
"132 843 OFFCURVE",
"132 860 CURVE",
"150 866 OFFCURVE",
"198 867 OFFCURVE",
"212 861 CURVE",
"212 859 OFFCURVE",
"206 777 OFFCURVE",
"206 760 CURVE SMOOTH",
"206 759 LINE"
);
},
{
closed = 1;
nodes = (
"370 758 LINE",
"347 758 OFFCURVE",
"324 759 OFFCURVE",
"302 759 CURVE SMOOTH",
"299 759 LINE",
"294 785 OFFCURVE",
"298 843 OFFCURVE",
"298 860 CURVE",
"316 866 OFFCURVE",
"364 867 OFFCURVE",
"378 861 CURVE",
"378 859 OFFCURVE",
"372 777 OFFCURVE",
"372 760 CURVE SMOOTH",
"372 759 LINE"
);
},
{
closed = 1;
nodes = (
"464 671 OFFCURVE",
"467 670 OFFCURVE",
"469 669 CURVE",
"477 498 OFFCURVE",
"476 323 OFFCURVE",
"457 151 CURVE SMOOTH",
"446 63 OFFCURVE",
"388 -5 OFFCURVE",
"293 -14 CURVE SMOOTH",
"174 -25 OFFCURVE",
"46 24 OFFCURVE",
"40 157 CURVE SMOOTH",
"38 238 OFFCURVE",
"38 324 OFFCURVE",
"40 413 CURVE SMOOTH",
"41 502 OFFCURVE",
"42 591 OFFCURVE",
"41 679 CURVE",
"40 680 LINE",
"41 680 LINE SMOOTH",
"70 680 OFFCURVE",
"109 683 OFFCURVE",
"138 677 CURVE",
"137 658 OFFCURVE",
"137 640 OFFCURVE",
"137 623 CURVE SMOOTH",
"130 354 OFFCURVE",
"129 234 OFFCURVE",
"170 124 CURVE",
"181 107 OFFCURVE",
"196 96 OFFCURVE",
"215 90 CURVE SMOOTH",
"252 79 OFFCURVE",
"292 88 OFFCURVE",
"311 114 CURVE SMOOTH",
"393 226 OFFCURVE",
"366 472 OFFCURVE",
"371 671 CURVE",
"394 673 OFFCURVE",
"440 680 OFFCURVE",
"460 671 CURVE"
);
}
);
width = 505;
}
);
leftKerningGroup = U;
note = Udieresis;
rightKerningGroup = U;
unicode = 00DC;
},
{
glyphname = Ugrave;
layers = (
{
hints = (
{
horizontal = 1;
place = "{675.63, 71.18}";
type = Stem;
},
{
place = "{133.43, 237.57}";
type = Stem;
}
);
layerId = "0C1D5C58-AE70-45E1-B635-E72A3DDAF756";
paths = (
{
closed = 1;
nodes = (
"123 875 OFFCURVE",
"140 893 OFFCURVE",
"157 910 CURVE",
"197 874 OFFCURVE",
"270 795 OFFCURVE",
"317 752 CURVE",
"303 748 OFFCURVE",
"257 744 OFFCURVE",
"217 749 CURVE",
"210 760 OFFCURVE",
"115 853 OFFCURVE",
"106 857 CURVE"
);
},
{
closed = 1;
nodes = (
"402 674 OFFCURVE",
"449 681 OFFCURVE",
"469 669 CURVE",
"477 498 OFFCURVE",
"476 323 OFFCURVE",
"457 151 CURVE SMOOTH",
"446 63 OFFCURVE",
"388 -5 OFFCURVE",
"293 -14 CURVE SMOOTH",
"174 -25 OFFCURVE",
"46 24 OFFCURVE",
"40 157 CURVE SMOOTH",
"38 232 OFFCURVE",
"38 311 OFFCURVE",
"40 394 CURVE SMOOTH",
"42 489 OFFCURVE",
"42 584 OFFCURVE",
"41 679 CURVE",
"40 680 LINE",
"41 680 LINE SMOOTH",
"70 680 OFFCURVE",
"109 683 OFFCURVE",
"138 677 CURVE",
"137 658 OFFCURVE",
"137 640 OFFCURVE",
"137 623 CURVE SMOOTH",
"130 354 OFFCURVE",
"129 234 OFFCURVE",
"170 124 CURVE",
"181 107 OFFCURVE",
"196 96 OFFCURVE",
"215 90 CURVE",
"262 77 OFFCURVE",
"309 90 OFFCURVE",
"332 127 CURVE",
"387 252 OFFCURVE",
"366 483 OFFCURVE",
"371 671 CURVE"
);
}
);
width = 505;
}
);
leftKerningGroup = U;
note = Ugrave;
rightKerningGroup = U;
unicode = 00D9;
},
{
glyphname = V;
layers = (
{
hints = (
{
horizontal = 1;
place = "{-2, 695.11}";
type = Stem;
},
{
place = "{16, 429}";
type = Stem;
}
);
layerId = "0C1D5C58-AE70-45E1-B635-E72A3DDAF756";
paths = (
{
closed = 1;
nodes = (
"370 686 OFFCURVE",
"410 690 OFFCURVE",
"445 684 CURVE",
"387 419 OFFCURVE",
"334 227 OFFCURVE",
"265 1 CURVE",
"257 1 OFFCURVE",
"240 -2 OFFCURVE",
"220 -2 CURVE SMOOTH",
"199 -2 OFFCURVE",
"176 -2 OFFCURVE",
"161 4 CURVE",
"83 256 OFFCURVE",
"56 417 OFFCURVE",
"16 681 CURVE",
"16 682 LINE",
"27 695 OFFCURVE",
"97 695 OFFCURVE",
"113 691 CURVE",
"127 626 OFFCURVE",
"149 376 OFFCURVE",
"217 143 CURVE",
"265 324 OFFCURVE",
"297 498 OFFCURVE",
"346 688 CURVE",
"346 689 OFFCURVE",
"347 689 OFFCURVE",
"347 689 CURVE"
);
}
);
width = 440;
}
);
leftKerningGroup = V;
note = V;
rightKerningGroup = V;
unicode = 0056;
},
{
glyphname = W;
layers = (
{
hints = (
{
horizontal = 1;
place = "{2, 698}";
type = Stem;
},
{
place = "{122, 224}";
type = Stem;
}
);
layerId = "0C1D5C58-AE70-45E1-B635-E72A3DDAF756";
paths = (
{
closed = 1;
nodes = (
"446 696 LINE",
"426 465 OFFCURVE",
"399 237 OFFCURVE",
"380 5 CURVE",
"371 2 OFFCURVE",
"359 3 OFFCURVE",
"346 3 CURVE SMOOTH",
"298 3 LINE",
"270 58 OFFCURVE",
"260 139 OFFCURVE",
"239 219 CURVE",
"238 219 LINE",
"214 128 OFFCURVE",
"199 32 OFFCURVE",
"184 7 CURVE",
"167 4 OFFCURVE",
"154 2 OFFCURVE",
"135 2 CURVE SMOOTH",
"124 2 OFFCURVE",
"112 3 OFFCURVE",
"97 5 CURVE",
"96 5 LINE",
"64 233 OFFCURVE",
"27 464 OFFCURVE",
"23 695 CURVE",
"23 696 LINE",
"38 698 OFFCURVE",
"54 699 OFFCURVE",
"71 700 CURVE",
"89 700 OFFCURVE",
"107 699 OFFCURVE",
"122 698 CURVE",
"130 622 OFFCURVE",
"132 288 OFFCURVE",
"165 167 CURVE",
"184 235 OFFCURVE",
"187 246 OFFCURVE",
"228 435 CURVE",
"229 437 OFFCURVE",
"229 438 OFFCURVE",
"229 439 CURVE",
"249 391 OFFCURVE",
"277 270 OFFCURVE",
"298 200 CURVE",
"302 183 OFFCURVE",
"307 170 OFFCURVE",
"310 161 CURVE",
"334 417 OFFCURVE",
"340 625 OFFCURVE",
"346 694 CURVE",
"346 695 LINE",
"363 699 OFFCURVE",
"379 700 OFFCURVE",
"392 700 CURVE SMOOTH",
"405 700 OFFCURVE",
"423 699 OFFCURVE",
"445 697 CURVE"
);
}
);
width = 465;
}
);
leftKerningGroup = W;
note = W;
rightKerningGroup = W;
unicode = 0057;
},
{
glyphname = X;
layers = (
{
hints = (
{
horizontal = 1;
place = "{0, 700}";
type = Stem;
},
{
place = "{-1, 441}";
type = Stem;
}
);
layerId = "0C1D5C58-AE70-45E1-B635-E72A3DDAF756";
paths = (
{
closed = 1;
nodes = (
"440 700 LINE",
"440 699 OFFCURVE",
"439 699 OFFCURVE",
"439 698 CURVE",
"409 599 OFFCURVE",
"392 562 OFFCURVE",
"305 353 CURVE",
"362 206 OFFCURVE",
"401 88 OFFCURVE",
"424 2 CURVE",
"415 2 OFFCURVE",
"407 1 OFFCURVE",
"399 1 CURVE SMOOTH",
"389 1 OFFCURVE",
"379 0 OFFCURVE",
"367 0 CURVE SMOOTH",
"355 0 OFFCURVE",
"344 0 OFFCURVE",
"334 2 CURVE",
"284 123 OFFCURVE",
"259 232 OFFCURVE",
"225 284 CURVE",
"225 285 LINE",
"151 124 OFFCURVE",
"140 79 OFFCURVE",
"101 2 CURVE",
"94 2 OFFCURVE",
"83 1 OFFCURVE",
"70 1 CURVE",
"50 0 OFFCURVE",
"26 -1 OFFCURVE",
"7 5 CURVE",
"31 89 OFFCURVE",
"62 137 OFFCURVE",
"148 357 CURVE",
"114 450 OFFCURVE",
"60 560 OFFCURVE",
"-1 689 CURVE",
"34 690 OFFCURVE",
"59 691 OFFCURVE",
"75 691 CURVE SMOOTH",
"98 691 OFFCURVE",
"105 691 OFFCURVE",
"108 686 CURVE",
"119 647 OFFCURVE",
"175 517 OFFCURVE",
"225 434 CURVE",
"269 516 OFFCURVE",
"309 623 OFFCURVE",
"339 696 CURVE",
"339 697 LINE",
"362 699 OFFCURVE",
"391 700 OFFCURVE",
"439 700 CURVE SMOOTH"
);
}
);
width = 436;
}
);
leftKerningGroup = X;
note = X;
rightKerningGroup = X;
unicode = 0058;
},
{
glyphname = Y;
layers = (
{
hints = (
{
horizontal = 1;
place = "{-1, 697}";
type = Stem;
},
{
place = "{16, 434}";
type = Stem;
}
);
layerId = "0C1D5C58-AE70-45E1-B635-E72A3DDAF756";
paths = (
{
closed = 1;
nodes = (
"450 692 LINE",
"376 452 OFFCURVE",
"244 232 OFFCURVE",
"156 0 CURVE",
"150 1 OFFCURVE",
"141 1 OFFCURVE",
"130 0 CURVE",
"109 0 OFFCURVE",
"87 -2 OFFCURVE",
"70 -1 CURVE",
"58 -1 LINE",
"56 -1 LINE",
"101 118 OFFCURVE",
"145 228 OFFCURVE",
"182 321 CURVE",
"168 354 OFFCURVE",
"153 381 OFFCURVE",
"142 401 CURVE",
"107 486 OFFCURVE",
"40 596 OFFCURVE",
"16 692 CURVE",
"36 692 OFFCURVE",
"56 695 OFFCURVE",
"74 696 CURVE",
"85 696 OFFCURVE",
"95 695 OFFCURVE",
"105 691 CURVE",
"145 584 OFFCURVE",
"200 474 OFFCURVE",
"240 409 CURVE",
"299 532 OFFCURVE",
"337 648 OFFCURVE",
"355 690 CURVE",
"372 693 OFFCURVE",
"397 694 OFFCURVE",
"416 694 CURVE",
"426 695 OFFCURVE",
"442 694 OFFCURVE",
"450 693 CURVE"
);
}
);
width = 435;
}
);
leftKerningGroup = Y;
note = Y;
rightKerningGroup = Y;
unicode = 0059;
},
{
glyphname = Yacute;
layers = (
{
hints = (
{
horizontal = 1;
place = "{-1, 911}";
type = Stem;
},
{
place = "{16, 434}";
type = Stem;
}
);
layerId = "0C1D5C58-AE70-45E1-B635-E72A3DDAF756";
paths = (
{
closed = 1;
nodes = (
"271 763 OFFCURVE",
"366 852 OFFCURVE",
"375 857 CURVE",
"358 875 OFFCURVE",
"340 893 OFFCURVE",
"323 910 CURVE",
"283 875 OFFCURVE",
"211 795 OFFCURVE",
"164 752 CURVE",
"177 748 OFFCURVE",
"223 744 OFFCURVE",
"263 749 CURVE"
);
},
{
closed = 1;
nodes = (
"450 692 LINE",
"376 452 OFFCURVE",
"244 232 OFFCURVE",
"156 0 CURVE",
"150 1 OFFCURVE",
"141 1 OFFCURVE",
"130 0 CURVE",
"109 0 OFFCURVE",
"87 -2 OFFCURVE",
"70 -1 CURVE",
"58 -1 LINE",
"56 -1 LINE",
"101 118 OFFCURVE",
"145 228 OFFCURVE",
"182 321 CURVE",
"168 354 OFFCURVE",
"153 381 OFFCURVE",
"142 401 CURVE",
"107 486 OFFCURVE",
"40 596 OFFCURVE",
"16 692 CURVE",
"36 692 OFFCURVE",
"56 695 OFFCURVE",
"74 696 CURVE",
"85 696 OFFCURVE",
"95 695 OFFCURVE",
"105 691 CURVE",
"145 584 OFFCURVE",
"200 474 OFFCURVE",
"240 409 CURVE",
"299 532 OFFCURVE",
"337 648 OFFCURVE",
"355 690 CURVE",
"372 693 OFFCURVE",
"397 694 OFFCURVE",
"416 694 CURVE",
"426 695 OFFCURVE",
"442 694 OFFCURVE",
"450 693 CURVE"
);
}
);
width = 434;
}
);
leftKerningGroup = Y;
note = Yacute;
rightKerningGroup = Y;
unicode = 00DD;
},
{
glyphname = Ydieresis;
layers = (
{
hints = (
{
horizontal = 1;
place = "{693.38, 65.62}";
type = Stem;
},
{
place = "{176, 92}";
type = Stem;
},
{
horizontal = 1;
place = "{691, 68}";
type = Stem;
}
);
layerId = "0C1D5C58-AE70-45E1-B635-E72A3DDAF756";
paths = (
{
closed = 1;
nodes = (
"174 758 LINE",
"152 758 OFFCURVE",
"129 759 OFFCURVE",
"106 759 CURVE SMOOTH",
"103 759 LINE",
"98 785 OFFCURVE",
"102 843 OFFCURVE",
"102 860 CURVE",
"121 866 OFFCURVE",
"168 867 OFFCURVE",
"182 861 CURVE",
"182 859 OFFCURVE",
"176 777 OFFCURVE",
"176 760 CURVE SMOOTH",
"176 759 LINE"
);
},
{
closed = 1;
nodes = (
"340 758 LINE",
"318 758 OFFCURVE",
"295 759 OFFCURVE",
"272 759 CURVE SMOOTH",
"269 759 LINE",
"264 785 OFFCURVE",
"268 843 OFFCURVE",
"268 860 CURVE",
"287 866 OFFCURVE",
"334 867 OFFCURVE",
"348 861 CURVE",
"348 859 OFFCURVE",
"342 778 OFFCURVE",
"342 760 CURVE SMOOTH",
"342 759 LINE"
);
},
{
closed = 1;
nodes = (
"449 690 LINE",
"374 451 OFFCURVE",
"245 232 OFFCURVE",
"155 -1 CURVE",
"147 0 OFFCURVE",
"136 0 OFFCURVE",
"121 0 CURVE",
"98 -1 OFFCURVE",
"75 -3 OFFCURVE",
"58 -1 CURVE",
"56 -1 LINE",
"101 118 OFFCURVE",
"146 227 OFFCURVE",
"182 320 CURVE",
"167 353 OFFCURVE",
"152 381 OFFCURVE",
"141 403 CURVE",
"105 486 OFFCURVE",
"39 597 OFFCURVE",
"16 690 CURVE",
"50 690 OFFCURVE",
"90 699 OFFCURVE",
"114 689 CURVE",
"155 581 OFFCURVE",
"200 496 OFFCURVE",
"241 430 CURVE",
"300 553 OFFCURVE",
"337 646 OFFCURVE",
"355 688 CURVE",
"364 689 OFFCURVE",
"377 691 OFFCURVE",
"387 691 CURVE",
"408 693 OFFCURVE",
"437 693 OFFCURVE",
"449 691 CURVE"
);
}
);
width = 434;
}
);
leftKerningGroup = Y;
note = Ydieresis;
rightKerningGroup = Y;
unicode = 0178;
},
{
glyphname = Z;
layers = (
{
hints = (
{
horizontal = 1;
place = "{-2, 699.25}";
type = Stem;
},
{
place = "{13, 439.7}";
type = Stem;
}
);
layerId = "0C1D5C58-AE70-45E1-B635-E72A3DDAF756";
paths = (
{
closed = 1;
nodes = (
"452 592 LINE",
"349 411 OFFCURVE",
"241 249 OFFCURVE",
"143 98 CURVE",
"275 104 OFFCURVE",
"253 105 OFFCURVE",
"445 106 CURVE",
"445 95 LINE",
"448 66 OFFCURVE",
"445 30 OFFCURVE",
"443 0 CURVE",
"443 -2 LINE",
"316 5 OFFCURVE",
"177 7 OFFCURVE",
"34 -1 CURVE",
"27 28 OFFCURVE",
"33 65 OFFCURVE",
"30 103 CURVE",
"122 264 OFFCURVE",
"265 484 OFFCURVE",
"336 593 CURVE",
"316 596 OFFCURVE",
"163 599 OFFCURVE",
"123 600 CURVE SMOOTH",
"82 602 OFFCURVE",
"43 601 OFFCURVE",
"21 601 CURVE",
"13 616 OFFCURVE",
"21 652 OFFCURVE",
"14 676 CURVE",
"14 677 LINE SMOOTH",
"14 680 OFFCURVE",
"13 685 OFFCURVE",
"13 690 CURVE",
"150 703 OFFCURVE",
"298 695 OFFCURVE",
"451 694 CURVE",
"455 661 OFFCURVE",
"451 628 OFFCURVE",
"452 599 CURVE SMOOTH"
);
}
);
width = 474;
}
);
leftKerningGroup = Z;
note = Z;
rightKerningGroup = Z;
unicode = 005A;
},
{
glyphname = Zcaron;
layers = (
{
hints = (
{
horizontal = 1;
place = "{697.25, 211.75}";
type = Stem;
},
{
place = "{-2, 439.7}";
type = Stem;
}
);
layerId = "0C1D5C58-AE70-45E1-B635-E72A3DDAF756";
paths = (
{
closed = 1;
nodes = (
"406 908 LINE",
"403 906 OFFCURVE",
"370 915 OFFCURVE",
"326 913 CURVE",
"321 913 OFFCURVE",
"277 869 OFFCURVE",
"270 861 CURVE SMOOTH",
"260 850 OFFCURVE",
"249 838 OFFCURVE",
"243 835 CURVE",
"236 837 OFFCURVE",
"185 904 OFFCURVE",
"165 911 CURVE",
"147 913 OFFCURVE",
"147 912 OFFCURVE",
"83 909 CURVE",
"136 841 OFFCURVE",
"183 803 OFFCURVE",
"244 747 CURVE"
);
},
{
closed = 1;
nodes = (
"437 592 LINE",
"334 411 OFFCURVE",
"227 249 OFFCURVE",
"128 98 CURVE",
"261 103 OFFCURVE",
"238 105 OFFCURVE",
"430 106 CURVE",
"430 95 LINE",
"433 66 OFFCURVE",
"430 30 OFFCURVE",
"428 0 CURVE",
"428 -2 LINE",
"301 5 OFFCURVE",
"162 7 OFFCURVE",
"19 -1 CURVE",
"12 28 OFFCURVE",
"18 65 OFFCURVE",
"15 103 CURVE",
"107 264 OFFCURVE",
"250 484 OFFCURVE",
"321 593 CURVE",
"300 596 OFFCURVE",
"148 599 OFFCURVE",
"108 600 CURVE SMOOTH",
"67 602 OFFCURVE",
"28 601 OFFCURVE",
"6 601 CURVE",
"-2 616 OFFCURVE",
"6 652 OFFCURVE",
"-1 676 CURVE",
"-1 680 OFFCURVE",
"-2 685 OFFCURVE",
"-2 690 CURVE",
"135 703 OFFCURVE",
"283 695 OFFCURVE",
"436 694 CURVE",
"440 661 OFFCURVE",
"436 628 OFFCURVE",
"437 599 CURVE SMOOTH"
);
}
);
width = 474;
}
);
leftKerningGroup = Z;
note = Zcaron;
rightKerningGroup = Z;
unicode = 017D;
},
{
glyphname = a;
layers = (
{
hints = (
{
horizontal = 1;
place = "{-2, 504}";
type = Stem;
},
{
place = "{103, 238}";
type = Stem;
}
);
layerId = "0C1D5C58-AE70-45E1-B635-E72A3DDAF756";
paths = (
{
closed = 1;
nodes = (
"383 503 OFFCURVE",
"396 501 OFFCURVE",
"439 498 CURVE",
"440 490 OFFCURVE",
"441 482 OFFCURVE",
"441 474 CURVE SMOOTH",
"441 464 LINE SMOOTH",
"437 320 OFFCURVE",
"448 183 OFFCURVE",
"439 40 CURVE",
"439 23 OFFCURVE",
"442 2 OFFCURVE",
"426 -1 CURVE",
"409 -1 LINE SMOOTH",
"399 -1 OFFCURVE",
"387 0 OFFCURVE",
"377 0 CURVE SMOOTH",
"367 0 OFFCURVE",
"359 -2 OFFCURVE",
"352 -2 CURVE",
"345 0 OFFCURVE",
"342 9 OFFCURVE",
"342 20 CURVE",
"341 33 OFFCURVE",
"344 44 OFFCURVE",
"344 55 CURVE",
"307 5 OFFCURVE",
"210 -2 OFFCURVE",
"166 -2 CURVE SMOOTH",
"63 -2 OFFCURVE",
"19 159 OFFCURVE",
"19 266 CURVE SMOOTH",
"19 399 OFFCURVE",
"93 494 OFFCURVE",
"187 497 CURVE SMOOTH",
"254 500 OFFCURVE",
"313 497 OFFCURVE",
"337 449 CURVE",
"338 468 OFFCURVE",
"341 484 OFFCURVE",
"341 500 CURVE SMOOTH",
"341 501 OFFCURVE",
"347 502 OFFCURVE",
"354 502 CURVE SMOOTH"
);
},
{
closed = 1;
nodes = (
"168 414 OFFCURVE",
"121 366 OFFCURVE",
"111 320 CURVE",
"104 295 OFFCURVE",
"103 267 OFFCURVE",
"103 242 CURVE SMOOTH",
"106 148 OFFCURVE",
"140 83 OFFCURVE",
"233 88 CURVE",
"338 87 OFFCURVE",
"341 145 OFFCURVE",
"341 256 CURVE SMOOTH",
"341 391 OFFCURVE",
"332 406 OFFCURVE",
"242 412 CURVE"
);
}
);
width = 476;
}
);
leftKerningGroup = a;
note = a;
rightKerningGroup = a;
unicode = 0061;
},
{
glyphname = aacute;
layers = (
{
hints = (
{
horizontal = 1;
place = "{-2, 747}";
type = Stem;
},
{
place = "{103, 238}";
type = Stem;
}
);
layerId = "0C1D5C58-AE70-45E1-B635-E72A3DDAF756";
paths = (
{
closed = 1;
nodes = (
"280 594 OFFCURVE",
"377 687 OFFCURVE",
"386 692 CURVE",
"369 710 OFFCURVE",
"351 728 OFFCURVE",
"334 745 CURVE",
"294 709 OFFCURVE",
"222 630 OFFCURVE",
"175 587 CURVE",
"188 583 OFFCURVE",
"234 579 OFFCURVE",
"274 584 CURVE"
);
},
{
closed = 1;
nodes = (
"383 503 OFFCURVE",
"396 501 OFFCURVE",
"439 498 CURVE",
"440 490 OFFCURVE",
"441 482 OFFCURVE",
"441 474 CURVE SMOOTH",
"441 464 LINE SMOOTH",
"437 320 OFFCURVE",
"448 183 OFFCURVE",
"439 40 CURVE",
"439 23 OFFCURVE",
"442 2 OFFCURVE",
"426 -1 CURVE",
"409 -1 LINE SMOOTH",
"399 -1 OFFCURVE",
"387 0 OFFCURVE",
"377 0 CURVE SMOOTH",
"367 0 OFFCURVE",
"359 -2 OFFCURVE",
"352 -2 CURVE",
"345 0 OFFCURVE",
"342 9 OFFCURVE",
"342 20 CURVE",
"341 33 OFFCURVE",
"344 44 OFFCURVE",
"344 55 CURVE",
"307 5 OFFCURVE",
"210 -2 OFFCURVE",
"166 -2 CURVE SMOOTH",
"63 -2 OFFCURVE",
"19 159 OFFCURVE",
"19 266 CURVE SMOOTH",
"19 399 OFFCURVE",
"93 494 OFFCURVE",
"187 497 CURVE SMOOTH",
"254 500 OFFCURVE",
"313 497 OFFCURVE",
"337 449 CURVE",
"338 468 OFFCURVE",
"341 484 OFFCURVE",
"341 500 CURVE SMOOTH",
"341 501 OFFCURVE",
"347 502 OFFCURVE",
"354 502 CURVE SMOOTH"
);
},
{
closed = 1;
nodes = (
"168 414 OFFCURVE",
"121 366 OFFCURVE",
"111 320 CURVE",
"104 295 OFFCURVE",
"103 267 OFFCURVE",
"103 242 CURVE SMOOTH",
"106 148 OFFCURVE",
"140 83 OFFCURVE",
"233 88 CURVE",
"338 87 OFFCURVE",
"341 145 OFFCURVE",
"341 256 CURVE SMOOTH",
"341 391 OFFCURVE",
"332 406 OFFCURVE",
"242 412 CURVE"
);
}
);
width = 476;
}
);
leftKerningGroup = a;
note = aacute;
rightKerningGroup = a;
unicode = 00E1;
},
{
glyphname = acircumflex;
layers = (
{
hints = (
{
horizontal = 1;
place = "{497, 97}";
type = Stem;
},
{
place = "{103, 238}";
type = Stem;
},
{
horizontal = 1;
place = "{502, 88}";
type = Stem;
}
);
layerId = "0C1D5C58-AE70-45E1-B635-E72A3DDAF756";
paths = (
{
closed = 1;
nodes = (
"414 595 LINE",
"411 597 OFFCURVE",
"379 588 OFFCURVE",
"334 590 CURVE",
"330 590 OFFCURVE",
"319 601 OFFCURVE",
"301 619 CURVE SMOOTH",
"278 641 LINE",
"269 653 OFFCURVE",
"257 665 OFFCURVE",
"252 668 CURVE",
"245 665 OFFCURVE",
"194 598 OFFCURVE",
"174 592 CURVE",
"156 590 OFFCURVE",
"156 591 OFFCURVE",
"91 594 CURVE",
"145 662 OFFCURVE",
"191 699 OFFCURVE",
"252 756 CURVE"
);
},
{
closed = 1;
nodes = (
"383 503 OFFCURVE",
"396 501 OFFCURVE",
"439 498 CURVE",
"440 490 OFFCURVE",
"441 482 OFFCURVE",
"441 474 CURVE SMOOTH",
"441 464 LINE SMOOTH",
"437 320 OFFCURVE",
"448 183 OFFCURVE",
"439 40 CURVE",
"439 23 OFFCURVE",
"442 2 OFFCURVE",
"426 -1 CURVE",
"409 -1 LINE SMOOTH",
"399 -1 OFFCURVE",
"387 0 OFFCURVE",
"377 0 CURVE SMOOTH",
"367 0 OFFCURVE",
"359 -2 OFFCURVE",
"352 -2 CURVE",
"345 0 OFFCURVE",
"342 9 OFFCURVE",
"342 20 CURVE",
"341 33 OFFCURVE",
"344 44 OFFCURVE",
"344 55 CURVE",
"307 5 OFFCURVE",
"210 -2 OFFCURVE",
"166 -2 CURVE SMOOTH",
"63 -2 OFFCURVE",
"19 159 OFFCURVE",
"19 266 CURVE SMOOTH",
"19 399 OFFCURVE",
"93 494 OFFCURVE",
"187 497 CURVE SMOOTH",
"254 500 OFFCURVE",
"313 497 OFFCURVE",
"337 449 CURVE",
"338 468 OFFCURVE",
"341 484 OFFCURVE",
"341 500 CURVE SMOOTH",
"341 501 OFFCURVE",
"347 502 OFFCURVE",
"354 502 CURVE SMOOTH"
);
},
{
closed = 1;
nodes = (
"168 414 OFFCURVE",
"121 366 OFFCURVE",
"111 320 CURVE",
"104 295 OFFCURVE",
"103 267 OFFCURVE",
"103 242 CURVE SMOOTH",
"106 148 OFFCURVE",
"140 83 OFFCURVE",
"233 88 CURVE",
"338 87 OFFCURVE",
"341 145 OFFCURVE",
"341 256 CURVE SMOOTH",
"341 391 OFFCURVE",
"332 406 OFFCURVE",
"242 412 CURVE"
);
}
);
width = 476;
}
);
leftKerningGroup = a;
note = acircumflex;
rightKerningGroup = a;
unicode = 00E2;
},
{
glyphname = adieresis;
layers = (
{
hints = (
{
horizontal = 1;
place = "{497, 131}";
type = Stem;
},
{
place = "{238, 78}";
type = Stem;
},
{
place = "{103, 238}";
type = Stem;
}
);
layerId = "0C1D5C58-AE70-45E1-B635-E72A3DDAF756";
paths = (
{
closed = 1;
nodes = (
"173 750 OFFCURVE",
"211 750 OFFCURVE",
"238 747 CURVE",
"238 740 OFFCURVE",
"236 678 OFFCURVE",
"237 650 CURVE",
"237 632 LINE",
"235 629 OFFCURVE",
"231 628 OFFCURVE",
"226 628 CURVE",
"205 625 OFFCURVE",
"174 630 OFFCURVE",
"148 629 CURVE",
"147 629 LINE",
"145 661 OFFCURVE",
"144 709 OFFCURVE",
"145 748 CURVE"
);
},
{
closed = 1;
nodes = (
"344 750 OFFCURVE",
"382 750 OFFCURVE",
"409 747 CURVE",
"409 740 OFFCURVE",
"407 678 OFFCURVE",
"408 650 CURVE",
"408 632 LINE",
"406 629 OFFCURVE",
"402 628 OFFCURVE",
"397 628 CURVE",
"376 625 OFFCURVE",
"345 630 OFFCURVE",
"319 629 CURVE",
"318 629 LINE",
"316 661 OFFCURVE",
"315 709 OFFCURVE",
"316 748 CURVE"
);
},
{
closed = 1;
nodes = (
"383 503 OFFCURVE",
"396 501 OFFCURVE",
"439 498 CURVE",
"440 490 OFFCURVE",
"441 482 OFFCURVE",
"441 474 CURVE SMOOTH",
"441 464 LINE SMOOTH",
"437 320 OFFCURVE",
"448 183 OFFCURVE",
"439 40 CURVE",
"439 23 OFFCURVE",
"442 2 OFFCURVE",
"426 -1 CURVE",
"409 -1 LINE SMOOTH",
"399 -1 OFFCURVE",
"387 0 OFFCURVE",
"377 0 CURVE SMOOTH",
"367 0 OFFCURVE",
"359 -2 OFFCURVE",
"352 -2 CURVE",
"345 0 OFFCURVE",
"342 9 OFFCURVE",
"342 20 CURVE",
"341 33 OFFCURVE",
"344 44 OFFCURVE",
"344 55 CURVE",
"307 5 OFFCURVE",
"210 -2 OFFCURVE",
"166 -2 CURVE SMOOTH",
"63 -2 OFFCURVE",
"19 159 OFFCURVE",
"19 266 CURVE SMOOTH",
"19 399 OFFCURVE",
"93 494 OFFCURVE",
"187 497 CURVE SMOOTH",
"254 500 OFFCURVE",
"313 497 OFFCURVE",
"337 449 CURVE",
"338 468 OFFCURVE",
"341 484 OFFCURVE",
"341 500 CURVE SMOOTH",
"341 501 OFFCURVE",
"347 502 OFFCURVE",
"354 502 CURVE SMOOTH"
);
},
{
closed = 1;
nodes = (
"168 414 OFFCURVE",
"121 366 OFFCURVE",
"111 320 CURVE",
"104 295 OFFCURVE",
"103 267 OFFCURVE",
"103 242 CURVE SMOOTH",
"106 148 OFFCURVE",
"140 83 OFFCURVE",
"233 88 CURVE",
"338 87 OFFCURVE",
"341 145 OFFCURVE",
"341 256 CURVE SMOOTH",
"341 391 OFFCURVE",
"332 406 OFFCURVE",
"242 412 CURVE"
);
}
);
width = 476;
}
);
leftKerningGroup = a;
note = adieresis;
rightKerningGroup = a;
unicode = 00E4;
},
{
glyphname = agrave;
layers = (
{
hints = (
{
horizontal = 1;
place = "{497, 89}";
type = Stem;
},
{
place = "{103, 238}";
type = Stem;
}
);
layerId = "0C1D5C58-AE70-45E1-B635-E72A3DDAF756";
paths = (
{
closed = 1;
nodes = (
"141 712 OFFCURVE",
"159 730 OFFCURVE",
"176 748 CURVE",
"215 712 OFFCURVE",
"289 633 OFFCURVE",
"335 589 CURVE",
"321 585 OFFCURVE",
"275 582 OFFCURVE",
"236 586 CURVE",
"229 597 OFFCURVE",
"133 690 OFFCURVE",
"124 695 CURVE"
);
},
{
closed = 1;
nodes = (
"383 503 OFFCURVE",
"396 501 OFFCURVE",
"439 498 CURVE",
"440 490 OFFCURVE",
"441 482 OFFCURVE",
"441 474 CURVE SMOOTH",
"441 464 LINE SMOOTH",
"437 320 OFFCURVE",
"448 183 OFFCURVE",
"439 40 CURVE",
"439 23 OFFCURVE",
"442 2 OFFCURVE",
"426 -1 CURVE",
"409 -1 LINE SMOOTH",
"399 -1 OFFCURVE",
"387 0 OFFCURVE",
"377 0 CURVE SMOOTH",
"367 0 OFFCURVE",
"359 -2 OFFCURVE",
"352 -2 CURVE",
"345 0 OFFCURVE",
"342 9 OFFCURVE",
"342 20 CURVE",
"341 33 OFFCURVE",
"344 44 OFFCURVE",
"344 55 CURVE",
"307 5 OFFCURVE",
"210 -2 OFFCURVE",
"166 -2 CURVE SMOOTH",
"63 -2 OFFCURVE",
"19 159 OFFCURVE",
"19 266 CURVE SMOOTH",
"19 399 OFFCURVE",
"93 494 OFFCURVE",
"187 497 CURVE SMOOTH",
"254 500 OFFCURVE",
"313 497 OFFCURVE",
"337 449 CURVE",
"338 468 OFFCURVE",
"341 484 OFFCURVE",
"341 500 CURVE SMOOTH",
"341 501 OFFCURVE",
"347 502 OFFCURVE",
"354 502 CURVE SMOOTH"
);
},
{
closed = 1;
nodes = (
"168 414 OFFCURVE",
"121 366 OFFCURVE",
"111 320 CURVE",
"104 295 OFFCURVE",
"103 267 OFFCURVE",
"103 242 CURVE SMOOTH",
"106 148 OFFCURVE",
"140 83 OFFCURVE",
"233 88 CURVE",
"338 87 OFFCURVE",
"341 145 OFFCURVE",
"341 256 CURVE SMOOTH",
"341 391 OFFCURVE",
"332 406 OFFCURVE",
"242 412 CURVE"
);
}
);
width = 476;
}
);
leftKerningGroup = a;
note = agrave;
rightKerningGroup = a;
unicode = 00E0;
},
{
glyphname = aring;
layers = (
{
hints = (
{
horizontal = 1;
place = "{497, 72}";
type = Stem;
},
{
horizontal = 1;
place = "{612, 96}";
type = Stem;
},
{
place = "{204, 93}";
type = Stem;
},
{
place = "{103, 238}";
type = Stem;
}
);
layerId = "0C1D5C58-AE70-45E1-B635-E72A3DDAF756";
paths = (
{
closed = 1;
nodes = (
"345 682 OFFCURVE",
"343 634 OFFCURVE",
"327 594 CURVE",
"307 563 OFFCURVE",
"245 567 OFFCURVE",
"211 569 CURVE SMOOTH",
"150 572 OFFCURVE",
"152 664 OFFCURVE",
"165 712 CURVE SMOOTH",
"174 746 OFFCURVE",
"216 755 OFFCURVE",
"254 752 CURVE SMOOTH",
"282 750 OFFCURVE",
"318 744 OFFCURVE",
"333 723 CURVE"
);
},
{
closed = 1;
nodes = (
"240 708 OFFCURVE",
"230 706 OFFCURVE",
"221 702 CURVE",
"207 693 OFFCURVE",
"204 678 OFFCURVE",
"204 665 CURVE SMOOTH",
"204 642 OFFCURVE",
"204 612 OFFCURVE",
"239 612 CURVE SMOOTH",
"249 612 LINE",
"264 613 OFFCURVE",
"285 612 OFFCURVE",
"292 627 CURVE",
"295 640 OFFCURVE",
"298 657 OFFCURVE",
"297 672 CURVE SMOOTH",
"294 703 OFFCURVE",
"271 708 OFFCURVE",
"251 708 CURVE SMOOTH"
);
},
{
closed = 1;
nodes = (
"383 503 OFFCURVE",
"396 501 OFFCURVE",
"439 498 CURVE",
"440 490 OFFCURVE",
"441 482 OFFCURVE",
"441 474 CURVE SMOOTH",
"441 464 LINE SMOOTH",
"437 320 OFFCURVE",
"448 183 OFFCURVE",
"439 40 CURVE",
"439 23 OFFCURVE",
"442 2 OFFCURVE",
"426 -1 CURVE",
"409 -1 LINE SMOOTH",
"399 -1 OFFCURVE",
"387 0 OFFCURVE",
"377 0 CURVE SMOOTH",
"367 0 OFFCURVE",
"359 -2 OFFCURVE",
"352 -2 CURVE",
"345 0 OFFCURVE",
"342 9 OFFCURVE",
"342 20 CURVE",
"341 33 OFFCURVE",
"344 44 OFFCURVE",
"344 55 CURVE",
"307 5 OFFCURVE",
"210 -2 OFFCURVE",
"166 -2 CURVE SMOOTH",
"63 -2 OFFCURVE",
"19 159 OFFCURVE",
"19 266 CURVE SMOOTH",
"19 399 OFFCURVE",
"93 494 OFFCURVE",
"187 497 CURVE SMOOTH",
"254 500 OFFCURVE",
"313 497 OFFCURVE",
"337 449 CURVE",
"338 468 OFFCURVE",
"341 484 OFFCURVE",
"341 500 CURVE SMOOTH",
"341 501 OFFCURVE",
"347 502 OFFCURVE",
"354 502 CURVE SMOOTH"
);
},
{
closed = 1;
nodes = (
"168 414 OFFCURVE",
"121 366 OFFCURVE",
"111 320 CURVE",
"104 295 OFFCURVE",
"103 267 OFFCURVE",
"103 242 CURVE SMOOTH",
"106 148 OFFCURVE",
"140 83 OFFCURVE",
"233 88 CURVE",
"338 87 OFFCURVE",
"341 145 OFFCURVE",
"341 256 CURVE SMOOTH",
"341 391 OFFCURVE",
"332 406 OFFCURVE",
"242 412 CURVE"
);
}
);
width = 476;
}
);
leftKerningGroup = a;
note = aring;
rightKerningGroup = a;
unicode = 00E5;
},
{
glyphname = atilde;
layers = (
{
hints = (
{
horizontal = 1;
place = "{497, 88}";
type = Stem;
},
{
place = "{103, 238}";
type = Stem;
}
);
layerId = "0C1D5C58-AE70-45E1-B635-E72A3DDAF756";
paths = (
{
closed = 1;
nodes = (
"126 590 LINE",
"116 591 OFFCURVE",
"98 592 OFFCURVE",
"82 592 CURVE SMOOTH",
"71 592 OFFCURVE",
"59 592 OFFCURVE",
"46 591 CURVE",
"54 620 OFFCURVE",
"80 693 OFFCURVE",
"106 720 CURVE SMOOTH",
"141 756 OFFCURVE",
"198 768 OFFCURVE",
"241 739 CURVE SMOOTH",
"269 719 OFFCURVE",
"287 637 OFFCURVE",
"336 651 CURVE SMOOTH",
"378 664 OFFCURVE",
"389 711 OFFCURVE",
"388 745 CURVE",
"407 747 OFFCURVE",
"427 747 OFFCURVE",
"447 747 CURVE",
"448 746 LINE",
"448 742 OFFCURVE",
"449 739 OFFCURVE",
"449 734 CURVE",
"454 672 OFFCURVE",
"420 596 OFFCURVE",
"354 585 CURVE SMOOTH",
"311 579 OFFCURVE",
"268 586 OFFCURVE",
"248 649 CURVE",
"234 682 OFFCURVE",
"220 691 OFFCURVE",
"195 689 CURVE",
"155 683 OFFCURVE",
"125 647 OFFCURVE",
"126 591 CURVE SMOOTH"
);
},
{
closed = 1;
nodes = (
"383 503 OFFCURVE",
"396 501 OFFCURVE",
"439 498 CURVE",
"440 490 OFFCURVE",
"441 482 OFFCURVE",
"441 474 CURVE SMOOTH",
"441 464 LINE SMOOTH",
"437 320 OFFCURVE",
"448 183 OFFCURVE",
"439 40 CURVE",
"439 23 OFFCURVE",
"442 2 OFFCURVE",
"426 -1 CURVE",
"409 -1 LINE SMOOTH",
"399 -1 OFFCURVE",
"387 0 OFFCURVE",
"377 0 CURVE SMOOTH",
"367 0 OFFCURVE",
"359 -2 OFFCURVE",
"352 -2 CURVE",
"345 0 OFFCURVE",
"342 9 OFFCURVE",
"342 20 CURVE",
"341 33 OFFCURVE",
"344 44 OFFCURVE",
"344 55 CURVE",
"307 5 OFFCURVE",
"210 -2 OFFCURVE",
"166 -2 CURVE SMOOTH",
"63 -2 OFFCURVE",
"19 159 OFFCURVE",
"19 266 CURVE SMOOTH",
"19 399 OFFCURVE",
"93 494 OFFCURVE",
"187 497 CURVE SMOOTH",
"254 500 OFFCURVE",
"313 497 OFFCURVE",
"337 449 CURVE",
"338 468 OFFCURVE",
"341 484 OFFCURVE",
"341 500 CURVE SMOOTH",
"341 501 OFFCURVE",
"347 502 OFFCURVE",
"354 502 CURVE SMOOTH"
);
},
{
closed = 1;
nodes = (
"168 414 OFFCURVE",
"121 366 OFFCURVE",
"111 320 CURVE",
"104 295 OFFCURVE",
"103 267 OFFCURVE",
"103 242 CURVE SMOOTH",
"106 148 OFFCURVE",
"140 83 OFFCURVE",
"233 88 CURVE",
"338 87 OFFCURVE",
"341 145 OFFCURVE",
"341 256 CURVE SMOOTH",
"341 391 OFFCURVE",
"332 406 OFFCURVE",
"242 412 CURVE"
);
}
);
width = 476;
}
);
leftKerningGroup = a;
note = atilde;
rightKerningGroup = a;
unicode = 00E3;
},
{
glyphname = ae;
layers = (
{
hints = (
{
horizontal = 1;
place = "{190, 55}";
type = Stem;
},
{
horizontal = 1;
place = "{290, 44.75}";
type = Stem;
},
{
place = "{9.36, 685.31}";
type = Stem;
},
{
horizontal = 1;
place = "{60.42, 173.83}";
type = Stem;
},
{
horizontal = 1;
place = "{302, 131}";
type = Stem;
}
);
layerId = "0C1D5C58-AE70-45E1-B635-E72A3DDAF756";
paths = (
{
closed = 1;
nodes = (
"397 233 LINE SMOOTH",
"397 209 OFFCURVE",
"378 88 OFFCURVE",
"492 78 CURVE SMOOTH",
"548 73 OFFCURVE",
"602 79 OFFCURVE",
"601 191 CURVE",
"612 192 OFFCURVE",
"671 195 OFFCURVE",
"691 190 CURVE",
"686 125 OFFCURVE",
"684 61 OFFCURVE",
"668 42 CURVE",
"625 -17 OFFCURVE",
"523 -3 OFFCURVE",
"448 -1 CURVE",
"409 6 OFFCURVE",
"381 24 OFFCURVE",
"349 60 CURVE",
"349 59 LINE",
"334 47 OFFCURVE",
"318 33 OFFCURVE",
"297 21 CURVE SMOOTH",
"141 -68 OFFCURVE",
"-66 58 OFFCURVE",
"37 233 CURVE",
"60 269 OFFCURVE",
"109 288 OFFCURVE",
"171 290 CURVE SMOOTH",
"224 292 OFFCURVE",
"268 278 OFFCURVE",
"298 261 CURVE",
"296 283 OFFCURVE",
"297 297 OFFCURVE",
"297 308 CURVE SMOOTH",
"297 312 OFFCURVE",
"297 325 OFFCURVE",
"298 345 CURVE SMOOTH",
"300 393 OFFCURVE",
"277 426 OFFCURVE",
"225 429 CURVE SMOOTH",
"184 431 OFFCURVE",
"116 411 OFFCURVE",
"122 340 CURVE",
"98 336 OFFCURVE",
"51 330 OFFCURVE",
"32 340 CURVE",
"13 486 OFFCURVE",
"243 517 OFFCURVE",
"332 463 CURVE",
"342 458 OFFCURVE",
"351 451 OFFCURVE",
"357 442 CURVE",
"401 492 OFFCURVE",
"492 508 OFFCURVE",
"567 489 CURVE",
"684 469 OFFCURVE",
"701 361 OFFCURVE",
"693 256 CURVE",
"668 248 OFFCURVE",
"573 243 OFFCURVE",
"477 245 CURVE SMOOTH",
"424 246 OFFCURVE",
"411 247 OFFCURVE",
"397 250 CURVE"
);
},
{
closed = 1;
nodes = (
"626 321 LINE",
"625 357 OFFCURVE",
"609 400 OFFCURVE",
"573 423 CURVE",
"553 430 OFFCURVE",
"543 433 OFFCURVE",
"522 433 CURVE SMOOTH",
"433 433 OFFCURVE",
"410 389 OFFCURVE",
"402 335 CURVE SMOOTH",
"396 295 OFFCURVE",
"414 299 OFFCURVE",
"538 302 CURVE",
"613 301 OFFCURVE",
"623 300 OFFCURVE",
"626 307 CURVE"
);
},
{
closed = 1;
nodes = (
"86 99 OFFCURVE",
"106 72 OFFCURVE",
"155 64 CURVE SMOOTH",
"242 49 OFFCURVE",
"280 79 OFFCURVE",
"292 116 CURVE SMOOTH",
"304 154 OFFCURVE",
"288 199 OFFCURVE",
"266 212 CURVE",
"213 240 OFFCURVE",
"158 245 OFFCURVE",
"109 207 CURVE",
"92 191 OFFCURVE",
"81 154 OFFCURVE",
"83 127 CURVE SMOOTH"
);
}
);
width = 703;
}
);
leftKerningGroup = ae;
note = ae;
rightKerningGroup = ae;
unicode = 00E6;
},
{
glyphname = b;
layers = (
{
hints = (
{
horizontal = 1;
place = "{-0.25, 706.92}";
type = Stem;
},
{
place = "{33.82, 409.18}";
type = Stem;
},
{
place = "{130, 232}";
type = Stem;
}
);
layerId = "0C1D5C58-AE70-45E1-B635-E72A3DDAF756";
paths = (
{
closed = 1;
nodes = (
"130 695 LINE",
"131 667 OFFCURVE",
"132 670 OFFCURVE",
"132 645 CURVE",
"133 621 OFFCURVE",
"133 608 OFFCURVE",
"134 594 CURVE",
"134 574 OFFCURVE",
"134 539 OFFCURVE",
"133 450 CURVE",
"135 462 OFFCURVE",
"171 500 OFFCURVE",
"227 502 CURVE SMOOTH",
"284 504 OFFCURVE",
"326 501 OFFCURVE",
"362 488 CURVE SMOOTH",
"421 467 OFFCURVE",
"443 378 OFFCURVE",
"443 285 CURVE",
"438 150 OFFCURVE",
"428 14 OFFCURVE",
"275 3 CURVE",
"253 0 OFFCURVE",
"229 0 OFFCURVE",
"206 8 CURVE SMOOTH",
"194 12 OFFCURVE",
"184 19 OFFCURVE",
"174 28 CURVE",
"154 39 OFFCURVE",
"139 52 OFFCURVE",
"130 74 CURVE",
"134 40 OFFCURVE",
"131 20 OFFCURVE",
"131 7 CURVE SMOOTH",
"131 4 OFFCURVE",
"131 1 OFFCURVE",
"130 0 CURVE",
"105 -2 OFFCURVE",
"69 1 OFFCURVE",
"35 1 CURVE",
"30 193 OFFCURVE",
"41 416 OFFCURVE",
"41 638 CURVE SMOOTH",
"41 704 LINE",
"73 710 OFFCURVE",
"130 705 OFFCURVE",
"130 703 CURVE SMOOTH"
);
},
{
closed = 1;
nodes = (
"362 260 OFFCURVE",
"362 277 OFFCURVE",
"358 294 CURVE",
"352 353 OFFCURVE",
"347 419 OFFCURVE",
"225 419 CURVE SMOOTH",
"145 419 OFFCURVE",
"130 358 OFFCURVE",
"130 256 CURVE SMOOTH",
"130 174 OFFCURVE",
"156 84 OFFCURVE",
"237 84 CURVE SMOOTH",
"319 84 OFFCURVE",
"362 139 OFFCURVE",
"362 244 CURVE SMOOTH"
);
}
);
width = 464;
}
);
note = b;
rightKerningGroup = b;
unicode = 0062;
},
{
glyphname = c;
layers = (
{
hints = (
{
horizontal = 1;
place = "{196, 90.23}";
type = Stem;
},
{
place = "{113, 223}";
type = Stem;
}
);
layerId = "0C1D5C58-AE70-45E1-B635-E72A3DDAF756";
paths = (
{
closed = 1;
nodes = (
"359 191 OFFCURVE",
"399 198 OFFCURVE",
"421 192 CURVE",
"416 123 OFFCURVE",
"411 53 OFFCURVE",
"393 35 CURVE",
"347 -30 OFFCURVE",
"238 -9 OFFCURVE",
"161 -9 CURVE",
"35 12 OFFCURVE",
"28 119 OFFCURVE",
"24 241 CURVE",
"24 269 OFFCURVE",
"24 297 OFFCURVE",
"23 323 CURVE",
"23 367 OFFCURVE",
"31 408 OFFCURVE",
"45 454 CURVE",
"64 495 OFFCURVE",
"132 512 OFFCURVE",
"195 512 CURVE",
"222 509 OFFCURVE",
"245 513 OFFCURVE",
"273 511 CURVE SMOOTH",
"316 507 OFFCURVE",
"356 496 OFFCURVE",
"384 469 CURVE",
"422 442 OFFCURVE",
"420 377 OFFCURVE",
"423 289 CURVE",
"397 283 OFFCURVE",
"365 287 OFFCURVE",
"340 291 CURVE",
"338 409 OFFCURVE",
"289 420 OFFCURVE",
"198 412 CURVE",
"157 410 OFFCURVE",
"126 408 OFFCURVE",
"116 342 CURVE SMOOTH",
"111 305 OFFCURVE",
"113 254 OFFCURVE",
"113 187 CURVE",
"111 160 OFFCURVE",
"118 86 OFFCURVE",
"201 78 CURVE SMOOTH",
"328 65 OFFCURVE",
"333 142 OFFCURVE",
"336 196 CURVE"
);
}
);
width = 442;
}
);
leftKerningGroup = c;
note = c;
rightKerningGroup = c;
unicode = 0063;
},
{
glyphname = ccedilla;
layers = (
{
hints = (
{
horizontal = 1;
place = "{-11, 21}";
target = up;
type = BottomGhost;
},
{
horizontal = 1;
place = "{194, 94}";
type = Stem;
},
{
place = "{96.62, 247.38}";
type = Stem;
}
);
layerId = "0C1D5C58-AE70-45E1-B635-E72A3DDAF756";
paths = (
{
closed = 1;
nodes = (
"366 187 OFFCURVE",
"406 196 OFFCURVE",
"421 192 CURVE",
"411 83 OFFCURVE",
"414 -3 OFFCURVE",
"301 -11 CURVE SMOOTH",
"286 -12 OFFCURVE",
"274 -12 OFFCURVE",
"257 -11 CURVE",
"248 -50 OFFCURVE",
"227 -106 OFFCURVE",
"220 -144 CURVE",
"150 -144 LINE",
"150 -143 LINE",
"170 -97 OFFCURVE",
"176 -75 OFFCURVE",
"193 -11 CURVE",
"153 -9 LINE",
"119 -3 OFFCURVE",
"98 12 OFFCURVE",
"75 35 CURVE",
"39 67 OFFCURVE",
"29 118 OFFCURVE",
"26 170 CURVE SMOOTH",
"23 233 LINE",
"23 323 LINE SMOOTH",
"23 347 OFFCURVE",
"25 371 OFFCURVE",
"29 395 CURVE",
"30 410 OFFCURVE",
"41 441 OFFCURVE",
"45 454 CURVE",
"75 518 OFFCURVE",
"203 514 OFFCURVE",
"273 511 CURVE SMOOTH",
"316 508 OFFCURVE",
"349 500 OFFCURVE",
"384 469 CURVE SMOOTH",
"413 444 OFFCURVE",
"420 377 OFFCURVE",
"423 289 CURVE",
"406 285 OFFCURVE",
"368 284 OFFCURVE",
"351 287 CURVE",
"353 390 OFFCURVE",
"328 416 OFFCURVE",
"283 429 CURVE SMOOTH",
"237 442 OFFCURVE",
"139 442 OFFCURVE",
"115 401 CURVE",
"108 388 OFFCURVE",
"107 365 OFFCURVE",
"102 332 CURVE SMOOTH",
"98 304 OFFCURVE",
"90 194 OFFCURVE",
"107 127 CURVE SMOOTH",
"118 83 OFFCURVE",
"135 67 OFFCURVE",
"202 62 CURVE SMOOTH",
"270 57 OFFCURVE",
"297 59 OFFCURVE",
"320 81 CURVE SMOOTH",
"344 103 OFFCURVE",
"343 136 OFFCURVE",
"344 168 CURVE SMOOTH",
"345 201 OFFCURVE",
"348 183 OFFCURVE",
"347 194 CURVE"
);
}
);
width = 443;
}
);
leftKerningGroup = c;
note = ccedilla;
rightKerningGroup = c;
unicode = 00E7;
},
{
glyphname = d;
layers = (
{
hints = (
{
horizontal = 1;
place = "{-1.25, 707.46}";
type = Stem;
},
{
place = "{101, 234}";
type = Stem;
}
);
layerId = "0C1D5C58-AE70-45E1-B635-E72A3DDAF756";
paths = (
{
closed = 1;
nodes = (
"336 701 LINE",
"337 705 OFFCURVE",
"385 709 OFFCURVE",
"423 704 CURVE",
"423 638 LINE SMOOTH",
"423 415 OFFCURVE",
"434 193 OFFCURVE",
"429 1 CURVE",
"402 -1 OFFCURVE",
"366 -3 OFFCURVE",
"336 1 CURVE",
"333 4 OFFCURVE",
"339 33 OFFCURVE",
"330 62 CURVE",
"322 43 OFFCURVE",
"298 16 OFFCURVE",
"273 11 CURVE",
"242 1 OFFCURVE",
"214 0 OFFCURVE",
"189 3 CURVE",
"38 14 OFFCURVE",
"24 150 OFFCURVE",
"21 285 CURVE",
"21 385 OFFCURVE",
"42 472 OFFCURVE",
"122 493 CURVE SMOOTH",
"169 506 OFFCURVE",
"226 506 OFFCURVE",
"265 498 CURVE",
"310 492 OFFCURVE",
"335 453 OFFCURVE",
"336 446 CURVE",
"335 556 OFFCURVE",
"334 597 OFFCURVE",
"335 610 CURVE SMOOTH",
"336 621 OFFCURVE",
"334 664 OFFCURVE",
"336 690 CURVE"
);
},
{
closed = 1;
nodes = (
"156 434 OFFCURVE",
"110 403 OFFCURVE",
"104 320 CURVE",
"101 298 OFFCURVE",
"101 276 OFFCURVE",
"101 254 CURVE",
"106 119 OFFCURVE",
"146 86 OFFCURVE",
"225 86 CURVE SMOOTH",
"326 86 OFFCURVE",
"335 163 OFFCURVE",
"335 265 CURVE",
"334 359 OFFCURVE",
"330 423 OFFCURVE",
"239 428 CURVE SMOOTH"
);
}
);
width = 463;
}
);
leftKerningGroup = d;
note = d;
unicode = 0064;
},
{
glyphname = eth;
layers = (
{
hints = (
{
horizontal = 1;
place = "{-23.88, 878.88}";
type = Stem;
},
{
place = "{17.92, 487.87}";
type = Stem;
}
);
layerId = "0C1D5C58-AE70-45E1-B635-E72A3DDAF756";
paths = (
{
closed = 1;
nodes = (
"175 811 OFFCURVE",
"225 775 OFFCURVE",
"261 764 CURVE",
"338 822 OFFCURVE",
"370 845 OFFCURVE",
"387 855 CURVE",
"407 828 OFFCURVE",
"422 827 OFFCURVE",
"450 797 CURVE",
"383 756 OFFCURVE",
"364 742 OFFCURVE",
"328 719 CURVE",
"380 674 OFFCURVE",
"477 526 OFFCURVE",
"497 390 CURVE SMOOTH",
"521 191 OFFCURVE",
"508 2 OFFCURVE",
"313 -21 CURVE SMOOTH",
"171 -38 OFFCURVE",
"19 18 OFFCURVE",
"19 178 CURVE SMOOTH",
"19 187 OFFCURVE",
"18 197 OFFCURVE",
"18 206 CURVE",
"13 343 OFFCURVE",
"44 431 OFFCURVE",
"170 447 CURVE",
"296 448 OFFCURVE",
"328 453 OFFCURVE",
"387 375 CURVE",
"368 504 OFFCURVE",
"314 579 OFFCURVE",
"283 618 CURVE",
"272 630 OFFCURVE",
"259 644 OFFCURVE",
"242 658 CURVE",
"159 602 OFFCURVE",
"87 551 OFFCURVE",
"80 547 CURVE",
"66 567 OFFCURVE",
"30 591 OFFCURVE",
"26 597 CURVE",
"27 598 OFFCURVE",
"72 632 OFFCURVE",
"167 700 CURVE",
"132 708 OFFCURVE",
"101 735 OFFCURVE",
"48 758 CURVE",
"47 758 OFFCURVE",
"124 833 OFFCURVE",
"143 826 CURVE"
);
},
{
closed = 1;
nodes = (
"109 175 LINE",
"131 94 OFFCURVE",
"217 67 OFFCURVE",
"286 77 CURVE SMOOTH",
"367 86 OFFCURVE",
"407 133 OFFCURVE",
"399 210 CURVE SMOOTH",
"388 325 OFFCURVE",
"266 364 OFFCURVE",
"194 356 CURVE SMOOTH",
"117 345 OFFCURVE",
"97 274 OFFCURVE",
"106 200 CURVE SMOOTH"
);
}
);
width = 530;
}
);
leftKerningGroup = eth;
note = eth;
rightKerningGroup = eth;
unicode = 00F0;
},
{
glyphname = e;
layers = (
{
hints = (
{
horizontal = 1;
place = "{188, 61}";
type = Stem;
},
{
horizontal = 1;
place = "{308, 139}";
type = Stem;
},
{
place = "{20.78, 404.84}";
type = Stem;
}
);
layerId = "0C1D5C58-AE70-45E1-B635-E72A3DDAF756";
paths = (
{
closed = 1;
nodes = (
"110 235 LINE SMOOTH",
"110 212 OFFCURVE",
"92 93 OFFCURVE",
"212 83 CURVE SMOOTH",
"306 75 OFFCURVE",
"334 123 OFFCURVE",
"325 188 CURVE",
"360 194 OFFCURVE",
"390 189 OFFCURVE",
"422 190 CURVE",
"423 124 OFFCURVE",
"421 79 OFFCURVE",
"394 34 CURVE",
"351 -32 OFFCURVE",
"176 -15 OFFCURVE",
"164 -10 CURVE",
"51 8 OFFCURVE",
"15 154 OFFCURVE",
"21 284 CURVE",
"25 333 OFFCURVE",
"27 379 OFFCURVE",
"43 423 CURVE",
"78 502 OFFCURVE",
"195 531 OFFCURVE",
"290 507 CURVE",
"414 486 OFFCURVE",
"432 371 OFFCURVE",
"424 259 CURVE",
"412 255 OFFCURVE",
"364 251 OFFCURVE",
"312 249 CURVE SMOOTH",
"276 247 OFFCURVE",
"175 249 OFFCURVE",
"147 250 CURVE",
"130 250 OFFCURVE",
"118 251 OFFCURVE",
"110 253 CURVE"
);
},
{
closed = 1;
nodes = (
"352 367 OFFCURVE",
"334 412 OFFCURVE",
"296 436 CURVE",
"276 445 OFFCURVE",
"265 447 OFFCURVE",
"242 447 CURVE SMOOTH",
"148 447 OFFCURVE",
"123 402 OFFCURVE",
"115 343 CURVE SMOOTH",
"110 306 OFFCURVE",
"110 305 OFFCURVE",
"237 308 CURVE SMOOTH",
"308 308 OFFCURVE",
"333 308 OFFCURVE",
"345 309 CURVE SMOOTH",
"356 310 OFFCURVE",
"353 315 OFFCURVE",
"353 328 CURVE"
);
}
);
width = 444;
}
);
leftKerningGroup = e;
note = e;
rightKerningGroup = ae;
unicode = 0065;
},
{
glyphname = eacute;
layers = (
{
hints = (
{
horizontal = 1;
place = "{188, 61}";
type = Stem;
},
{
horizontal = 1;
place = "{308, 139}";
type = Stem;
},
{
place = "{20.78, 404.84}";
type = Stem;
}
);
layerId = "0C1D5C58-AE70-45E1-B635-E72A3DDAF756";
paths = (
{
closed = 1;
nodes = (
"264 597 OFFCURVE",
"361 689 OFFCURVE",
"370 695 CURVE",
"353 712 OFFCURVE",
"335 730 OFFCURVE",
"318 748 CURVE",
"278 711 OFFCURVE",
"206 632 OFFCURVE",
"159 589 CURVE",
"172 585 OFFCURVE",
"218 582 OFFCURVE",
"258 586 CURVE"
);
},
{
closed = 1;
nodes = (
"110 235 LINE SMOOTH",
"110 212 OFFCURVE",
"92 93 OFFCURVE",
"212 83 CURVE SMOOTH",
"306 75 OFFCURVE",
"334 123 OFFCURVE",
"325 188 CURVE",
"360 194 OFFCURVE",
"390 189 OFFCURVE",
"422 190 CURVE",
"423 124 OFFCURVE",
"421 79 OFFCURVE",
"394 34 CURVE",
"351 -32 OFFCURVE",
"176 -15 OFFCURVE",
"164 -10 CURVE",
"51 8 OFFCURVE",
"15 154 OFFCURVE",
"21 284 CURVE",
"25 333 OFFCURVE",
"27 379 OFFCURVE",
"43 423 CURVE",
"78 502 OFFCURVE",
"195 531 OFFCURVE",
"290 507 CURVE",
"414 486 OFFCURVE",
"432 371 OFFCURVE",
"424 259 CURVE",
"412 255 OFFCURVE",
"364 251 OFFCURVE",
"312 249 CURVE SMOOTH",
"276 247 OFFCURVE",
"175 249 OFFCURVE",
"147 250 CURVE",
"130 250 OFFCURVE",
"118 251 OFFCURVE",
"110 253 CURVE"
);
},
{
closed = 1;
nodes = (
"352 367 OFFCURVE",
"334 412 OFFCURVE",
"296 436 CURVE",
"276 445 OFFCURVE",
"265 447 OFFCURVE",
"242 447 CURVE SMOOTH",
"148 447 OFFCURVE",
"123 402 OFFCURVE",
"115 343 CURVE SMOOTH",
"110 306 OFFCURVE",
"110 305 OFFCURVE",
"237 308 CURVE SMOOTH",
"308 308 OFFCURVE",
"333 308 OFFCURVE",
"345 309 CURVE SMOOTH",
"356 310 OFFCURVE",
"353 315 OFFCURVE",
"353 328 CURVE"
);
}
);
width = 444;
}
);
leftKerningGroup = e;
note = eacute;
rightKerningGroup = ae;
unicode = 00E9;
},
{
glyphname = ecircumflex;
layers = (
{
hints = (
{
horizontal = 1;
place = "{188, 61}";
type = Stem;
},
{
horizontal = 1;
place = "{308, 139}";
type = Stem;
},
{
horizontal = 1;
place = "{515.12, 79.88}";
type = Stem;
},
{
place = "{20.78, 404.84}";
type = Stem;
}
);
layerId = "0C1D5C58-AE70-45E1-B635-E72A3DDAF756";
paths = (
{
closed = 1;
nodes = (
"397 596 LINE",
"394 598 OFFCURVE",
"361 589 OFFCURVE",
"317 591 CURVE",
"313 591 OFFCURVE",
"301 602 OFFCURVE",
"283 620 CURVE SMOOTH",
"261 642 LINE",
"251 654 OFFCURVE",
"240 666 OFFCURVE",
"234 669 CURVE",
"227 666 OFFCURVE",
"177 599 OFFCURVE",
"156 593 CURVE",
"138 591 OFFCURVE",
"138 592 OFFCURVE",
"74 595 CURVE",
"128 663 OFFCURVE",
"173 700 OFFCURVE",
"235 757 CURVE"
);
},
{
closed = 1;
nodes = (
"110 235 LINE SMOOTH",
"110 212 OFFCURVE",
"92 93 OFFCURVE",
"212 83 CURVE SMOOTH",
"306 75 OFFCURVE",
"334 123 OFFCURVE",
"325 188 CURVE",
"360 194 OFFCURVE",
"390 189 OFFCURVE",
"422 190 CURVE",
"423 124 OFFCURVE",
"421 79 OFFCURVE",
"394 34 CURVE",
"351 -32 OFFCURVE",
"176 -15 OFFCURVE",
"164 -10 CURVE",
"51 8 OFFCURVE",
"15 154 OFFCURVE",
"21 284 CURVE",
"25 333 OFFCURVE",
"27 379 OFFCURVE",
"43 423 CURVE",
"78 502 OFFCURVE",
"195 531 OFFCURVE",
"290 507 CURVE",
"414 486 OFFCURVE",
"432 371 OFFCURVE",
"424 259 CURVE",
"412 255 OFFCURVE",
"364 251 OFFCURVE",
"312 249 CURVE SMOOTH",
"276 247 OFFCURVE",
"175 249 OFFCURVE",
"147 250 CURVE",
"130 250 OFFCURVE",
"118 251 OFFCURVE",
"110 253 CURVE"
);
},
{
closed = 1;
nodes = (
"352 367 OFFCURVE",
"334 412 OFFCURVE",
"296 436 CURVE",
"276 445 OFFCURVE",
"265 447 OFFCURVE",
"242 447 CURVE SMOOTH",
"148 447 OFFCURVE",
"123 402 OFFCURVE",
"115 343 CURVE SMOOTH",
"110 306 OFFCURVE",
"110 305 OFFCURVE",
"237 308 CURVE SMOOTH",
"308 308 OFFCURVE",
"333 308 OFFCURVE",
"345 309 CURVE SMOOTH",
"356 310 OFFCURVE",
"353 315 OFFCURVE",
"353 328 CURVE"
);
}
);
width = 444;
}
);
leftKerningGroup = e;
note = ecircumflex;
rightKerningGroup = ae;
unicode = 00EA;
},
{
glyphname = edieresis;
layers = (
{
hints = (
{
horizontal = 1;
place = "{188, 61}";
type = Stem;
},
{
horizontal = 1;
place = "{308, 139}";
type = Stem;
},
{
horizontal = 1;
place = "{515.12, 120.88}";
type = Stem;
},
{
place = "{185, 78}";
type = Stem;
}
);
layerId = "0C1D5C58-AE70-45E1-B635-E72A3DDAF756";
paths = (
{
closed = 1;
nodes = (
"158 756 OFFCURVE",
"173 757 OFFCURVE",
"186 755 CURVE",
"185 658 LINE",
"185 640 LINE",
"183 637 OFFCURVE",
"179 636 OFFCURVE",
"174 636 CURVE",
"153 633 OFFCURVE",
"121 638 OFFCURVE",
"95 637 CURVE",
"94 665 OFFCURVE",
"89 714 OFFCURVE",
"92 750 CURVE",
"104 755 OFFCURVE",
"119 757 OFFCURVE",
"142 757 CURVE"
);
},
{
closed = 1;
nodes = (
"329 757 OFFCURVE",
"344 756 OFFCURVE",
"357 755 CURVE",
"356 658 LINE",
"356 640 LINE",
"354 637 OFFCURVE",
"350 636 OFFCURVE",
"345 636 CURVE",
"324 633 OFFCURVE",
"293 638 OFFCURVE",
"267 636 CURVE",
"266 636 LINE",
"264 665 OFFCURVE",
"260 714 OFFCURVE",
"263 750 CURVE",
"275 755 OFFCURVE",
"290 757 OFFCURVE",
"313 757 CURVE SMOOTH"
);
},
{
closed = 1;
nodes = (
"110 235 LINE SMOOTH",
"110 212 OFFCURVE",
"92 93 OFFCURVE",
"212 83 CURVE SMOOTH",
"306 75 OFFCURVE",
"334 123 OFFCURVE",
"325 188 CURVE",
"360 194 OFFCURVE",
"390 189 OFFCURVE",
"422 190 CURVE",
"423 124 OFFCURVE",
"421 79 OFFCURVE",
"394 34 CURVE",
"351 -32 OFFCURVE",
"176 -15 OFFCURVE",
"164 -10 CURVE",
"51 8 OFFCURVE",
"15 154 OFFCURVE",
"21 284 CURVE",
"25 333 OFFCURVE",
"27 379 OFFCURVE",
"43 423 CURVE",
"78 502 OFFCURVE",
"195 531 OFFCURVE",
"290 507 CURVE",
"414 486 OFFCURVE",
"432 371 OFFCURVE",
"424 259 CURVE",
"412 255 OFFCURVE",
"364 251 OFFCURVE",
"312 249 CURVE SMOOTH",
"276 247 OFFCURVE",
"175 249 OFFCURVE",
"147 250 CURVE",
"130 250 OFFCURVE",
"118 251 OFFCURVE",
"110 253 CURVE"
);
},
{
closed = 1;
nodes = (
"352 367 OFFCURVE",
"334 412 OFFCURVE",
"296 436 CURVE",
"276 445 OFFCURVE",
"265 447 OFFCURVE",
"242 447 CURVE SMOOTH",
"148 447 OFFCURVE",
"123 402 OFFCURVE",
"115 343 CURVE SMOOTH",
"110 306 OFFCURVE",
"110 305 OFFCURVE",
"237 308 CURVE SMOOTH",
"308 308 OFFCURVE",
"333 308 OFFCURVE",
"345 309 CURVE SMOOTH",
"356 310 OFFCURVE",
"353 315 OFFCURVE",
"353 328 CURVE"
);
}
);
width = 444;
}
);
leftKerningGroup = e;
note = edieresis;
rightKerningGroup = ae;
unicode = 00EB;
},
{
glyphname = egrave;
layers = (
{
hints = (
{
horizontal = 1;
place = "{188, 61}";
type = Stem;
},
{
horizontal = 1;
place = "{308, 139}";
type = Stem;
},
{
horizontal = 1;
place = "{515.12, 69.88}";
type = Stem;
},
{
place = "{20.78, 404.84}";
type = Stem;
}
);
layerId = "0C1D5C58-AE70-45E1-B635-E72A3DDAF756";
paths = (
{
closed = 1;
nodes = (
"118 711 OFFCURVE",
"136 729 OFFCURVE",
"153 747 CURVE",
"192 711 OFFCURVE",
"266 632 OFFCURVE",
"312 588 CURVE",
"298 584 OFFCURVE",
"252 581 OFFCURVE",
"213 585 CURVE",
"206 596 OFFCURVE",
"110 689 OFFCURVE",
"101 694 CURVE"
);
},
{
closed = 1;
nodes = (
"110 235 LINE SMOOTH",
"110 212 OFFCURVE",
"92 93 OFFCURVE",
"212 83 CURVE SMOOTH",
"306 75 OFFCURVE",
"334 123 OFFCURVE",
"325 188 CURVE",
"360 194 OFFCURVE",
"390 189 OFFCURVE",
"422 190 CURVE",
"423 124 OFFCURVE",
"421 79 OFFCURVE",
"394 34 CURVE",
"351 -32 OFFCURVE",
"176 -15 OFFCURVE",
"164 -10 CURVE",
"51 8 OFFCURVE",
"15 154 OFFCURVE",
"21 284 CURVE",
"25 333 OFFCURVE",
"27 379 OFFCURVE",
"43 423 CURVE",
"78 502 OFFCURVE",
"195 531 OFFCURVE",
"290 507 CURVE",
"414 486 OFFCURVE",
"432 371 OFFCURVE",
"424 259 CURVE",
"412 255 OFFCURVE",
"364 251 OFFCURVE",
"312 249 CURVE SMOOTH",
"276 247 OFFCURVE",
"175 249 OFFCURVE",
"147 250 CURVE",
"130 250 OFFCURVE",
"118 251 OFFCURVE",
"110 253 CURVE"
);
},
{
closed = 1;
nodes = (
"352 367 OFFCURVE",
"334 412 OFFCURVE",
"296 436 CURVE",
"276 445 OFFCURVE",
"265 447 OFFCURVE",
"242 447 CURVE SMOOTH",
"148 447 OFFCURVE",
"123 402 OFFCURVE",
"115 343 CURVE SMOOTH",
"110 306 OFFCURVE",
"110 305 OFFCURVE",
"237 308 CURVE SMOOTH",
"308 308 OFFCURVE",
"333 308 OFFCURVE",
"345 309 CURVE SMOOTH",
"356 310 OFFCURVE",
"353 315 OFFCURVE",
"353 328 CURVE"
);
}
);
width = 444;
}
);
leftKerningGroup = e;
note = egrave;
rightKerningGroup = ae;
unicode = 00E8;
},
{
glyphname = f;
layers = (
{
hints = (
{
horizontal = 1;
place = "{455, 139}";
type = Stem;
},
{
place = "{11, 368.75}";
type = Stem;
}
);
layerId = "0C1D5C58-AE70-45E1-B635-E72A3DDAF756";
paths = (
{
closed = 1;
nodes = (
"193 3 LINE",
"161 6 OFFCURVE",
"147 -3 OFFCURVE",
"108 3 CURVE",
"104 27 OFFCURVE",
"104 103 OFFCURVE",
"104 177 CURVE SMOOTH",
"104 244 OFFCURVE",
"106 332 OFFCURVE",
"106 373 CURVE",
"95 372 OFFCURVE",
"81 372 OFFCURVE",
"62 372 CURVE",
"43 373 OFFCURVE",
"27 373 OFFCURVE",
"14 372 CURVE",
"11 458 LINE",
"35 458 OFFCURVE",
"85 458 OFFCURVE",
"104 457 CURVE",
"101 539 OFFCURVE",
"99 668 OFFCURVE",
"217 683 CURVE SMOOTH",
"279 689 OFFCURVE",
"333 689 OFFCURVE",
"374 688 CURVE",
"384 657 OFFCURVE",
"379 625 OFFCURVE",
"375 597 CURVE",
"357 598 OFFCURVE",
"311 596 OFFCURVE",
"263 594 CURVE SMOOTH",
"199 590 OFFCURVE",
"190 595 OFFCURVE",
"197 454 CURVE",
"256 455 OFFCURVE",
"314 455 OFFCURVE",
"373 455 CURVE",
"369 436 OFFCURVE",
"372 418 OFFCURVE",
"368 369 CURVE",
"253 372 LINE SMOOTH",
"228 372 OFFCURVE",
"209 373 OFFCURVE",
"193 373 CURVE"
);
}
);
width = 379;
}
);
leftKerningGroup = f;
note = f;
rightKerningGroup = f;
unicode = 0066;
},
{
glyphname = g;
layers = (
{
hints = (
{
horizontal = 1;
place = "{-126, 124}";
type = Stem;
},
{
place = "{22, 411.37}";
type = Stem;
},
{
place = "{100, 241}";
type = Stem;
}
);
layerId = "0C1D5C58-AE70-45E1-B635-E72A3DDAF756";
paths = (
{
closed = 1;
nodes = (
"390 -196 OFFCURVE",
"337 -201 OFFCURVE",
"304 -204 CURVE SMOOTH",
"255 -207 OFFCURVE",
"227 -206 OFFCURVE",
"200 -204 CURVE SMOOTH",
"108 -197 OFFCURVE",
"32 -133 OFFCURVE",
"45 -42 CURVE",
"53 -39 OFFCURVE",
"130 -35 OFFCURVE",
"133 -39 CURVE SMOOTH",
"138 -46 OFFCURVE",
"117 -114 OFFCURVE",
"197 -126 CURVE",
"330 -130 OFFCURVE",
"343 -123 OFFCURVE",
"339 -72 CURVE",
"340 21 OFFCURVE",
"338 -11 OFFCURVE",
"341 26 CURVE",
"313 -6 OFFCURVE",
"282 -1 OFFCURVE",
"180 -2 CURVE SMOOTH",
"128 -2 OFFCURVE",
"74 11 OFFCURVE",
"50 61 CURVE",
"31 97 OFFCURVE",
"24 137 OFFCURVE",
"22 178 CURVE",
"22 303 OFFCURVE",
"18 486 OFFCURVE",
"189 497 CURVE",
"294 500 OFFCURVE",
"319 484 OFFCURVE",
"335 447 CURVE",
"340 467 OFFCURVE",
"336 489 OFFCURVE",
"338 498 CURVE",
"368 501 OFFCURVE",
"398 499 OFFCURVE",
"429 499 CURVE",
"434 332 OFFCURVE",
"436 149 OFFCURVE",
"428 -43 CURVE SMOOTH",
"427 -75 OFFCURVE",
"429 -107 OFFCURVE",
"419 -130 CURVE SMOOTH"
);
},
{
closed = 1;
nodes = (
"100 226 LINE",
"97 173 OFFCURVE",
"110 79 OFFCURVE",
"196 75 CURVE SMOOTH",
"294 69 OFFCURVE",
"336 78 OFFCURVE",
"341 167 CURVE",
"341 200 OFFCURVE",
"341 238 OFFCURVE",
"340 281 CURVE",
"340 362 OFFCURVE",
"319 393 OFFCURVE",
"295 406 CURVE SMOOTH",
"269 420 OFFCURVE",
"233 421 OFFCURVE",
"198 415 CURVE SMOOTH",
"117 401 OFFCURVE",
"100 324 OFFCURVE",
"100 238 CURVE SMOOTH"
);
}
);
width = 467;
}
);
leftKerningGroup = g;
note = g;
rightKerningGroup = a;
unicode = 0067;
},
{
glyphname = h;
layers = (
{
hints = (
{
horizontal = 1;
place = "{-3.12, 726.12}";
type = Stem;
},
{
place = "{123.09, 202.91}";
type = Stem;
}
);
layerId = "0C1D5C58-AE70-45E1-B635-E72A3DDAF756";
paths = (
{
closed = 1;
nodes = (
"126 536 LINE",
"126 447 LINE",
"149 467 OFFCURVE",
"173 492 OFFCURVE",
"234 496 CURVE",
"306 505 OFFCURVE",
"359 493 OFFCURVE",
"393 464 CURVE SMOOTH",
"435 426 OFFCURVE",
"405 139 OFFCURVE",
"414 2 CURVE",
"379 -3 OFFCURVE",
"355 -3 OFFCURVE",
"328 -2 CURVE",
"327 13 OFFCURVE",
"326 31 OFFCURVE",
"326 50 CURVE SMOOTH",
"326 110 LINE",
"326 306 LINE",
"325 338 OFFCURVE",
"318 374 OFFCURVE",
"296 389 CURVE SMOOTH",
"290 393 OFFCURVE",
"281 395 OFFCURVE",
"272 397 CURVE SMOOTH",
"209 413 OFFCURVE",
"141 396 OFFCURVE",
"127 323 CURVE SMOOTH",
"122 296 OFFCURVE",
"120 265 OFFCURVE",
"120 232 CURVE SMOOTH",
"121 171 OFFCURVE",
"126 96 OFFCURVE",
"121 6 CURVE",
"121 2 LINE",
"80 -9 OFFCURVE",
"86 1 OFFCURVE",
"36 -3 CURVE",
"36 161 OFFCURVE",
"32 547 OFFCURVE",
"36 723 CURVE",
"57 721 OFFCURVE",
"66 720 OFFCURVE",
"86 721 CURVE",
"96 721 OFFCURVE",
"124 725 OFFCURVE",
"124 720 CURVE",
"126 711 OFFCURVE",
"126 656 OFFCURVE",
"126 598 CURVE SMOOTH"
);
}
);
width = 448;
}
);
note = h;
rightKerningGroup = h;
unicode = 0068;
},
{
glyphname = i;
layers = (
{
hints = (
{
horizontal = 1;
place = "{503, 79}";
type = Stem;
},
{
place = "{57.25, 99.75}";
type = Stem;
}
);
layerId = "0C1D5C58-AE70-45E1-B635-E72A3DDAF756";
paths = (
{
closed = 1;
nodes = (
"90 719 OFFCURVE",
"122 718 OFFCURVE",
"153 718 CURVE",
"153 699 OFFCURVE",
"155 634 OFFCURVE",
"156 586 CURVE",
"138 577 OFFCURVE",
"94 583 OFFCURVE",
"63 582 CURVE",
"63 621 OFFCURVE",
"58 659 OFFCURVE",
"59 720 CURVE"
);
},
{
closed = 1;
nodes = (
"63 505 LINE",
"74 507 OFFCURVE",
"99 503 OFFCURVE",
"157 503 CURVE",
"157 500 LINE SMOOTH",
"156 339 OFFCURVE",
"146 168 OFFCURVE",
"156 3 CURVE",
"132 -3 OFFCURVE",
"71 3 OFFCURVE",
"58 -1 CURVE",
"60 57 OFFCURVE",
"59 117 OFFCURVE",
"59 177 CURVE SMOOTH",
"59 261 LINE",
"57 339 OFFCURVE",
"55 425 OFFCURVE",
"63 504 CURVE"
);
}
);
width = 207;
}
);
note = i;
unicode = 0069;
},
{
glyphname = iacute;
layers = (
{
hints = (
{
horizontal = 1;
place = "{-1, 747}";
type = Stem;
},
{
place = "{54, 211}";
type = Stem;
}
);
layerId = "0C1D5C58-AE70-45E1-B635-E72A3DDAF756";
paths = (
{
closed = 1;
nodes = (
"159 595 OFFCURVE",
"256 687 OFFCURVE",
"265 693 CURVE",
"248 710 OFFCURVE",
"231 728 OFFCURVE",
"214 746 CURVE",
"173 709 OFFCURVE",
"101 630 OFFCURVE",
"54 587 CURVE",
"68 583 OFFCURVE",
"114 580 OFFCURVE",
"154 584 CURVE"
);
},
{
closed = 1;
nodes = (
"63 505 LINE",
"74 507 OFFCURVE",
"99 503 OFFCURVE",
"157 503 CURVE",
"157 500 LINE SMOOTH",
"156 339 OFFCURVE",
"146 168 OFFCURVE",
"156 3 CURVE",
"132 -3 OFFCURVE",
"71 3 OFFCURVE",
"58 -1 CURVE",
"60 57 OFFCURVE",
"59 117 OFFCURVE",
"59 177 CURVE SMOOTH",
"59 261 LINE",
"57 339 OFFCURVE",
"55 425 OFFCURVE",
"63 504 CURVE"
);
}
);
width = 207;
}
);
note = iacute;
unicode = 00ED;
},
{
glyphname = icircumflex;
layers = (
{
hints = (
{
horizontal = 1;
place = "{503, 89}";
type = Stem;
},
{
place = "{-53, 323}";
type = Stem;
}
);
layerId = "0C1D5C58-AE70-45E1-B635-E72A3DDAF756";
paths = (
{
closed = 1;
nodes = (
"270 593 LINE",
"267 595 OFFCURVE",
"235 586 OFFCURVE",
"190 588 CURVE",
"186 588 OFFCURVE",
"175 599 OFFCURVE",
"157 617 CURVE SMOOTH",
"134 640 LINE",
"125 651 OFFCURVE",
"113 663 OFFCURVE",
"108 667 CURVE",
"101 663 OFFCURVE",
"50 597 OFFCURVE",
"30 590 CURVE",
"12 588 OFFCURVE",
"12 589 OFFCURVE",
"-53 592 CURVE",
"1 660 OFFCURVE",
"47 697 OFFCURVE",
"108 755 CURVE"
);
},
{
closed = 1;
nodes = (
"63 505 LINE",
"74 507 OFFCURVE",
"99 503 OFFCURVE",
"157 503 CURVE",
"157 500 LINE SMOOTH",
"156 339 OFFCURVE",
"146 168 OFFCURVE",
"156 3 CURVE",
"132 -3 OFFCURVE",
"71 3 OFFCURVE",
"58 -1 CURVE",
"60 57 OFFCURVE",
"59 117 OFFCURVE",
"59 177 CURVE SMOOTH",
"59 261 LINE",
"57 339 OFFCURVE",
"55 425 OFFCURVE",
"63 504 CURVE"
);
}
);
width = 207;
}
);
note = icircumflex;
unicode = 00EE;
},
{
glyphname = idieresis;
layers = (
{
hints = (
{
horizontal = 1;
place = "{503, 133}";
type = Stem;
},
{
place = "{64, 79}";
type = Stem;
}
);
layerId = "0C1D5C58-AE70-45E1-B635-E72A3DDAF756";
paths = (
{
closed = 1;
nodes = (
"1 757 OFFCURVE",
"39 757 OFFCURVE",
"66 755 CURVE",
"66 747 OFFCURVE",
"64 685 OFFCURVE",
"64 657 CURVE SMOOTH",
"64 639 LINE",
"62 637 OFFCURVE",
"59 636 OFFCURVE",
"54 635 CURVE",
"33 633 OFFCURVE",
"1 638 OFFCURVE",
"-25 636 CURVE",
"-28 669 OFFCURVE",
"-28 717 OFFCURVE",
"-28 756 CURVE"
);
},
{
closed = 1;
nodes = (
"172 757 OFFCURVE",
"210 757 OFFCURVE",
"237 755 CURVE",
"237 747 OFFCURVE",
"235 685 OFFCURVE",
"235 657 CURVE SMOOTH",
"235 639 LINE",
"233 637 OFFCURVE",
"230 636 OFFCURVE",
"225 635 CURVE",
"204 633 OFFCURVE",
"172 638 OFFCURVE",
"146 636 CURVE",
"143 669 OFFCURVE",
"143 717 OFFCURVE",
"143 756 CURVE"
);
},
{
closed = 1;
nodes = (
"63 505 LINE",
"74 507 OFFCURVE",
"99 503 OFFCURVE",
"157 503 CURVE",
"157 500 LINE SMOOTH",
"156 339 OFFCURVE",
"146 168 OFFCURVE",
"156 3 CURVE",
"132 -3 OFFCURVE",
"71 3 OFFCURVE",
"58 -1 CURVE",
"60 57 OFFCURVE",
"59 117 OFFCURVE",
"59 177 CURVE SMOOTH",
"59 261 LINE",
"57 339 OFFCURVE",
"55 425 OFFCURVE",
"63 504 CURVE"
);
}
);
width = 207;
}
);
note = idieresis;
unicode = 00EF;
},
{
glyphname = igrave;
layers = (
{
hints = (
{
horizontal = 1;
place = "{503, 84}";
type = Stem;
},
{
place = "{-48, 211}";
type = Stem;
}
);
layerId = "0C1D5C58-AE70-45E1-B635-E72A3DDAF756";
paths = (
{
closed = 1;
nodes = (
"-31 713 OFFCURVE",
"-14 731 OFFCURVE",
"3 749 CURVE",
"43 713 OFFCURVE",
"116 634 OFFCURVE",
"163 590 CURVE",
"149 586 OFFCURVE",
"103 583 OFFCURVE",
"63 587 CURVE",
"57 598 OFFCURVE",
"-39 691 OFFCURVE",
"-48 696 CURVE"
);
},
{
closed = 1;
nodes = (
"63 505 LINE",
"74 507 OFFCURVE",
"99 503 OFFCURVE",
"157 503 CURVE",
"157 500 LINE SMOOTH",
"156 339 OFFCURVE",
"146 168 OFFCURVE",
"156 3 CURVE",
"132 -3 OFFCURVE",
"71 3 OFFCURVE",
"58 -1 CURVE",
"60 57 OFFCURVE",
"59 117 OFFCURVE",
"59 177 CURVE SMOOTH",
"59 261 LINE",
"57 339 OFFCURVE",
"55 425 OFFCURVE",
"63 504 CURVE"
);
}
);
width = 207;
}
);
note = igrave;
unicode = 00EC;
},
{
glyphname = ij;
layers = (
{
hints = (
{
horizontal = 1;
place = "{-96, 99}";
type = Stem;
},
{
horizontal = 1;
place = "{498, 83.75}";
type = Stem;
},
{
place = "{157, 198}";
type = Stem;
},
{
horizontal = 1;
place = "{503, 79}";
type = Stem;
}
);
layerId = "0C1D5C58-AE70-45E1-B635-E72A3DDAF756";
paths = (
{
closed = 1;
nodes = (
"90 719 OFFCURVE",
"122 718 OFFCURVE",
"153 718 CURVE",
"153 699 OFFCURVE",
"155 634 OFFCURVE",
"156 586 CURVE",
"138 577 OFFCURVE",
"94 583 OFFCURVE",
"63 582 CURVE",
"63 621 OFFCURVE",
"58 659 OFFCURVE",
"59 720 CURVE"
);
},
{
closed = 1;
nodes = (
"376 719 OFFCURVE",
"407 718 OFFCURVE",
"437 718 CURVE",
"437 701 OFFCURVE",
"440 630 OFFCURVE",
"440 590 CURVE",
"432 577 OFFCURVE",
"389 583 OFFCURVE",
"350 584 CURVE",
"350 620 OFFCURVE",
"345 659 OFFCURVE",
"346 720 CURVE"
);
},
{
closed = 1;
nodes = (
"63 505 LINE",
"74 507 OFFCURVE",
"99 503 OFFCURVE",
"157 503 CURVE",
"157 500 LINE SMOOTH",
"156 339 OFFCURVE",
"146 168 OFFCURVE",
"156 3 CURVE",
"132 -3 OFFCURVE",
"71 3 OFFCURVE",
"58 -1 CURVE",
"60 57 OFFCURVE",
"59 117 OFFCURVE",
"59 177 CURVE SMOOTH",
"59 261 LINE",
"57 339 OFFCURVE",
"55 425 OFFCURVE",
"63 504 CURVE"
);
},
{
closed = 1;
nodes = (
"354 407 OFFCURVE",
"354 453 OFFCURVE",
"354 498 CURVE",
"385 496 OFFCURVE",
"418 503 OFFCURVE",
"439 500 CURVE",
"447 435 OFFCURVE",
"436 312 OFFCURVE",
"441 263 CURVE",
"441 135 OFFCURVE",
"453 34 OFFCURVE",
"426 -99 CURVE",
"392 -180 OFFCURVE",
"258 -192 OFFCURVE",
"152 -187 CURVE",
"145 -155 OFFCURVE",
"149 -119 OFFCURVE",
"152 -96 CURVE",
"180 -98 OFFCURVE",
"285 -97 OFFCURVE",
"330 -63 CURVE",
"363 10 OFFCURVE",
"349 212 OFFCURVE",
"355 362 CURVE"
);
}
);
width = 500;
}
);
note = ij;
unicode = 0133;
},
{
glyphname = j;
layers = (
{
hints = (
{
horizontal = 1;
place = "{498, 83.75}";
type = Stem;
},
{
place = "{-124.13, 295.75}";
type = Stem;
}
);
layerId = "0C1D5C58-AE70-45E1-B635-E72A3DDAF756";
paths = (
{
closed = 1;
nodes = (
"104 719 OFFCURVE",
"134 718 OFFCURVE",
"165 718 CURVE",
"165 701 OFFCURVE",
"168 630 OFFCURVE",
"168 590 CURVE",
"159 577 OFFCURVE",
"116 583 OFFCURVE",
"77 584 CURVE",
"77 620 OFFCURVE",
"72 659 OFFCURVE",
"73 720 CURVE"
);
},
{
closed = 1;
nodes = (
"82 407 OFFCURVE",
"82 453 OFFCURVE",
"81 498 CURVE",
"112 496 OFFCURVE",
"145 503 OFFCURVE",
"167 500 CURVE",
"175 435 OFFCURVE",
"164 312 OFFCURVE",
"169 263 CURVE",
"169 135 OFFCURVE",
"181 34 OFFCURVE",
"154 -99 CURVE",
"120 -180 OFFCURVE",
"-14 -192 OFFCURVE",
"-120 -187 CURVE",
"-128 -155 OFFCURVE",
"-123 -119 OFFCURVE",
"-120 -96 CURVE",
"-94 -98 OFFCURVE",
"11 -98 OFFCURVE",
"58 -63 CURVE",
"94 7 OFFCURVE",
"74 211 OFFCURVE",
"82 362 CURVE"
);
}
);
width = 204;
}
);
note = j;
unicode = 006A;
},
{
glyphname = k;
layers = (
{
hints = (
{
horizontal = 1;
place = "{-3.79, 731.04}";
type = Stem;
},
{
place = "{34.33, 408.67}";
type = Stem;
}
);
layerId = "0C1D5C58-AE70-45E1-B635-E72A3DDAF756";
paths = (
{
closed = 1;
nodes = (
"126 544 LINE SMOOTH",
"126 521 OFFCURVE",
"126 491 OFFCURVE",
"125 455 CURVE SMOOTH",
"125 410 OFFCURVE",
"123 366 OFFCURVE",
"126 343 CURVE",
"237 425 OFFCURVE",
"276 474 OFFCURVE",
"325 517 CURVE",
"358 510 OFFCURVE",
"410 516 OFFCURVE",
"434 514 CURVE",
"311 408 OFFCURVE",
"316 394 OFFCURVE",
"191 289 CURVE",
"326 150 OFFCURVE",
"356 106 OFFCURVE",
"443 0 CURVE",
"414 0 OFFCURVE",
"370 -7 OFFCURVE",
"334 -2 CURVE",
"276 65 OFFCURVE",
"259 106 OFFCURVE",
"126 226 CURVE",
"126 198 OFFCURVE",
"129 120 OFFCURVE",
"128 84 CURVE SMOOTH",
"128 55 OFFCURVE",
"127 33 OFFCURVE",
"127 1 CURVE",
"104 2 OFFCURVE",
"65 -3 OFFCURVE",
"38 0 CURVE",
"29 248 OFFCURVE",
"39 483 OFFCURVE",
"38 726 CURVE",
"63 726 OFFCURVE",
"101 729 OFFCURVE",
"126 727 CURVE"
);
}
);
width = 435;
}
);
note = k;
rightKerningGroup = k;
unicode = 006B;
},
{
glyphname = l;
layers = (
{
hints = (
{
horizontal = 1;
place = "{-0.75, 727.75}";
type = Stem;
},
{
place = "{52.6, 99.4}";
type = Stem;
}
);
layerId = "0C1D5C58-AE70-45E1-B635-E72A3DDAF756";
paths = (
{
closed = 1;
nodes = (
"152 724 LINE",
"152 560 OFFCURVE",
"143 167 OFFCURVE",
"151 6 CURVE",
"139 -8 OFFCURVE",
"69 4 OFFCURVE",
"55 0 CURVE",
"74 241 OFFCURVE",
"37 485 OFFCURVE",
"61 727 CURVE"
);
}
);
width = 206;
}
);
note = l;
rightKerningGroup = l;
unicode = 006C;
},
{
glyphname = m;
layers = (
{
hints = (
{
horizontal = 1;
place = "{-3, 501.75}";
type = Stem;
},
{
place = "{123, 183}";
type = Stem;
},
{
place = "{398, 167}";
type = Stem;
}
);
layerId = "0C1D5C58-AE70-45E1-B635-E72A3DDAF756";
paths = (
{
closed = 1;
nodes = (
"130 473 OFFCURVE",
"128 462 OFFCURVE",
"129 443 CURVE",
"150 464 OFFCURVE",
"178 482 OFFCURVE",
"217 488 CURVE",
"265 498 OFFCURVE",
"313 498 OFFCURVE",
"347 478 CURVE",
"358 473 OFFCURVE",
"370 465 OFFCURVE",
"376 450 CURVE",
"397 462 OFFCURVE",
"418 493 OFFCURVE",
"499 495 CURVE SMOOTH",
"564 497 OFFCURVE",
"597 491 OFFCURVE",
"629 464 CURVE SMOOTH",
"671 426 OFFCURVE",
"641 139 OFFCURVE",
"650 2 CURVE",
"618 -3 OFFCURVE",
"595 -3 OFFCURVE",
"565 -2 CURVE",
"563 25 OFFCURVE",
"563 61 OFFCURVE",
"563 97 CURVE SMOOTH",
"564 145 OFFCURVE",
"566 178 OFFCURVE",
"565 259 CURVE",
"563 282 OFFCURVE",
"563 347 OFFCURVE",
"547 372 CURVE",
"543 385 OFFCURVE",
"529 393 OFFCURVE",
"508 395 CURVE",
"460 403 OFFCURVE",
"414 392 OFFCURVE",
"399 358 CURVE",
"397 339 OFFCURVE",
"397 318 OFFCURVE",
"398 295 CURVE SMOOTH",
"401 206 OFFCURVE",
"391 77 OFFCURVE",
"396 1 CURVE",
"365 -3 OFFCURVE",
"341 -2 OFFCURVE",
"308 -2 CURVE",
"305 32 OFFCURVE",
"306 77 OFFCURVE",
"306 122 CURVE SMOOTH",
"307 174 OFFCURVE",
"308 250 OFFCURVE",
"303 318 CURVE",
"303 373 OFFCURVE",
"288 389 OFFCURVE",
"239 391 CURVE SMOOTH",
"150 392 OFFCURVE",
"127 329 OFFCURVE",
"123 272 CURVE SMOOTH",
"120 225 OFFCURVE",
"123 180 OFFCURVE",
"124 138 CURVE SMOOTH",
"125 93 OFFCURVE",
"125 49 OFFCURVE",
"122 4 CURVE",
"122 0 LINE",
"92 -6 OFFCURVE",
"77 0 OFFCURVE",
"37 -3 CURVE",
"37 161 OFFCURVE",
"31 322 OFFCURVE",
"36 498 CURVE",
"58 496 OFFCURVE",
"68 496 OFFCURVE",
"89 497 CURVE",
"99 497 OFFCURVE",
"127 502 OFFCURVE",
"127 496 CURVE"
);
}
);
width = 684;
}
);
leftKerningGroup = m;
note = m;
rightKerningGroup = h;
unicode = 006D;
},
{
glyphname = n;
layers = (
{
hints = (
{
horizontal = 1;
place = "{-3, 502.75}";
type = Stem;
},
{
place = "{126, 202}";
type = Stem;
}
);
layerId = "0C1D5C58-AE70-45E1-B635-E72A3DDAF756";
paths = (
{
closed = 1;
nodes = (
"134 474 OFFCURVE",
"132 463 OFFCURVE",
"133 444 CURVE",
"169 465 OFFCURVE",
"237 495 OFFCURVE",
"305 495 CURVE SMOOTH",
"338 494 OFFCURVE",
"370 485 OFFCURVE",
"395 464 CURVE",
"437 426 OFFCURVE",
"408 140 OFFCURVE",
"416 2 CURVE",
"388 -2 OFFCURVE",
"364 -1 OFFCURVE",
"328 -1 CURVE",
"325 26 OFFCURVE",
"326 62 OFFCURVE",
"326 98 CURVE SMOOTH",
"326 143 OFFCURVE",
"329 208 OFFCURVE",
"328 255 CURVE",
"326 285 OFFCURVE",
"325 327 OFFCURVE",
"314 358 CURVE",
"312 382 OFFCURVE",
"294 392 OFFCURVE",
"265 390 CURVE",
"177 389 OFFCURVE",
"132 371 OFFCURVE",
"127 306 CURVE SMOOTH",
"126 287 OFFCURVE",
"125 262 OFFCURVE",
"126 232 CURVE SMOOTH",
"126 195 OFFCURVE",
"127 163 OFFCURVE",
"128 137 CURVE SMOOTH",
"131 92 OFFCURVE",
"130 49 OFFCURVE",
"127 5 CURVE",
"127 1 LINE",
"94 -6 OFFCURVE",
"78 0 OFFCURVE",
"38 -3 CURVE",
"38 161 OFFCURVE",
"32 322 OFFCURVE",
"37 498 CURVE",
"60 496 OFFCURVE",
"70 496 OFFCURVE",
"91 498 CURVE",
"102 498 OFFCURVE",
"131 503 OFFCURVE",
"131 497 CURVE"
);
}
);
width = 450;
}
);
leftKerningGroup = m;
note = n;
rightKerningGroup = h;
unicode = 006E;
},
{
glyphname = ntilde;
layers = (
{
hints = (
{
horizontal = 1;
place = "{498, 95}";
type = Stem;
},
{
place = "{126, 202}";
type = Stem;
},
{
horizontal = 1;
place = "{495, 91}";
type = Stem;
}
);
layerId = "0C1D5C58-AE70-45E1-B635-E72A3DDAF756";
paths = (
{
closed = 1;
nodes = (
"106 590 LINE",
"95 592 OFFCURVE",
"78 593 OFFCURVE",
"61 593 CURVE SMOOTH",
"50 593 OFFCURVE",
"39 592 OFFCURVE",
"25 592 CURVE",
"33 620 OFFCURVE",
"60 693 OFFCURVE",
"85 721 CURVE",
"121 757 OFFCURVE",
"178 768 OFFCURVE",
"220 740 CURVE SMOOTH",
"248 720 OFFCURVE",
"266 638 OFFCURVE",
"315 652 CURVE SMOOTH",
"357 665 OFFCURVE",
"368 711 OFFCURVE",
"367 746 CURVE",
"387 747 OFFCURVE",
"407 747 OFFCURVE",
"427 748 CURVE",
"427 747 LINE",
"428 742 OFFCURVE",
"429 739 OFFCURVE",
"429 734 CURVE",
"433 672 OFFCURVE",
"399 597 OFFCURVE",
"333 586 CURVE SMOOTH",
"291 579 OFFCURVE",
"247 586 OFFCURVE",
"228 649 CURVE",
"213 683 OFFCURVE",
"199 692 OFFCURVE",
"174 689 CURVE SMOOTH",
"134 683 OFFCURVE",
"104 648 OFFCURVE",
"106 591 CURVE"
);
},
{
closed = 1;
nodes = (
"134 474 OFFCURVE",
"132 463 OFFCURVE",
"133 444 CURVE",
"169 465 OFFCURVE",
"237 495 OFFCURVE",
"305 495 CURVE SMOOTH",
"338 494 OFFCURVE",
"370 485 OFFCURVE",
"395 464 CURVE",
"437 426 OFFCURVE",
"408 140 OFFCURVE",
"416 2 CURVE",
"388 -2 OFFCURVE",
"364 -1 OFFCURVE",
"328 -1 CURVE",
"325 26 OFFCURVE",
"326 62 OFFCURVE",
"326 98 CURVE SMOOTH",
"326 143 OFFCURVE",
"329 208 OFFCURVE",
"328 255 CURVE",
"326 285 OFFCURVE",
"325 327 OFFCURVE",
"314 358 CURVE",
"312 382 OFFCURVE",
"294 392 OFFCURVE",
"265 390 CURVE",
"177 389 OFFCURVE",
"132 371 OFFCURVE",
"127 306 CURVE SMOOTH",
"126 287 OFFCURVE",
"125 262 OFFCURVE",
"126 232 CURVE SMOOTH",
"126 195 OFFCURVE",
"127 163 OFFCURVE",
"128 137 CURVE SMOOTH",
"131 92 OFFCURVE",
"130 49 OFFCURVE",
"127 5 CURVE",
"127 1 LINE",
"94 -6 OFFCURVE",
"78 0 OFFCURVE",
"38 -3 CURVE",
"38 161 OFFCURVE",
"32 322 OFFCURVE",
"37 498 CURVE",
"60 496 OFFCURVE",
"70 496 OFFCURVE",
"91 498 CURVE",
"102 498 OFFCURVE",
"131 503 OFFCURVE",
"131 497 CURVE"
);
}
);
width = 450;
}
);
leftKerningGroup = m;
note = ntilde;
rightKerningGroup = h;
unicode = 00F1;
},
{
glyphname = o;
layers = (
{
hints = (
{
horizontal = 1;
place = "{-10.21, 524.21}";
type = Stem;
},
{
place = "{111, 230.73}";
type = Stem;
}
);
layerId = "0C1D5C58-AE70-45E1-B635-E72A3DDAF756";
paths = (
{
closed = 1;
nodes = (
"24 367 OFFCURVE",
"25 397 OFFCURVE",
"45 456 CURVE",
"64 497 OFFCURVE",
"132 514 OFFCURVE",
"195 514 CURVE",
"222 511 OFFCURVE",
"245 515 OFFCURVE",
"273 513 CURVE SMOOTH",
"316 509 OFFCURVE",
"356 497 OFFCURVE",
"384 470 CURVE",
"422 445 OFFCURVE",
"422 360 OFFCURVE",
"425 272 CURVE",
"422 194 OFFCURVE",
"419 63 OFFCURVE",
"393 37 CURVE",
"347 -28 OFFCURVE",
"238 -7 OFFCURVE",
"161 -7 CURVE",
"-12 23 OFFCURVE",
"35 209 OFFCURVE",
"24 325 CURVE"
);
},
{
closed = 1;
nodes = (
"166 413 OFFCURVE",
"143 401 OFFCURVE",
"130 385 CURVE SMOOTH",
"111 362 OFFCURVE",
"110 325 OFFCURVE",
"111 281 CURVE",
"110 250 OFFCURVE",
"113 210 OFFCURVE",
"115 160 CURVE SMOOTH",
"119 101 OFFCURVE",
"156 87 OFFCURVE",
"187 81 CURVE",
"240 73 OFFCURVE",
"317 76 OFFCURVE",
"333 138 CURVE",
"335 151 OFFCURVE",
"337 164 OFFCURVE",
"337 179 CURVE",
"342 274 OFFCURVE",
"371 440 OFFCURVE",
"199 418 CURVE SMOOTH"
);
}
);
width = 448;
}
);
leftKerningGroup = c;
note = o;
rightKerningGroup = o;
unicode = 006F;
},
{
glyphname = oacute;
layers = (
{
hints = (
{
horizontal = 1;
place = "{-10.21, 756.21}";
type = Stem;
},
{
place = "{111, 230.73}";
type = Stem;
}
);
layerId = "0C1D5C58-AE70-45E1-B635-E72A3DDAF756";
paths = (
{
closed = 1;
nodes = (
"265 595 OFFCURVE",
"362 687 OFFCURVE",
"371 693 CURVE",
"354 710 OFFCURVE",
"336 728 OFFCURVE",
"319 746 CURVE",
"279 709 OFFCURVE",
"207 630 OFFCURVE",
"160 587 CURVE",
"173 583 OFFCURVE",
"219 580 OFFCURVE",
"259 584 CURVE"
);
},
{
closed = 1;
nodes = (
"24 367 OFFCURVE",
"25 397 OFFCURVE",
"45 456 CURVE",
"64 497 OFFCURVE",
"132 514 OFFCURVE",
"195 514 CURVE",
"222 511 OFFCURVE",
"245 515 OFFCURVE",
"273 513 CURVE SMOOTH",
"316 509 OFFCURVE",
"356 497 OFFCURVE",
"384 470 CURVE",
"422 445 OFFCURVE",
"422 360 OFFCURVE",
"425 272 CURVE",
"422 194 OFFCURVE",
"419 63 OFFCURVE",
"393 37 CURVE",
"347 -28 OFFCURVE",
"238 -7 OFFCURVE",
"161 -7 CURVE",
"-12 23 OFFCURVE",
"35 209 OFFCURVE",
"24 325 CURVE"
);
},
{
closed = 1;
nodes = (
"166 413 OFFCURVE",
"143 401 OFFCURVE",
"130 385 CURVE SMOOTH",
"111 362 OFFCURVE",
"110 325 OFFCURVE",
"111 281 CURVE",
"110 250 OFFCURVE",
"113 210 OFFCURVE",
"115 160 CURVE SMOOTH",
"119 101 OFFCURVE",
"156 87 OFFCURVE",
"187 81 CURVE",
"240 73 OFFCURVE",
"317 76 OFFCURVE",
"333 138 CURVE",
"335 151 OFFCURVE",
"337 164 OFFCURVE",
"337 179 CURVE",
"342 274 OFFCURVE",
"371 440 OFFCURVE",
"199 418 CURVE SMOOTH"
);
}
);
width = 448;
}
);
leftKerningGroup = c;
note = oacute;
rightKerningGroup = o;
unicode = 00F3;
},
{
glyphname = ocircumflex;
layers = (
{
hints = (
{
horizontal = 1;
place = "{514, 79}";
type = Stem;
},
{
place = "{111, 230.73}";
type = Stem;
}
);
layerId = "0C1D5C58-AE70-45E1-B635-E72A3DDAF756";
paths = (
{
closed = 1;
nodes = (
"393 594 LINE",
"390 596 OFFCURVE",
"358 587 OFFCURVE",
"313 589 CURVE",
"309 589 OFFCURVE",
"298 600 OFFCURVE",
"280 618 CURVE SMOOTH",
"257 641 LINE",
"248 652 OFFCURVE",
"236 664 OFFCURVE",
"231 668 CURVE",
"224 664 OFFCURVE",
"173 598 OFFCURVE",
"153 591 CURVE",
"135 589 OFFCURVE",
"135 590 OFFCURVE",
"70 593 CURVE",
"124 661 OFFCURVE",
"170 698 OFFCURVE",
"231 756 CURVE"
);
},
{
closed = 1;
nodes = (
"24 367 OFFCURVE",
"25 397 OFFCURVE",
"45 456 CURVE",
"64 497 OFFCURVE",
"132 514 OFFCURVE",
"195 514 CURVE",
"222 511 OFFCURVE",
"245 515 OFFCURVE",
"273 513 CURVE SMOOTH",
"316 509 OFFCURVE",
"356 497 OFFCURVE",
"384 470 CURVE",
"422 445 OFFCURVE",
"422 360 OFFCURVE",
"425 272 CURVE",
"422 194 OFFCURVE",
"419 63 OFFCURVE",
"393 37 CURVE",
"347 -28 OFFCURVE",
"238 -7 OFFCURVE",
"161 -7 CURVE",
"-12 23 OFFCURVE",
"35 209 OFFCURVE",
"24 325 CURVE"
);
},
{
closed = 1;
nodes = (
"166 413 OFFCURVE",
"143 401 OFFCURVE",
"130 385 CURVE SMOOTH",
"111 362 OFFCURVE",
"110 325 OFFCURVE",
"111 281 CURVE",
"110 250 OFFCURVE",
"113 210 OFFCURVE",
"115 160 CURVE SMOOTH",
"119 101 OFFCURVE",
"156 87 OFFCURVE",
"187 81 CURVE",
"240 73 OFFCURVE",
"317 76 OFFCURVE",
"333 138 CURVE",
"335 151 OFFCURVE",
"337 164 OFFCURVE",
"337 179 CURVE",
"342 274 OFFCURVE",
"371 440 OFFCURVE",
"199 418 CURVE SMOOTH"
);
}
);
width = 448;
}
);
leftKerningGroup = c;
note = ocircumflex;
rightKerningGroup = o;
unicode = 00F4;
},
{
glyphname = odieresis;
layers = (
{
hints = (
{
horizontal = 1;
place = "{514, 122}";
type = Stem;
},
{
place = "{181, 79}";
type = Stem;
},
{
place = "{111, 230.73}";
type = Stem;
}
);
layerId = "0C1D5C58-AE70-45E1-B635-E72A3DDAF756";
paths = (
{
closed = 1;
nodes = (
"118 758 OFFCURVE",
"156 758 OFFCURVE",
"183 755 CURVE",
"183 748 OFFCURVE",
"181 686 OFFCURVE",
"181 658 CURVE SMOOTH",
"181 640 LINE",
"179 637 OFFCURVE",
"176 636 OFFCURVE",
"171 636 CURVE",
"150 633 OFFCURVE",
"118 638 OFFCURVE",
"92 637 CURVE",
"89 669 OFFCURVE",
"89 717 OFFCURVE",
"89 756 CURVE"
);
},
{
closed = 1;
nodes = (
"289 758 OFFCURVE",
"327 758 OFFCURVE",
"354 755 CURVE",
"354 748 OFFCURVE",
"352 686 OFFCURVE",
"352 658 CURVE SMOOTH",
"352 640 LINE",
"350 637 OFFCURVE",
"347 636 OFFCURVE",
"342 636 CURVE",
"321 633 OFFCURVE",
"289 638 OFFCURVE",
"263 637 CURVE",
"260 669 OFFCURVE",
"260 717 OFFCURVE",
"260 756 CURVE"
);
},
{
closed = 1;
nodes = (
"24 367 OFFCURVE",
"25 397 OFFCURVE",
"45 456 CURVE",
"64 497 OFFCURVE",
"132 514 OFFCURVE",
"195 514 CURVE",
"222 511 OFFCURVE",
"245 515 OFFCURVE",
"273 513 CURVE SMOOTH",
"316 509 OFFCURVE",
"356 497 OFFCURVE",
"384 470 CURVE",
"422 445 OFFCURVE",
"422 360 OFFCURVE",
"425 272 CURVE",
"422 194 OFFCURVE",
"419 63 OFFCURVE",
"393 37 CURVE",
"347 -28 OFFCURVE",
"238 -7 OFFCURVE",
"161 -7 CURVE",
"-12 23 OFFCURVE",
"35 209 OFFCURVE",
"24 325 CURVE"
);
},
{
closed = 1;
nodes = (
"166 413 OFFCURVE",
"143 401 OFFCURVE",
"130 385 CURVE SMOOTH",
"111 362 OFFCURVE",
"110 325 OFFCURVE",
"111 281 CURVE",
"110 250 OFFCURVE",
"113 210 OFFCURVE",
"115 160 CURVE SMOOTH",
"119 101 OFFCURVE",
"156 87 OFFCURVE",
"187 81 CURVE",
"240 73 OFFCURVE",
"317 76 OFFCURVE",
"333 138 CURVE",
"335 151 OFFCURVE",
"337 164 OFFCURVE",
"337 179 CURVE",
"342 274 OFFCURVE",
"371 440 OFFCURVE",
"199 418 CURVE SMOOTH"
);
}
);
width = 448;
}
);
leftKerningGroup = c;
note = odieresis;
rightKerningGroup = o;
unicode = 00F6;
},
{
glyphname = ograve;
layers = (
{
hints = (
{
horizontal = 1;
place = "{514, 70.81}";
type = Stem;
},
{
place = "{111, 230.73}";
type = Stem;
}
);
layerId = "0C1D5C58-AE70-45E1-B635-E72A3DDAF756";
paths = (
{
closed = 1;
nodes = (
"105 713 OFFCURVE",
"123 731 OFFCURVE",
"140 748 CURVE",
"179 712 OFFCURVE",
"253 633 OFFCURVE",
"299 590 CURVE",
"285 586 OFFCURVE",
"239 582 OFFCURVE",
"200 587 CURVE",
"193 598 OFFCURVE",
"97 691 OFFCURVE",
"88 695 CURVE"
);
},
{
closed = 1;
nodes = (
"24 367 OFFCURVE",
"25 397 OFFCURVE",
"45 456 CURVE",
"64 497 OFFCURVE",
"132 514 OFFCURVE",
"195 514 CURVE",
"222 511 OFFCURVE",
"245 515 OFFCURVE",
"273 513 CURVE SMOOTH",
"316 509 OFFCURVE",
"356 497 OFFCURVE",
"384 470 CURVE",
"422 445 OFFCURVE",
"422 360 OFFCURVE",
"425 272 CURVE",
"422 194 OFFCURVE",
"419 63 OFFCURVE",
"393 37 CURVE",
"347 -28 OFFCURVE",
"238 -7 OFFCURVE",
"161 -7 CURVE",
"-12 23 OFFCURVE",
"35 209 OFFCURVE",
"24 325 CURVE"
);
},
{
closed = 1;
nodes = (
"166 413 OFFCURVE",
"143 401 OFFCURVE",
"130 385 CURVE SMOOTH",
"111 362 OFFCURVE",
"110 325 OFFCURVE",
"111 281 CURVE",
"110 250 OFFCURVE",
"113 210 OFFCURVE",
"115 160 CURVE SMOOTH",
"119 101 OFFCURVE",
"156 87 OFFCURVE",
"187 81 CURVE",
"240 73 OFFCURVE",
"317 76 OFFCURVE",
"333 138 CURVE",
"335 151 OFFCURVE",
"337 164 OFFCURVE",
"337 179 CURVE",
"342 274 OFFCURVE",
"371 440 OFFCURVE",
"199 418 CURVE SMOOTH"
);
}
);
width = 448;
}
);
leftKerningGroup = c;
note = ograve;
rightKerningGroup = o;
unicode = 00F2;
},
{
glyphname = oslash;
layers = (
{
hints = (
{
horizontal = 1;
place = "{-2, 21}";
target = up;
type = BottomGhost;
},
{
horizontal = 1;
place = "{508, -20}";
target = down;
type = TopGhost;
},
{
place = "{27, 57}";
type = Stem;
},
{
place = "{271, 59}";
type = Stem;
},
{
horizontal = 1;
place = "{502, -20}";
target = down;
type = TopGhost;
},
{
place = "{224, 59}";
type = Stem;
},
{
horizontal = 1;
place = "{430, 65}";
type = Stem;
},
{
horizontal = 1;
place = "{-8, 59}";
type = Stem;
}
);
layerId = "0C1D5C58-AE70-45E1-B635-E72A3DDAF756";
paths = (
{
closed = 1;
nodes = (
"331 277 OFFCURVE",
"329 298 OFFCURVE",
"327 321 CURVE",
"326 368 OFFCURVE",
"316 423 OFFCURVE",
"283 454 CURVE",
"286 475 OFFCURVE",
"295 489 OFFCURVE",
"297 502 CURVE",
"284 509 OFFCURVE",
"254 504 OFFCURVE",
"231 508 CURVE",
"226 503 OFFCURVE",
"227 492 OFFCURVE",
"224 485 CURVE",
"204 491 OFFCURVE",
"188 496 OFFCURVE",
"165 495 CURVE",
"120 495 OFFCURVE",
"71 474 OFFCURVE",
"52 428 CURVE",
"34 397 OFFCURVE",
"31 360 OFFCURVE",
"27 325 CURVE SMOOTH",
"24 288 OFFCURVE",
"24 250 OFFCURVE",
"26 215 CURVE",
"27 152 OFFCURVE",
"31 94 OFFCURVE",
"57 41 CURVE",
"59 38 OFFCURVE",
"61 36 OFFCURVE",
"63 34 CURVE",
"57 17 OFFCURVE",
"46 -16 OFFCURVE",
"45 -23 CURVE",
"70 -23 OFFCURVE",
"99 -24 OFFCURVE",
"110 -21 CURVE",
"110 -21 OFFCURVE",
"110 -20 OFFCURVE",
"111 -19 CURVE",
"120 -2 LINE",
"134 -5 OFFCURVE",
"151 -7 OFFCURVE",
"170 -8 CURVE SMOOTH",
"241 -12 OFFCURVE",
"292 26 OFFCURVE",
"313 92 CURVE",
"328 146 OFFCURVE",
"331 204 OFFCURVE",
"330 257 CURVE"
);
},
{
closed = 1;
nodes = (
"145 246 OFFCURVE",
"134 230 OFFCURVE",
"98 123 CURVE",
"82 148 OFFCURVE",
"82 212 OFFCURVE",
"83 246 CURVE SMOOTH",
"85 310 LINE SMOOTH",
"87 341 OFFCURVE",
"90 428 OFFCURVE",
"178 430 CURVE",
"186 428 OFFCURVE",
"195 425 OFFCURVE",
"203 421 CURVE"
);
},
{
closed = 1;
nodes = (
"179 152 OFFCURVE",
"220 255 OFFCURVE",
"248 352 CURVE",
"277 282 OFFCURVE",
"273 230 OFFCURVE",
"271 191 CURVE SMOOTH",
"269 160 OFFCURVE",
"259 61 OFFCURVE",
"173 51 CURVE",
"161 52 OFFCURVE",
"152 54 OFFCURVE",
"144 58 CURVE"
);
}
);
width = 351;
}
);
leftKerningGroup = c;
note = oslash;
rightKerningGroup = o;
unicode = 00F8;
},
{
glyphname = otilde;
layers = (
{
hints = (
{
horizontal = 1;
place = "{514, 72}";
type = Stem;
},
{
place = "{111, 230.73}";
type = Stem;
}
);
layerId = "0C1D5C58-AE70-45E1-B635-E72A3DDAF756";
paths = (
{
closed = 1;
nodes = (
"103 590 LINE",
"93 592 OFFCURVE",
"75 593 OFFCURVE",
"59 593 CURVE SMOOTH",
"48 593 OFFCURVE",
"36 592 OFFCURVE",
"23 592 CURVE",
"31 620 OFFCURVE",
"57 693 OFFCURVE",
"83 721 CURVE SMOOTH",
"118 757 OFFCURVE",
"175 768 OFFCURVE",
"218 740 CURVE",
"246 720 OFFCURVE",
"264 638 OFFCURVE",
"313 652 CURVE SMOOTH",
"355 665 OFFCURVE",
"366 711 OFFCURVE",
"365 746 CURVE",
"384 747 OFFCURVE",
"404 747 OFFCURVE",
"424 748 CURVE",
"425 747 LINE",
"425 742 OFFCURVE",
"426 739 OFFCURVE",
"426 734 CURVE",
"431 672 OFFCURVE",
"397 597 OFFCURVE",
"331 586 CURVE SMOOTH",
"288 579 OFFCURVE",
"245 586 OFFCURVE",
"225 649 CURVE",
"211 683 OFFCURVE",
"197 692 OFFCURVE",
"172 689 CURVE SMOOTH",
"132 683 OFFCURVE",
"102 648 OFFCURVE",
"103 591 CURVE SMOOTH"
);
},
{
closed = 1;
nodes = (
"24 367 OFFCURVE",
"25 397 OFFCURVE",
"45 456 CURVE",
"64 497 OFFCURVE",
"132 514 OFFCURVE",
"195 514 CURVE",
"222 511 OFFCURVE",
"245 515 OFFCURVE",
"273 513 CURVE SMOOTH",
"316 509 OFFCURVE",
"356 497 OFFCURVE",
"384 470 CURVE",
"422 445 OFFCURVE",
"422 360 OFFCURVE",
"425 272 CURVE",
"422 194 OFFCURVE",
"419 63 OFFCURVE",
"393 37 CURVE",
"347 -28 OFFCURVE",
"238 -7 OFFCURVE",
"161 -7 CURVE",
"-12 23 OFFCURVE",
"35 209 OFFCURVE",
"24 325 CURVE"
);
},
{
closed = 1;
nodes = (
"166 413 OFFCURVE",
"143 401 OFFCURVE",
"130 385 CURVE SMOOTH",
"111 362 OFFCURVE",
"110 325 OFFCURVE",
"111 281 CURVE",
"110 250 OFFCURVE",
"113 210 OFFCURVE",
"115 160 CURVE SMOOTH",
"119 101 OFFCURVE",
"156 87 OFFCURVE",
"187 81 CURVE",
"240 73 OFFCURVE",
"317 76 OFFCURVE",
"333 138 CURVE",
"335 151 OFFCURVE",
"337 164 OFFCURVE",
"337 179 CURVE",
"342 274 OFFCURVE",
"371 440 OFFCURVE",
"199 418 CURVE SMOOTH"
);
}
);
width = 448;
}
);
leftKerningGroup = c;
note = otilde;
rightKerningGroup = o;
unicode = 00F5;
},
{
glyphname = oe;
layers = (
{
hints = (
{
horizontal = 1;
place = "{191.66, 54.34}";
type = Stem;
},
{
horizontal = 1;
place = "{301.18, 139.82}";
type = Stem;
},
{
place = "{84, 206}";
type = Stem;
}
);
layerId = "0C1D5C58-AE70-45E1-B635-E72A3DDAF756";
paths = (
{
closed = 1;
nodes = (
"475 -2 OFFCURVE",
"463 -1 OFFCURVE",
"452 -1 CURVE",
"392 9 OFFCURVE",
"369 45 OFFCURVE",
"356 57 CURVE",
"318 -12 OFFCURVE",
"209 0 OFFCURVE",
"151 0 CURVE",
"31 13 OFFCURVE",
"13 157 OFFCURVE",
"14 264 CURVE SMOOTH",
"14 284 OFFCURVE",
"15 305 OFFCURVE",
"16 323 CURVE",
"25 390 OFFCURVE",
"47 495 OFFCURVE",
"178 497 CURVE",
"196 496 OFFCURVE",
"215 499 OFFCURVE",
"238 497 CURVE",
"279 496 OFFCURVE",
"333 488 OFFCURVE",
"355 451 CURVE",
"418 501 OFFCURVE",
"491 506 OFFCURVE",
"560 496 CURVE SMOOTH",
"668 477 OFFCURVE",
"692 367 OFFCURVE",
"684 256 CURVE",
"657 249 OFFCURVE",
"561 243 OFFCURVE",
"459 246 CURVE SMOOTH",
"405 247 OFFCURVE",
"390 248 OFFCURVE",
"377 250 CURVE",
"377 233 LINE SMOOTH",
"378 198 OFFCURVE",
"368 66 OFFCURVE",
"480 63 CURVE SMOOTH",
"618 59 OFFCURVE",
"613 113 OFFCURVE",
"614 188 CURVE",
"632 181 OFFCURVE",
"661 198 OFFCURVE",
"682 189 CURVE",
"677 122 OFFCURVE",
"673 51 OFFCURVE",
"654 36 CURVE",
"631 2 OFFCURVE",
"563 -11 OFFCURVE",
"488 -3 CURVE SMOOTH"
);
},
{
closed = 1;
nodes = (
"614 325 LINE",
"613 362 OFFCURVE",
"596 406 OFFCURVE",
"558 430 CURVE",
"538 439 OFFCURVE",
"527 441 OFFCURVE",
"506 441 CURVE SMOOTH",
"413 441 OFFCURVE",
"390 395 OFFCURVE",
"382 339 CURVE SMOOTH",
"376 298 OFFCURVE",
"394 297 OFFCURVE",
"580 305 CURVE SMOOTH",
"614 306 OFFCURVE",
"614 304 OFFCURVE",
"614 320 CURVE SMOOTH"
);
},
{
closed = 1;
nodes = (
"134 421 OFFCURVE",
"112 405 OFFCURVE",
"102 383 CURVE",
"86 356 OFFCURVE",
"83 320 OFFCURVE",
"84 281 CURVE SMOOTH",
"85 209 OFFCURVE",
"82 73 OFFCURVE",
"176 65 CURVE SMOOTH",
"226 60 OFFCURVE",
"293 73 OFFCURVE",
"301 129 CURVE",
"294 177 OFFCURVE",
"288 239 OFFCURVE",
"290 289 CURVE SMOOTH",
"292 336 OFFCURVE",
"290 384 OFFCURVE",
"298 409 CURVE",
"289 421 OFFCURVE",
"274 426 OFFCURVE",
"252 428 CURVE",
"224 434 OFFCURVE",
"197 434 OFFCURVE",
"170 430 CURVE"
);
}
);
width = 703;
}
);
leftKerningGroup = c;
note = oe;
rightKerningGroup = ae;
unicode = 0153;
},
{
glyphname = p;
layers = (
{
hints = (
{
horizontal = 1;
place = "{-207.12, 706.87}";
type = Stem;
},
{
place = "{33.82, 409.18}";
type = Stem;
},
{
place = "{124, 243}";
type = Stem;
}
);
layerId = "0C1D5C58-AE70-45E1-B635-E72A3DDAF756";
paths = (
{
closed = 1;
nodes = (
"126 -202 LINE SMOOTH",
"126 -207 OFFCURVE",
"73 -210 OFFCURVE",
"41 -204 CURVE",
"41 -138 LINE SMOOTH",
"41 84 OFFCURVE",
"30 307 OFFCURVE",
"35 499 CURVE",
"66 499 OFFCURVE",
"102 501 OFFCURVE",
"129 499 CURVE",
"131 497 OFFCURVE",
"130 491 OFFCURVE",
"131 475 CURVE",
"131 467 OFFCURVE",
"132 462 OFFCURVE",
"131 452 CURVE",
"132 446 OFFCURVE",
"136 445 OFFCURVE",
"141 455 CURVE",
"172 496 OFFCURVE",
"239 501 OFFCURVE",
"275 497 CURVE",
"422 486 OFFCURVE",
"440 359 OFFCURVE",
"443 215 CURVE SMOOTH",
"443 122 OFFCURVE",
"421 33 OFFCURVE",
"362 12 CURVE SMOOTH",
"344 5 OFFCURVE",
"323 1 OFFCURVE",
"302 -1 CURVE SMOOTH",
"232 -7 OFFCURVE",
"132 7 OFFCURVE",
"129 26 CURVE",
"133 -162 OFFCURVE",
"130 -112 OFFCURVE",
"126 -191 CURVE"
);
},
{
closed = 1;
nodes = (
"297 75 OFFCURVE",
"336 78 OFFCURVE",
"359 154 CURVE",
"366 188 OFFCURVE",
"368 216 OFFCURVE",
"367 237 CURVE SMOOTH",
"365 314 OFFCURVE",
"345 426 OFFCURVE",
"229 417 CURVE SMOOTH",
"129 408 OFFCURVE",
"124 340 OFFCURVE",
"124 227 CURVE SMOOTH",
"124 92 OFFCURVE",
"134 75 OFFCURVE",
"217 75 CURVE SMOOTH"
);
}
);
width = 464;
}
);
leftKerningGroup = m;
note = p;
rightKerningGroup = p;
unicode = 0070;
},
{
glyphname = thorn;
layers = (
{
hints = (
{
horizontal = 1;
place = "{-174, 889}";
type = Stem;
},
{
place = "{32, 415}";
type = Stem;
},
{
place = "{135, 227}";
type = Stem;
}
);
layerId = "0C1D5C58-AE70-45E1-B635-E72A3DDAF756";
paths = (
{
closed = 1;
nodes = (
"182 14 OFFCURVE",
"150 37 OFFCURVE",
"132 79 CURVE",
"134 38 OFFCURVE",
"135 -5 OFFCURVE",
"134 -54 CURVE SMOOTH",
"134 -122 OFFCURVE",
"134 -142 OFFCURVE",
"135 -170 CURVE",
"123 -177 OFFCURVE",
"55 -170 OFFCURVE",
"32 -174 CURVE",
"34 -41 OFFCURVE",
"34 71 OFFCURVE",
"34 154 CURVE SMOOTH",
"35 346 OFFCURVE",
"37 544 OFFCURVE",
"41 715 CURVE",
"74 716 OFFCURVE",
"112 714 OFFCURVE",
"135 713 CURVE",
"135 683 LINE",
"136 663 OFFCURVE",
"136 660 OFFCURVE",
"136 649 CURVE",
"137 633 OFFCURVE",
"136 605 OFFCURVE",
"136 581 CURVE SMOOTH",
"136 548 OFFCURVE",
"136 500 OFFCURVE",
"135 438 CURVE",
"146 467 OFFCURVE",
"187 500 OFFCURVE",
"248 500 CURVE SMOOTH",
"391 498 OFFCURVE",
"447 427 OFFCURVE",
"447 275 CURVE SMOOTH",
"445 168 OFFCURVE",
"419 33 OFFCURVE",
"327 11 CURVE",
"299 1 OFFCURVE",
"265 0 OFFCURVE",
"220 7 CURVE SMOOTH"
);
},
{
closed = 1;
nodes = (
"362 254 OFFCURVE",
"361 270 OFFCURVE",
"358 286 CURVE",
"352 338 OFFCURVE",
"348 407 OFFCURVE",
"226 407 CURVE SMOOTH",
"147 407 OFFCURVE",
"135 347 OFFCURVE",
"135 250 CURVE SMOOTH",
"135 174 OFFCURVE",
"157 90 OFFCURVE",
"237 90 CURVE SMOOTH",
"318 90 OFFCURVE",
"362 135 OFFCURVE",
"362 239 CURVE SMOOTH"
);
}
);
width = 470;
}
);
note = thorn;
rightKerningGroup = thorn;
unicode = 00FE;
},
{
glyphname = q;
layers = (
{
hints = (
{
horizontal = 1;
place = "{-1, 76}";
type = Stem;
},
{
horizontal = 1;
place = "{417, 80}";
type = Stem;
},
{
place = "{20, 76}";
type = Stem;
},
{
place = "{337, 85}";
type = Stem;
}
);
layerId = "0C1D5C58-AE70-45E1-B635-E72A3DDAF756";
paths = (
{
closed = 1;
nodes = (
"330 -162 OFFCURVE",
"333 -112 OFFCURVE",
"337 -191 CURVE",
"337 -202 LINE SMOOTH",
"337 -207 OFFCURVE",
"390 -210 OFFCURVE",
"422 -204 CURVE",
"422 -138 LINE SMOOTH",
"422 84 OFFCURVE",
"433 307 OFFCURVE",
"428 499 CURVE",
"397 499 OFFCURVE",
"361 501 OFFCURVE",
"334 499 CURVE",
"332 497 OFFCURVE",
"333 491 OFFCURVE",
"332 475 CURVE",
"332 467 OFFCURVE",
"331 462 OFFCURVE",
"331 452 CURVE",
"328 459 OFFCURVE",
"306 474 OFFCURVE",
"287 483 CURVE SMOOTH",
"254 499 OFFCURVE",
"216 501 OFFCURVE",
"188 497 CURVE",
"44 487 OFFCURVE",
"20 360 OFFCURVE",
"20 215 CURVE SMOOTH",
"20 122 OFFCURVE",
"42 33 OFFCURVE",
"101 12 CURVE SMOOTH",
"119 5 OFFCURVE",
"140 1 OFFCURVE",
"161 -1 CURVE SMOOTH",
"233 -7 OFFCURVE",
"331 7 OFFCURVE",
"334 26 CURVE"
);
},
{
closed = 1;
nodes = (
"165 75 OFFCURVE",
"127 77 OFFCURVE",
"104 154 CURVE",
"97 188 OFFCURVE",
"95 216 OFFCURVE",
"96 237 CURVE SMOOTH",
"99 318 OFFCURVE",
"119 426 OFFCURVE",
"234 417 CURVE SMOOTH",
"334 408 OFFCURVE",
"339 340 OFFCURVE",
"339 227 CURVE SMOOTH",
"339 92 OFFCURVE",
"328 75 OFFCURVE",
"246 75 CURVE SMOOTH"
);
}
);
width = 463;
}
);
leftKerningGroup = q;
note = q;
rightKerningGroup = a;
unicode = 0071;
},
{
glyphname = r;
layers = (
{
hints = (
{
horizontal = 1;
place = "{-3.25, 501.82}";
type = Stem;
},
{
place = "{35.04, 277.96}";
type = Stem;
}
);
layerId = "0C1D5C58-AE70-45E1-B635-E72A3DDAF756";
paths = (
{
closed = 1;
nodes = (
"127 475 OFFCURVE",
"128 481 OFFCURVE",
"128 463 CURVE",
"133 466 OFFCURVE",
"156 476 OFFCURVE",
"175 482 CURVE SMOOTH",
"226 499 OFFCURVE",
"313 499 OFFCURVE",
"313 495 CURVE SMOOTH",
"313 441 OFFCURVE",
"311 411 OFFCURVE",
"313 382 CURVE",
"301 387 OFFCURVE",
"291 390 OFFCURVE",
"279 393 CURVE",
"233 402 OFFCURVE",
"205 398 OFFCURVE",
"170 390 CURVE SMOOTH",
"135 381 OFFCURVE",
"122 370 OFFCURVE",
"123 316 CURVE SMOOTH",
"126 213 OFFCURVE",
"127 112 OFFCURVE",
"127 5 CURVE SMOOTH",
"127 1 LINE",
"98 -7 OFFCURVE",
"79 -1 OFFCURVE",
"38 -3 CURVE",
"38 161 OFFCURVE",
"32 322 OFFCURVE",
"37 498 CURVE",
"57 496 OFFCURVE",
"127 501 OFFCURVE",
"127 497 CURVE SMOOTH"
);
}
);
width = 339;
}
);
leftKerningGroup = m;
note = r;
rightKerningGroup = r;
unicode = 0072;
},
{
glyphname = s;
layers = (
{
hints = (
{
horizontal = 1;
place = "{68, 152.55}";
type = Stem;
},
{
horizontal = 1;
place = "{283, 160.19}";
type = Stem;
},
{
place = "{11, 423}";
type = Stem;
}
);
layerId = "0C1D5C58-AE70-45E1-B635-E72A3DDAF756";
paths = (
{
closed = 1;
nodes = (
"434 361 OFFCURVE",
"343 368 OFFCURVE",
"332 366 CURVE",
"331 370 OFFCURVE",
"339 433 OFFCURVE",
"274 441 CURVE SMOOTH",
"222 447 OFFCURVE",
"169 440 OFFCURVE",
"151 428 CURVE",
"125 407 OFFCURVE",
"119 357 OFFCURVE",
"128 343 CURVE",
"138 322 OFFCURVE",
"151 314 OFFCURVE",
"157 311 CURVE",
"169 302 OFFCURVE",
"234 284 OFFCURVE",
"273 283 CURVE SMOOTH",
"329 282 OFFCURVE",
"372 265 OFFCURVE",
"395 239 CURVE",
"433 192 OFFCURVE",
"440 147 OFFCURVE",
"415 74 CURVE",
"384 9 OFFCURVE",
"313 -17 OFFCURVE",
"236 -16 CURVE",
"102 -21 OFFCURVE",
"11 45 OFFCURVE",
"11 152 CURVE SMOOTH",
"11 157 LINE",
"29 159 OFFCURVE",
"102 160 OFFCURVE",
"106 156 CURVE SMOOTH",
"115 147 OFFCURVE",
"115 74 OFFCURVE",
"196 68 CURVE SMOOTH",
"251 64 OFFCURVE",
"259 66 OFFCURVE",
"288 80 CURVE SMOOTH",
"317 93 OFFCURVE",
"339 114 OFFCURVE",
"338 147 CURVE",
"342 241 OFFCURVE",
"198 210 OFFCURVE",
"129 240 CURVE",
"60 263 OFFCURVE",
"25 313 OFFCURVE",
"22 366 CURVE SMOOTH",
"19 428 OFFCURVE",
"55 491 OFFCURVE",
"125 509 CURVE SMOOTH",
"160 518 OFFCURVE",
"217 522 OFFCURVE",
"275 518 CURVE SMOOTH",
"303 516 OFFCURVE",
"330 511 OFFCURVE",
"355 503 CURVE",
"401 483 OFFCURVE",
"434 430 OFFCURVE",
"434 370 CURVE SMOOTH"
);
}
);
width = 450;
}
);
leftKerningGroup = s;
note = s;
rightKerningGroup = s;
unicode = 0073;
},
{
glyphname = scaron;
layers = (
{
hints = (
{
horizontal = 1;
place = "{68, 152.55}";
type = Stem;
},
{
horizontal = 1;
place = "{283, 160.19}";
type = Stem;
},
{
place = "{-24, 423}";
type = Stem;
}
);
layerId = "0C1D5C58-AE70-45E1-B635-E72A3DDAF756";
paths = (
{
closed = 1;
nodes = (
"380 720 LINE",
"377 718 OFFCURVE",
"344 727 OFFCURVE",
"300 725 CURVE",
"295 725 OFFCURVE",
"251 681 OFFCURVE",
"244 673 CURVE SMOOTH",
"234 662 OFFCURVE",
"223 650 OFFCURVE",
"217 647 CURVE",
"210 649 OFFCURVE",
"159 716 OFFCURVE",
"139 723 CURVE",
"121 725 OFFCURVE",
"121 724 OFFCURVE",
"57 721 CURVE",
"110 653 OFFCURVE",
"157 615 OFFCURVE",
"218 559 CURVE"
);
},
{
closed = 1;
nodes = (
"399 361 OFFCURVE",
"308 368 OFFCURVE",
"297 366 CURVE",
"296 370 OFFCURVE",
"304 433 OFFCURVE",
"239 441 CURVE SMOOTH",
"187 447 OFFCURVE",
"134 440 OFFCURVE",
"116 428 CURVE",
"90 407 OFFCURVE",
"84 357 OFFCURVE",
"93 343 CURVE",
"103 322 OFFCURVE",
"116 314 OFFCURVE",
"122 311 CURVE",
"134 302 OFFCURVE",
"199 284 OFFCURVE",
"238 283 CURVE SMOOTH",
"294 282 OFFCURVE",
"337 265 OFFCURVE",
"360 239 CURVE",
"398 192 OFFCURVE",
"405 147 OFFCURVE",
"380 74 CURVE",
"349 9 OFFCURVE",
"278 -17 OFFCURVE",
"201 -16 CURVE",
"67 -21 OFFCURVE",
"-24 45 OFFCURVE",
"-24 152 CURVE SMOOTH",
"-24 157 LINE",
"-6 159 OFFCURVE",
"67 160 OFFCURVE",
"71 156 CURVE SMOOTH",
"80 147 OFFCURVE",
"80 74 OFFCURVE",
"161 68 CURVE SMOOTH",
"216 64 OFFCURVE",
"224 66 OFFCURVE",
"253 80 CURVE SMOOTH",
"282 93 OFFCURVE",
"304 114 OFFCURVE",
"303 147 CURVE",
"307 241 OFFCURVE",
"163 210 OFFCURVE",
"94 240 CURVE",
"25 263 OFFCURVE",
"-10 313 OFFCURVE",
"-13 366 CURVE SMOOTH",
"-16 428 OFFCURVE",
"20 491 OFFCURVE",
"90 509 CURVE SMOOTH",
"125 518 OFFCURVE",
"182 522 OFFCURVE",
"240 518 CURVE SMOOTH",
"268 516 OFFCURVE",
"295 511 OFFCURVE",
"320 503 CURVE",
"366 483 OFFCURVE",
"399 430 OFFCURVE",
"399 370 CURVE SMOOTH"
);
}
);
width = 450;
}
);
leftKerningGroup = s;
note = scaron;
rightKerningGroup = s;
unicode = 0161;
},
{
glyphname = germandbls;
layers = (
{
hints = (
{
horizontal = 1;
place = "{-1.6, 716.32}";
type = Stem;
},
{
place = "{125, 93}";
type = Stem;
}
);
layerId = "0C1D5C58-AE70-45E1-B635-E72A3DDAF756";
paths = (
{
closed = 1;
nodes = (
"294 305 OFFCURVE",
"276 328 OFFCURVE",
"259 345 CURVE",
"277 372 OFFCURVE",
"295 395 OFFCURVE",
"313 415 CURVE SMOOTH",
"349 457 OFFCURVE",
"355 496 OFFCURVE",
"340 533 CURVE SMOOTH",
"316 589 OFFCURVE",
"257 614 OFFCURVE",
"172 610 CURVE SMOOTH",
"147 609 OFFCURVE",
"131 606 OFFCURVE",
"122 602 CURVE",
"121 584 OFFCURVE",
"120 555 OFFCURVE",
"120 515 CURVE SMOOTH",
"120 439 OFFCURVE",
"125 366 OFFCURVE",
"125 331 CURVE SMOOTH",
"126 248 OFFCURVE",
"128 262 OFFCURVE",
"130 94 CURVE SMOOTH",
"131 31 OFFCURVE",
"128 -1 OFFCURVE",
"121 0 CURVE",
"79 0 OFFCURVE",
"46 -1 OFFCURVE",
"38 3 CURVE",
"30 235 OFFCURVE",
"39 460 OFFCURVE",
"35 692 CURVE",
"36 693 LINE",
"196 737 OFFCURVE",
"433 732 OFFCURVE",
"433 508 CURVE SMOOTH",
"433 452 OFFCURVE",
"411 397 OFFCURVE",
"384 352 CURVE SMOOTH",
"379 343 OFFCURVE",
"382 339 OFFCURVE",
"389 331 CURVE",
"431 279 OFFCURVE",
"472 231 OFFCURVE",
"457 145 CURVE SMOOTH",
"434 17 OFFCURVE",
"331 -9 OFFCURVE",
"224 0 CURVE",
"217 19 OFFCURVE",
"216 49 OFFCURVE",
"221 89 CURVE",
"231 96 OFFCURVE",
"243 99 OFFCURVE",
"257 100 CURVE SMOOTH",
"369 106 OFFCURVE",
"367 226 OFFCURVE",
"316 282 CURVE SMOOTH"
);
}
);
width = 470;
}
);
note = germandbls;
rightKerningGroup = germandbls;
unicode = 00DF;
},
{
glyphname = t;
layers = (
{
hints = (
{
horizontal = 1;
place = "{-1.25, 687.94}";
type = Stem;
},
{
place = "{12, 365.5}";
type = Stem;
}
);
layerId = "0C1D5C58-AE70-45E1-B635-E72A3DDAF756";
paths = (
{
closed = 1;
nodes = (
"207 532 LINE SMOOTH",
"207 515 OFFCURVE",
"208 496 OFFCURVE",
"208 476 CURVE",
"249 477 OFFCURVE",
"298 479 OFFCURVE",
"369 483 CURVE",
"380 467 OFFCURVE",
"372 428 OFFCURVE",
"373 398 CURVE",
"318 398 OFFCURVE",
"264 398 OFFCURVE",
"210 399 CURVE",
"210 246 LINE SMOOTH",
"210 163 OFFCURVE",
"209 137 OFFCURVE",
"220 115 CURVE",
"245 83 OFFCURVE",
"351 86 OFFCURVE",
"373 87 CURVE",
"377 60 OFFCURVE",
"381 25 OFFCURVE",
"373 0 CURVE",
"344 -1 OFFCURVE",
"312 -2 OFFCURVE",
"277 -1 CURVE SMOOTH",
"201 3 OFFCURVE",
"144 21 OFFCURVE",
"129 94 CURVE",
"119 187 OFFCURVE",
"117 286 OFFCURVE",
"118 395 CURVE",
"100 393 OFFCURVE",
"36 395 OFFCURVE",
"12 395 CURVE",
"15 477 LINE",
"37 475 OFFCURVE",
"103 475 OFFCURVE",
"120 475 CURVE",
"120 501 OFFCURVE",
"119 545 OFFCURVE",
"119 580 CURVE SMOOTH",
"119 621 OFFCURVE",
"118 658 OFFCURVE",
"121 686 CURVE",
"150 689 OFFCURVE",
"178 682 OFFCURVE",
"207 685 CURVE"
);
}
);
width = 387;
}
);
leftKerningGroup = t;
note = t;
rightKerningGroup = t;
unicode = 0074;
},
{
glyphname = u;
layers = (
{
hints = (
{
horizontal = 1;
place = "{-2.75, 505.75}";
type = Stem;
},
{
place = "{119, 207}";
type = Stem;
}
);
layerId = "0C1D5C58-AE70-45E1-B635-E72A3DDAF756";
paths = (
{
closed = 1;
nodes = (
"324 25 OFFCURVE",
"325 39 OFFCURVE",
"324 53 CURVE",
"317 49 OFFCURVE",
"301 34 OFFCURVE",
"263 25 CURVE",
"181 -4 OFFCURVE",
"98 -6 OFFCURVE",
"57 34 CURVE",
"29 59 OFFCURVE",
"32 133 OFFCURVE",
"31 229 CURVE",
"33 322 OFFCURVE",
"38 429 OFFCURVE",
"34 498 CURVE",
"64 501 OFFCURVE",
"86 500 OFFCURVE",
"116 500 CURVE",
"121 444 OFFCURVE",
"116 358 OFFCURVE",
"119 290 CURVE SMOOTH",
"120 265 OFFCURVE",
"120 225 OFFCURVE",
"123 178 CURVE SMOOTH",
"126 133 OFFCURVE",
"140 113 OFFCURVE",
"171 105 CURVE",
"275 88 OFFCURVE",
"330 140 OFFCURVE",
"331 221 CURVE SMOOTH",
"332 269 OFFCURVE",
"327 367 OFFCURVE",
"326 415 CURVE",
"326 441 OFFCURVE",
"327 467 OFFCURVE",
"328 492 CURVE",
"328 496 LINE",
"357 504 OFFCURVE",
"371 500 OFFCURVE",
"412 503 CURVE",
"412 339 OFFCURVE",
"418 178 OFFCURVE",
"413 2 CURVE",
"389 2 OFFCURVE",
"382 1 OFFCURVE",
"364 -1 CURVE",
"355 -1 OFFCURVE",
"326 -6 OFFCURVE",
"326 0 CURVE"
);
}
);
width = 450;
}
);
leftKerningGroup = u;
note = u;
rightKerningGroup = a;
unicode = 0075;
},
{
glyphname = uacute;
layers = (
{
hints = (
{
horizontal = 1;
place = "{-2.75, 748.75}";
type = Stem;
},
{
place = "{119, 207}";
type = Stem;
}
);
layerId = "0C1D5C58-AE70-45E1-B635-E72A3DDAF756";
paths = (
{
closed = 1;
nodes = (
"265 595 OFFCURVE",
"362 687 OFFCURVE",
"371 693 CURVE",
"354 710 OFFCURVE",
"336 728 OFFCURVE",
"319 746 CURVE",
"279 709 OFFCURVE",
"207 630 OFFCURVE",
"160 587 CURVE",
"173 583 OFFCURVE",
"219 580 OFFCURVE",
"259 584 CURVE"
);
},
{
closed = 1;
nodes = (
"324 25 OFFCURVE",
"325 39 OFFCURVE",
"324 53 CURVE",
"317 49 OFFCURVE",
"301 34 OFFCURVE",
"263 25 CURVE",
"181 -4 OFFCURVE",
"98 -6 OFFCURVE",
"57 34 CURVE",
"29 59 OFFCURVE",
"32 133 OFFCURVE",
"31 229 CURVE",
"32 323 OFFCURVE",
"38 430 OFFCURVE",
"34 498 CURVE",
"64 501 OFFCURVE",
"86 500 OFFCURVE",
"116 500 CURVE",
"121 444 OFFCURVE",
"116 358 OFFCURVE",
"119 290 CURVE SMOOTH",
"120 265 OFFCURVE",
"120 225 OFFCURVE",
"123 178 CURVE SMOOTH",
"126 133 OFFCURVE",
"140 113 OFFCURVE",
"171 105 CURVE",
"275 88 OFFCURVE",
"330 140 OFFCURVE",
"331 221 CURVE SMOOTH",
"332 269 OFFCURVE",
"327 367 OFFCURVE",
"326 415 CURVE",
"326 441 OFFCURVE",
"327 467 OFFCURVE",
"328 492 CURVE",
"328 496 LINE",
"357 504 OFFCURVE",
"371 500 OFFCURVE",
"412 503 CURVE",
"412 339 OFFCURVE",
"418 178 OFFCURVE",
"413 2 CURVE",
"389 2 OFFCURVE",
"382 1 OFFCURVE",
"364 -1 CURVE",
"355 -1 OFFCURVE",
"326 -6 OFFCURVE",
"326 0 CURVE"
);
}
);
width = 449;
}
);
leftKerningGroup = u;
note = uacute;
rightKerningGroup = a;
unicode = 00FA;
},
{
glyphname = ucircumflex;
layers = (
{
hints = (
{
horizontal = 1;
place = "{500, 95}";
type = Stem;
},
{
place = "{119, 207}";
type = Stem;
},
{
horizontal = 1;
place = "{503, 88}";
type = Stem;
}
);
layerId = "0C1D5C58-AE70-45E1-B635-E72A3DDAF756";
paths = (
{
closed = 1;
nodes = (
"392 596 LINE",
"389 598 OFFCURVE",
"357 589 OFFCURVE",
"312 591 CURVE",
"308 591 OFFCURVE",
"297 602 OFFCURVE",
"279 620 CURVE SMOOTH",
"256 642 LINE",
"247 654 OFFCURVE",
"235 666 OFFCURVE",
"230 669 CURVE",
"223 666 OFFCURVE",
"172 599 OFFCURVE",
"152 593 CURVE",
"134 591 OFFCURVE",
"134 592 OFFCURVE",
"69 595 CURVE",
"123 663 OFFCURVE",
"169 700 OFFCURVE",
"230 757 CURVE"
);
},
{
closed = 1;
nodes = (
"324 25 OFFCURVE",
"325 39 OFFCURVE",
"324 53 CURVE",
"317 49 OFFCURVE",
"301 34 OFFCURVE",
"263 25 CURVE",
"181 -4 OFFCURVE",
"98 -6 OFFCURVE",
"57 34 CURVE",
"29 59 OFFCURVE",
"32 133 OFFCURVE",
"31 229 CURVE",
"32 323 OFFCURVE",
"38 430 OFFCURVE",
"34 498 CURVE",
"64 501 OFFCURVE",
"86 500 OFFCURVE",
"116 500 CURVE",
"121 444 OFFCURVE",
"116 358 OFFCURVE",
"119 290 CURVE SMOOTH",
"120 265 OFFCURVE",
"120 225 OFFCURVE",
"123 178 CURVE SMOOTH",
"126 133 OFFCURVE",
"140 113 OFFCURVE",
"171 105 CURVE",
"275 88 OFFCURVE",
"330 140 OFFCURVE",
"331 221 CURVE SMOOTH",
"332 269 OFFCURVE",
"327 367 OFFCURVE",
"326 415 CURVE",
"326 441 OFFCURVE",
"327 467 OFFCURVE",
"328 492 CURVE",
"328 496 LINE",
"357 504 OFFCURVE",
"371 500 OFFCURVE",
"412 503 CURVE",
"412 339 OFFCURVE",
"418 178 OFFCURVE",
"413 2 CURVE",
"389 2 OFFCURVE",
"382 1 OFFCURVE",
"364 -1 CURVE",
"355 -1 OFFCURVE",
"326 -6 OFFCURVE",
"326 0 CURVE"
);
}
);
width = 450;
}
);
leftKerningGroup = u;
note = ucircumflex;
rightKerningGroup = a;
unicode = 00FB;
},
{
glyphname = udieresis;
layers = (
{
hints = (
{
horizontal = 1;
place = "{500, 136}";
type = Stem;
},
{
place = "{182, 78}";
type = Stem;
},
{
horizontal = 1;
place = "{503, 133}";
type = Stem;
},
{
place = "{119, 207}";
type = Stem;
}
);
layerId = "0C1D5C58-AE70-45E1-B635-E72A3DDAF756";
paths = (
{
closed = 1;
nodes = (
"117 758 OFFCURVE",
"155 758 OFFCURVE",
"182 755 CURVE",
"182 748 OFFCURVE",
"180 686 OFFCURVE",
"181 658 CURVE",
"181 640 LINE",
"179 637 OFFCURVE",
"175 636 OFFCURVE",
"170 636 CURVE",
"149 633 OFFCURVE",
"118 638 OFFCURVE",
"92 637 CURVE",
"91 637 LINE",
"89 669 OFFCURVE",
"88 717 OFFCURVE",
"89 756 CURVE"
);
},
{
closed = 1;
nodes = (
"288 758 OFFCURVE",
"326 758 OFFCURVE",
"353 755 CURVE",
"353 748 OFFCURVE",
"351 686 OFFCURVE",
"352 658 CURVE",
"352 640 LINE",
"350 637 OFFCURVE",
"346 636 OFFCURVE",
"341 636 CURVE",
"320 633 OFFCURVE",
"289 638 OFFCURVE",
"263 637 CURVE",
"262 637 LINE",
"260 669 OFFCURVE",
"259 717 OFFCURVE",
"260 756 CURVE"
);
},
{
closed = 1;
nodes = (
"324 25 OFFCURVE",
"325 39 OFFCURVE",
"324 53 CURVE",
"317 49 OFFCURVE",
"301 34 OFFCURVE",
"263 25 CURVE",
"181 -4 OFFCURVE",
"98 -6 OFFCURVE",
"57 34 CURVE",
"29 59 OFFCURVE",
"32 133 OFFCURVE",
"31 229 CURVE",
"32 323 OFFCURVE",
"38 430 OFFCURVE",
"34 498 CURVE",
"64 501 OFFCURVE",
"86 500 OFFCURVE",
"116 500 CURVE",
"121 444 OFFCURVE",
"116 358 OFFCURVE",
"119 290 CURVE SMOOTH",
"120 265 OFFCURVE",
"120 225 OFFCURVE",
"123 178 CURVE SMOOTH",
"126 133 OFFCURVE",
"140 113 OFFCURVE",
"171 105 CURVE",
"275 88 OFFCURVE",
"330 140 OFFCURVE",
"331 221 CURVE SMOOTH",
"332 269 OFFCURVE",
"327 367 OFFCURVE",
"326 415 CURVE",
"326 441 OFFCURVE",
"327 467 OFFCURVE",
"328 492 CURVE",
"328 496 LINE",
"357 504 OFFCURVE",
"371 500 OFFCURVE",
"412 503 CURVE",
"412 339 OFFCURVE",
"418 178 OFFCURVE",
"413 2 CURVE",
"389 2 OFFCURVE",
"382 1 OFFCURVE",
"364 -1 CURVE",
"355 -1 OFFCURVE",
"326 -6 OFFCURVE",
"326 0 CURVE"
);
}
);
width = 449;
}
);
leftKerningGroup = u;
note = udieresis;
rightKerningGroup = a;
unicode = 00FC;
},
{
glyphname = ugrave;
layers = (
{
hints = (
{
horizontal = 1;
place = "{500, 85}";
type = Stem;
},
{
place = "{119, 207}";
type = Stem;
}
);
layerId = "0C1D5C58-AE70-45E1-B635-E72A3DDAF756";
paths = (
{
closed = 1;
nodes = (
"104 711 OFFCURVE",
"121 729 OFFCURVE",
"138 747 CURVE",
"178 711 OFFCURVE",
"251 632 OFFCURVE",
"298 588 CURVE",
"284 584 OFFCURVE",
"238 581 OFFCURVE",
"198 585 CURVE",
"191 596 OFFCURVE",
"96 689 OFFCURVE",
"87 694 CURVE"
);
},
{
closed = 1;
nodes = (
"324 25 OFFCURVE",
"325 39 OFFCURVE",
"324 53 CURVE",
"317 49 OFFCURVE",
"301 34 OFFCURVE",
"263 25 CURVE",
"181 -4 OFFCURVE",
"98 -6 OFFCURVE",
"57 34 CURVE",
"29 59 OFFCURVE",
"32 133 OFFCURVE",
"31 229 CURVE",
"32 323 OFFCURVE",
"38 430 OFFCURVE",
"34 498 CURVE",
"64 501 OFFCURVE",
"86 500 OFFCURVE",
"116 500 CURVE",
"121 444 OFFCURVE",
"116 358 OFFCURVE",
"119 290 CURVE SMOOTH",
"120 265 OFFCURVE",
"120 225 OFFCURVE",
"123 178 CURVE SMOOTH",
"126 133 OFFCURVE",
"140 113 OFFCURVE",
"171 105 CURVE",
"275 88 OFFCURVE",
"330 140 OFFCURVE",
"331 221 CURVE SMOOTH",
"332 269 OFFCURVE",
"327 367 OFFCURVE",
"326 415 CURVE",
"326 441 OFFCURVE",
"327 467 OFFCURVE",
"328 492 CURVE",
"328 496 LINE",
"357 504 OFFCURVE",
"371 500 OFFCURVE",
"412 503 CURVE",
"412 339 OFFCURVE",
"418 178 OFFCURVE",
"413 2 CURVE",
"389 2 OFFCURVE",
"382 1 OFFCURVE",
"364 -1 CURVE",
"355 -1 OFFCURVE",
"326 -6 OFFCURVE",
"326 0 CURVE"
);
}
);
width = 450;
}
);
leftKerningGroup = u;
note = ugrave;
rightKerningGroup = a;
unicode = 00F9;
},
{
glyphname = v;
layers = (
{
hints = (
{
horizontal = 1;
place = "{-2.25, 502.25}";
type = Stem;
},
{
place = "{11, 417}";
type = Stem;
}
);
layerId = "0C1D5C58-AE70-45E1-B635-E72A3DDAF756";
paths = (
{
closed = 1;
nodes = (
"45 496 OFFCURVE",
"76 499 OFFCURVE",
"102 498 CURVE",
"166 278 OFFCURVE",
"181 188 OFFCURVE",
"216 103 CURVE",
"241 167 OFFCURVE",
"276 318 OFFCURVE",
"339 496 CURVE",
"369 497 OFFCURVE",
"393 501 OFFCURVE",
"428 499 CURVE",
"368 337 OFFCURVE",
"353 232 OFFCURVE",
"273 1 CURVE",
"236 -5 OFFCURVE",
"192 -1 OFFCURVE",
"150 -1 CURVE",
"57 292 OFFCURVE",
"59 319 OFFCURVE",
"11 500 CURVE"
);
}
);
width = 429;
}
);
leftKerningGroup = v;
note = v;
rightKerningGroup = v;
unicode = 0076;
},
{
glyphname = w;
layers = (
{
hints = (
{
horizontal = 1;
place = "{-4, 505.5}";
type = Stem;
},
{
place = "{11, 671}";
type = Stem;
}
);
layerId = "0C1D5C58-AE70-45E1-B635-E72A3DDAF756";
paths = (
{
closed = 1;
nodes = (
"45 497 OFFCURVE",
"79 500 OFFCURVE",
"111 497 CURVE",
"132 372 OFFCURVE",
"145 263 OFFCURVE",
"183 99 CURVE",
"250 289 OFFCURVE",
"280 394 OFFCURVE",
"302 500 CURVE",
"314 499 OFFCURVE",
"328 500 OFFCURVE",
"349 501 CURVE SMOOTH",
"370 502 OFFCURVE",
"387 502 OFFCURVE",
"402 499 CURVE",
"418 419 OFFCURVE",
"433 319 OFFCURVE",
"501 106 CURVE",
"537 243 OFFCURVE",
"565 418 OFFCURVE",
"588 498 CURVE",
"615 499 OFFCURVE",
"642 502 OFFCURVE",
"682 499 CURVE",
"618 276 OFFCURVE",
"617 226 OFFCURVE",
"557 -1 CURVE",
"542 -4 OFFCURVE",
"527 -5 OFFCURVE",
"515 -4 CURVE",
"493 -4 OFFCURVE",
"467 -3 OFFCURVE",
"444 -3 CURVE",
"421 88 OFFCURVE",
"389 207 OFFCURVE",
"346 345 CURVE",
"308 226 OFFCURVE",
"277 106 OFFCURVE",
"240 -2 CURVE",
"204 -6 OFFCURVE",
"151 -3 OFFCURVE",
"115 -3 CURVE",
"87 154 OFFCURVE",
"52 327 OFFCURVE",
"11 500 CURVE"
);
}
);
width = 683;
}
);
leftKerningGroup = w;
note = w;
rightKerningGroup = w;
unicode = 0077;
},
{
glyphname = x;
layers = (
{
hints = (
{
horizontal = 1;
place = "{-1, 502}";
type = Stem;
},
{
place = "{2, 411}";
type = Stem;
}
);
layerId = "0C1D5C58-AE70-45E1-B635-E72A3DDAF756";
paths = (
{
closed = 1;
nodes = (
"413 501 LINE",
"413 500 OFFCURVE",
"413 500 OFFCURVE",
"412 500 CURVE",
"373 430 OFFCURVE",
"335 360 OFFCURVE",
"283 252 CURVE",
"350 121 OFFCURVE",
"350 107 OFFCURVE",
"401 0 CURVE",
"395 0 OFFCURVE",
"389 1 OFFCURVE",
"381 1 CURVE SMOOTH",
"372 1 OFFCURVE",
"362 0 OFFCURVE",
"355 1 CURVE",
"343 1 LINE SMOOTH",
"337 1 OFFCURVE",
"308 1 OFFCURVE",
"304 2 CURVE",
"303 2 LINE",
"262 75 OFFCURVE",
"236 146 OFFCURVE",
"208 192 CURVE",
"171 128 OFFCURVE",
"142 61 OFFCURVE",
"105 0 CURVE",
"57 -1 LINE SMOOTH",
"42 -1 OFFCURVE",
"21 -1 OFFCURVE",
"9 2 CURVE",
"65 108 OFFCURVE",
"87 153 OFFCURVE",
"135 253 CURVE",
"64 378 OFFCURVE",
"66 396 OFFCURVE",
"2 497 CURVE",
"24 498 OFFCURVE",
"43 498 OFFCURVE",
"58 498 CURVE SMOOTH",
"74 498 OFFCURVE",
"104 498 OFFCURVE",
"106 496 CURVE",
"142 435 OFFCURVE",
"180 354 OFFCURVE",
"208 311 CURVE",
"233 354 OFFCURVE",
"267 435 OFFCURVE",
"306 498 CURVE",
"324 500 OFFCURVE",
"377 501 OFFCURVE",
"412 501 CURVE SMOOTH"
);
}
);
width = 413;
}
);
leftKerningGroup = x;
note = x;
rightKerningGroup = x;
unicode = 0078;
},
{
glyphname = y;
layers = (
{
hints = (
{
horizontal = 1;
place = "{-178, 678}";
type = Stem;
},
{
place = "{-14, 455}";
type = Stem;
}
);
layerId = "0C1D5C58-AE70-45E1-B635-E72A3DDAF756";
paths = (
{
closed = 1;
nodes = (
"37 498 OFFCURVE",
"74 501 OFFCURVE",
"103 497 CURVE",
"161 279 OFFCURVE",
"205 98 OFFCURVE",
"229 52 CURVE",
"265 95 OFFCURVE",
"326 454 OFFCURVE",
"343 497 CURVE",
"374 497 OFFCURVE",
"404 500 OFFCURVE",
"441 499 CURVE",
"420 419 OFFCURVE",
"404 347 OFFCURVE",
"387 278 CURVE SMOOTH",
"337 80 OFFCURVE",
"332 -197 OFFCURVE",
"-6 -177 CURVE",
"-16 -149 OFFCURVE",
"-16 -113 OFFCURVE",
"-10 -87 CURVE",
"80 -94 OFFCURVE",
"162 -86 OFFCURVE",
"148 -15 CURVE",
"75 245 OFFCURVE",
"47 337 OFFCURVE",
"3 500 CURVE"
);
}
);
width = 449;
}
);
leftKerningGroup = y;
note = y;
rightKerningGroup = y;
unicode = 0079;
},
{
glyphname = yacute;
layers = (
{
hints = (
{
horizontal = 1;
place = "{-178, 924}";
type = Stem;
},
{
place = "{-14, 455}";
type = Stem;
}
);
layerId = "0C1D5C58-AE70-45E1-B635-E72A3DDAF756";
paths = (
{
closed = 1;
nodes = (
"265 595 OFFCURVE",
"362 687 OFFCURVE",
"371 693 CURVE",
"354 710 OFFCURVE",
"336 728 OFFCURVE",
"319 746 CURVE",
"279 709 OFFCURVE",
"207 630 OFFCURVE",
"160 587 CURVE",
"173 583 OFFCURVE",
"219 580 OFFCURVE",
"259 584 CURVE"
);
},
{
closed = 1;
nodes = (
"37 498 OFFCURVE",
"74 501 OFFCURVE",
"103 497 CURVE",
"161 279 OFFCURVE",
"205 98 OFFCURVE",
"229 52 CURVE",
"265 95 OFFCURVE",
"326 454 OFFCURVE",
"343 497 CURVE",
"374 497 OFFCURVE",
"404 500 OFFCURVE",
"441 499 CURVE",
"420 419 OFFCURVE",
"404 347 OFFCURVE",
"387 278 CURVE SMOOTH",
"337 80 OFFCURVE",
"332 -197 OFFCURVE",
"-6 -177 CURVE",
"-16 -149 OFFCURVE",
"-16 -113 OFFCURVE",
"-10 -87 CURVE",
"80 -94 OFFCURVE",
"162 -86 OFFCURVE",
"148 -15 CURVE",
"75 245 OFFCURVE",
"47 337 OFFCURVE",
"3 500 CURVE"
);
}
);
width = 449;
}
);
leftKerningGroup = y;
note = yacute;
rightKerningGroup = y;
unicode = 00FD;
},
{
glyphname = ydieresis;
layers = (
{
hints = (
{
horizontal = 1;
place = "{500, 136}";
type = Stem;
},
{
place = "{185, 79}";
type = Stem;
},
{
horizontal = 1;
place = "{497, 139}";
type = Stem;
}
);
layerId = "0C1D5C58-AE70-45E1-B635-E72A3DDAF756";
paths = (
{
closed = 1;
nodes = (
"122 758 OFFCURVE",
"160 758 OFFCURVE",
"187 755 CURVE",
"187 748 OFFCURVE",
"185 686 OFFCURVE",
"185 658 CURVE SMOOTH",
"185 640 LINE",
"183 637 OFFCURVE",
"180 636 OFFCURVE",
"175 636 CURVE",
"154 633 OFFCURVE",
"122 638 OFFCURVE",
"96 637 CURVE",
"93 669 OFFCURVE",
"93 717 OFFCURVE",
"93 756 CURVE"
);
},
{
closed = 1;
nodes = (
"293 758 OFFCURVE",
"331 758 OFFCURVE",
"358 755 CURVE",
"358 748 OFFCURVE",
"356 686 OFFCURVE",
"356 658 CURVE SMOOTH",
"356 640 LINE",
"354 637 OFFCURVE",
"351 636 OFFCURVE",
"346 636 CURVE",
"325 633 OFFCURVE",
"293 638 OFFCURVE",
"267 637 CURVE",
"264 669 OFFCURVE",
"264 717 OFFCURVE",
"264 756 CURVE"
);
},
{
closed = 1;
nodes = (
"37 498 OFFCURVE",
"74 501 OFFCURVE",
"103 497 CURVE",
"161 279 OFFCURVE",
"205 98 OFFCURVE",
"229 52 CURVE",
"265 95 OFFCURVE",
"326 454 OFFCURVE",
"343 497 CURVE",
"374 497 OFFCURVE",
"404 500 OFFCURVE",
"441 499 CURVE",
"420 419 OFFCURVE",
"404 347 OFFCURVE",
"387 278 CURVE SMOOTH",
"337 80 OFFCURVE",
"332 -197 OFFCURVE",
"-6 -177 CURVE",
"-16 -149 OFFCURVE",
"-16 -113 OFFCURVE",
"-10 -87 CURVE",
"80 -94 OFFCURVE",
"162 -86 OFFCURVE",
"148 -15 CURVE",
"75 245 OFFCURVE",
"47 337 OFFCURVE",
"3 500 CURVE"
);
}
);
width = 449;
}
);
leftKerningGroup = y;
note = ydieresis;
rightKerningGroup = y;
unicode = 00FF;
},
{
glyphname = z;
layers = (
{
hints = (
{
horizontal = 1;
place = "{1, 497.85}";
type = Stem;
},
{
place = "{22, 412}";
type = Stem;
}
);
layerId = "0C1D5C58-AE70-45E1-B635-E72A3DDAF756";
paths = (
{
closed = 1;
nodes = (
"335 495 OFFCURVE",
"419 502 OFFCURVE",
"434 497 CURVE",
"434 464 OFFCURVE",
"431 437 OFFCURVE",
"434 408 CURVE",
"381 337 OFFCURVE",
"290 262 OFFCURVE",
"149 94 CURVE",
"209 98 OFFCURVE",
"366 90 OFFCURVE",
"429 100 CURVE",
"429 70 OFFCURVE",
"431 38 OFFCURVE",
"431 7 CURVE",
"308 4 OFFCURVE",
"151 1 OFFCURVE",
"24 1 CURVE",
"26 47 OFFCURVE",
"21 60 OFFCURVE",
"22 88 CURVE",
"74 155 OFFCURVE",
"242 318 OFFCURVE",
"316 409 CURVE",
"273 407 OFFCURVE",
"118 410 OFFCURVE",
"28 398 CURVE",
"26 443 OFFCURVE",
"30 460 OFFCURVE",
"28 497 CURVE",
"136 497 OFFCURVE",
"234 498 OFFCURVE",
"306 498 CURVE"
);
}
);
width = 456;
}
);
leftKerningGroup = z;
note = z;
rightKerningGroup = z;
unicode = 007A;
},
{
glyphname = zcaron;
layers = (
{
hints = (
{
horizontal = 1;
place = "{497, 224}";
type = Stem;
},
{
place = "{22, 412}";
type = Stem;
}
);
layerId = "0C1D5C58-AE70-45E1-B635-E72A3DDAF756";
paths = (
{
closed = 1;
nodes = (
"409 720 LINE",
"406 718 OFFCURVE",
"373 727 OFFCURVE",
"329 725 CURVE",
"324 725 OFFCURVE",
"280 681 OFFCURVE",
"273 673 CURVE SMOOTH",
"263 662 OFFCURVE",
"252 650 OFFCURVE",
"246 647 CURVE",
"239 649 OFFCURVE",
"188 716 OFFCURVE",
"168 723 CURVE",
"150 725 OFFCURVE",
"150 724 OFFCURVE",
"86 721 CURVE",
"139 653 OFFCURVE",
"186 615 OFFCURVE",
"247 559 CURVE"
);
},
{
closed = 1;
nodes = (
"335 495 OFFCURVE",
"419 502 OFFCURVE",
"434 497 CURVE",
"434 464 OFFCURVE",
"431 437 OFFCURVE",
"434 408 CURVE",
"381 337 OFFCURVE",
"290 262 OFFCURVE",
"149 94 CURVE",
"209 98 OFFCURVE",
"366 90 OFFCURVE",
"429 100 CURVE",
"429 70 OFFCURVE",
"431 38 OFFCURVE",
"431 7 CURVE",
"308 4 OFFCURVE",
"151 1 OFFCURVE",
"24 1 CURVE",
"26 47 OFFCURVE",
"21 60 OFFCURVE",
"22 88 CURVE",
"74 155 OFFCURVE",
"242 318 OFFCURVE",
"316 409 CURVE",
"273 407 OFFCURVE",
"118 410 OFFCURVE",
"28 398 CURVE",
"26 443 OFFCURVE",
"30 460 OFFCURVE",
"28 497 CURVE",
"136 497 OFFCURVE",
"234 498 OFFCURVE",
"306 498 CURVE"
);
}
);
width = 456;
}
);
leftKerningGroup = z;
note = zcaron;
rightKerningGroup = z;
unicode = 017E;
},
{
glyphname = f_f;
layers = (
{
hints = (
{
horizontal = 1;
place = "{480, 142}";
type = Stem;
},
{
place = "{393.62, 111.38}";
type = Stem;
},
{
horizontal = 1;
place = "{474, 152}";
type = Stem;
},
{
place = "{197, 309}";
type = Stem;
}
);
layerId = "0C1D5C58-AE70-45E1-B635-E72A3DDAF756";
paths = (
{
closed = 1;
nodes = (
"356 479 OFFCURVE",
"457 480 OFFCURVE",
"505 480 CURVE",
"501 554 OFFCURVE",
"496 698 OFFCURVE",
"605 714 CURVE SMOOTH",
"674 724 OFFCURVE",
"740 726 OFFCURVE",
"789 724 CURVE",
"799 693 OFFCURVE",
"796 658 OFFCURVE",
"790 628 CURVE",
"772 629 OFFCURVE",
"717 628 OFFCURVE",
"672 626 CURVE SMOOTH",
"606 622 OFFCURVE",
"595 621 OFFCURVE",
"603 474 CURVE",
"664 474 OFFCURVE",
"724 474 OFFCURVE",
"785 475 CURVE",
"786 457 OFFCURVE",
"783 416 OFFCURVE",
"783 391 CURVE",
"668 391 LINE",
"640 392 OFFCURVE",
"617 392 OFFCURVE",
"599 392 CURVE",
"599 2 LINE",
"587 3 OFFCURVE",
"577 3 OFFCURVE",
"568 2 CURVE",
"566 2 LINE",
"546 1 OFFCURVE",
"525 0 OFFCURVE",
"509 2 CURVE",
"507 72 OFFCURVE",
"507 174 OFFCURVE",
"506 250 CURVE",
"506 302 OFFCURVE",
"504 364 OFFCURVE",
"504 390 CURVE",
"408 387 OFFCURVE",
"305 391 OFFCURVE",
"258 391 CURVE",
"232 392 OFFCURVE",
"211 392 OFFCURVE",
"197 392 CURVE",
"197 2 LINE",
"185 3 OFFCURVE",
"175 3 OFFCURVE",
"166 2 CURVE",
"164 2 LINE",
"144 1 OFFCURVE",
"123 0 OFFCURVE",
"107 2 CURVE",
"104 26 OFFCURVE",
"103 96 OFFCURVE",
"103 168 CURVE SMOOTH",
"103 242 OFFCURVE",
"105 342 OFFCURVE",
"105 392 CURVE",
"94 391 OFFCURVE",
"78 391 OFFCURVE",
"59 391 CURVE",
"39 392 OFFCURVE",
"22 392 OFFCURVE",
"8 391 CURVE",
"5 482 LINE",
"32 482 OFFCURVE",
"81 481 OFFCURVE",
"103 480 CURVE",
"98 555 OFFCURVE",
"94 698 OFFCURVE",
"204 714 CURVE SMOOTH",
"272 724 OFFCURVE",
"337 726 OFFCURVE",
"387 724 CURVE",
"398 693 OFFCURVE",
"393 658 OFFCURVE",
"389 628 CURVE",
"364 630 OFFCURVE",
"297 625 OFFCURVE",
"248 622 CURVE SMOOTH",
"198 619 OFFCURVE",
"196 613 OFFCURVE",
"201 478 CURVE"
);
}
);
width = 789;
}
);
leftKerningGroup = f;
note = f_f;
rightKerningGroup = f;
unicode = FB00;
},
{
glyphname = f_f_i;
layers = (
{
hints = (
{
horizontal = 1;
place = "{477, 144}";
type = Stem;
},
{
place = "{417.25, 110.75}";
type = Stem;
},
{
place = "{622, 182}";
type = Stem;
},
{
place = "{626, 180}";
type = Stem;
},
{
horizontal = 1;
place = "{516, 109}";
type = Stem;
},
{
place = "{221, 308}";
type = Stem;
}
);
layerId = "0C1D5C58-AE70-45E1-B635-E72A3DDAF756";
paths = (
{
closed = 1;
nodes = (
"380 479 OFFCURVE",
"481 480 OFFCURVE",
"528 479 CURVE",
"525 553 OFFCURVE",
"520 697 OFFCURVE",
"629 713 CURVE SMOOTH",
"698 723 OFFCURVE",
"762 725 OFFCURVE",
"812 723 CURVE",
"822 691 OFFCURVE",
"818 657 OFFCURVE",
"814 627 CURVE",
"796 629 OFFCURVE",
"741 627 OFFCURVE",
"695 625 CURVE SMOOTH",
"628 621 OFFCURVE",
"619 621 OFFCURVE",
"626 474 CURVE",
"686 474 OFFCURVE",
"746 474 OFFCURVE",
"805 475 CURVE",
"806 488 OFFCURVE",
"806 504 OFFCURVE",
"807 517 CURVE",
"807 518 LINE",
"819 520 OFFCURVE",
"844 516 OFFCURVE",
"905 516 CURVE",
"905 512 LINE SMOOTH",
"904 347 OFFCURVE",
"894 172 OFFCURVE",
"904 3 CURVE",
"878 -4 OFFCURVE",
"817 4 OFFCURVE",
"802 -1 CURVE",
"806 127 OFFCURVE",
"811 258 OFFCURVE",
"804 391 CURVE",
"774 390 OFFCURVE",
"746 390 OFFCURVE",
"717 391 CURVE SMOOTH",
"678 391 OFFCURVE",
"648 392 OFFCURVE",
"622 392 CURVE",
"622 3 LINE",
"610 5 OFFCURVE",
"600 4 OFFCURVE",
"592 4 CURVE SMOOTH",
"589 4 LINE",
"570 3 OFFCURVE",
"550 1 OFFCURVE",
"533 3 CURVE",
"530 81 OFFCURVE",
"530 186 OFFCURVE",
"529 263 CURVE",
"529 308 OFFCURVE",
"527 367 OFFCURVE",
"527 390 CURVE",
"440 386 OFFCURVE",
"352 390 OFFCURVE",
"305 391 CURVE SMOOTH",
"268 391 OFFCURVE",
"238 392 OFFCURVE",
"221 392 CURVE",
"221 3 LINE",
"210 5 OFFCURVE",
"200 4 OFFCURVE",
"191 4 CURVE SMOOTH",
"189 4 LINE",
"169 3 OFFCURVE",
"149 1 OFFCURVE",
"132 3 CURVE",
"129 27 OFFCURVE",
"129 97 OFFCURVE",
"129 169 CURVE SMOOTH",
"129 273 LINE SMOOTH",
"130 315 OFFCURVE",
"130 375 OFFCURVE",
"130 392 CURVE",
"118 391 OFFCURVE",
"103 391 OFFCURVE",
"83 391 CURVE",
"64 392 OFFCURVE",
"47 392 OFFCURVE",
"33 391 CURVE",
"30 482 LINE",
"56 482 OFFCURVE",
"106 481 OFFCURVE",
"128 480 CURVE",
"124 555 OFFCURVE",
"119 697 OFFCURVE",
"228 713 CURVE SMOOTH",
"297 723 OFFCURVE",
"362 725 OFFCURVE",
"411 723 CURVE",
"421 691 OFFCURVE",
"417 657 OFFCURVE",
"413 627 CURVE",
"388 629 OFFCURVE",
"321 625 OFFCURVE",
"272 621 CURVE SMOOTH",
"222 618 OFFCURVE",
"221 612 OFFCURVE",
"225 477 CURVE"
);
}
);
width = 954;
}
);
leftKerningGroup = f;
note = f_f_i;
unicode = FB03;
},
{
glyphname = f_f_l;
layers = (
{
hints = (
{
horizontal = 1;
place = "{480, 142}";
type = Stem;
},
{
place = "{393.62, 111.38}";
type = Stem;
},
{
place = "{795.5, 53.57}";
type = Stem;
},
{
horizontal = 1;
place = "{474, 152}";
type = Stem;
},
{
place = "{197, 309}";
type = Stem;
}
);
layerId = "0C1D5C58-AE70-45E1-B635-E72A3DDAF756";
paths = (
{
closed = 1;
nodes = (
"951 723 LINE",
"951 554 OFFCURVE",
"943 170 OFFCURVE",
"953 5 CURVE",
"940 -10 OFFCURVE",
"869 3 OFFCURVE",
"854 -1 CURVE",
"873 247 OFFCURVE",
"833 477 OFFCURVE",
"857 726 CURVE"
);
},
{
closed = 1;
nodes = (
"356 479 OFFCURVE",
"457 480 OFFCURVE",
"505 480 CURVE",
"501 554 OFFCURVE",
"496 698 OFFCURVE",
"605 714 CURVE SMOOTH",
"674 724 OFFCURVE",
"740 726 OFFCURVE",
"789 724 CURVE",
"799 693 OFFCURVE",
"796 658 OFFCURVE",
"790 628 CURVE",
"772 629 OFFCURVE",
"717 628 OFFCURVE",
"672 626 CURVE SMOOTH",
"606 622 OFFCURVE",
"595 621 OFFCURVE",
"603 474 CURVE",
"664 474 OFFCURVE",
"724 474 OFFCURVE",
"785 475 CURVE",
"786 457 OFFCURVE",
"783 416 OFFCURVE",
"783 391 CURVE",
"668 391 LINE",
"640 392 OFFCURVE",
"617 392 OFFCURVE",
"599 392 CURVE",
"599 2 LINE",
"587 3 OFFCURVE",
"577 3 OFFCURVE",
"568 2 CURVE",
"566 2 LINE",
"546 1 OFFCURVE",
"525 0 OFFCURVE",
"509 2 CURVE",
"507 72 OFFCURVE",
"507 174 OFFCURVE",
"506 250 CURVE",
"506 302 OFFCURVE",
"504 364 OFFCURVE",
"504 390 CURVE",
"408 387 OFFCURVE",
"305 391 OFFCURVE",
"258 391 CURVE",
"232 392 OFFCURVE",
"211 392 OFFCURVE",
"197 392 CURVE",
"197 2 LINE",
"185 3 OFFCURVE",
"175 3 OFFCURVE",
"166 2 CURVE",
"164 2 LINE",
"144 1 OFFCURVE",
"123 0 OFFCURVE",
"107 2 CURVE",
"104 26 OFFCURVE",
"103 96 OFFCURVE",
"103 168 CURVE SMOOTH",
"103 242 OFFCURVE",
"105 342 OFFCURVE",
"105 392 CURVE",
"94 391 OFFCURVE",
"78 391 OFFCURVE",
"59 391 CURVE",
"39 392 OFFCURVE",
"22 392 OFFCURVE",
"8 391 CURVE",
"5 482 LINE",
"32 482 OFFCURVE",
"81 481 OFFCURVE",
"103 480 CURVE",
"98 555 OFFCURVE",
"94 698 OFFCURVE",
"204 714 CURVE SMOOTH",
"272 724 OFFCURVE",
"337 726 OFFCURVE",
"387 724 CURVE",
"398 693 OFFCURVE",
"393 658 OFFCURVE",
"389 628 CURVE",
"364 630 OFFCURVE",
"297 625 OFFCURVE",
"248 622 CURVE SMOOTH",
"198 619 OFFCURVE",
"196 613 OFFCURVE",
"201 478 CURVE"
);
}
);
width = 1010;
}
);
leftKerningGroup = f;
note = f_f_l;
rightKerningGroup = l;
unicode = FB04;
},
{
glyphname = fi;
layers = (
{
hints = (
{
horizontal = 1;
place = "{515, 92}";
type = Stem;
},
{
place = "{204, 178}";
type = Stem;
}
);
layerId = "0C1D5C58-AE70-45E1-B635-E72A3DDAF756";
paths = (
{
closed = 1;
nodes = (
"382 380 LINE",
"347 380 OFFCURVE",
"314 380 OFFCURVE",
"283 381 CURVE SMOOTH",
"251 381 OFFCURVE",
"225 381 OFFCURVE",
"204 382 CURVE",
"204 3 LINE",
"193 5 OFFCURVE",
"182 4 OFFCURVE",
"174 4 CURVE SMOOTH",
"172 4 LINE",
"152 3 OFFCURVE",
"132 1 OFFCURVE",
"116 3 CURVE",
"112 28 OFFCURVE",
"112 105 OFFCURVE",
"112 181 CURVE SMOOTH",
"112 250 OFFCURVE",
"114 341 OFFCURVE",
"114 381 CURVE",
"102 381 OFFCURVE",
"88 380 OFFCURVE",
"69 381 CURVE",
"50 381 OFFCURVE",
"33 381 OFFCURVE",
"20 381 CURVE",
"17 466 LINE",
"42 466 OFFCURVE",
"91 465 OFFCURVE",
"112 464 CURVE",
"108 536 OFFCURVE",
"103 678 OFFCURVE",
"210 694 CURVE SMOOTH",
"277 705 OFFCURVE",
"340 706 OFFCURVE",
"388 704 CURVE",
"398 673 OFFCURVE",
"394 639 OFFCURVE",
"390 610 CURVE",
"373 611 OFFCURVE",
"318 609 OFFCURVE",
"275 607 CURVE SMOOTH",
"250 606 OFFCURVE",
"234 601 OFFCURVE",
"225 592 CURVE",
"207 581 OFFCURVE",
"204 531 OFFCURVE",
"208 462 CURVE",
"266 462 OFFCURVE",
"324 462 OFFCURVE",
"382 463 CURVE",
"383 479 OFFCURVE",
"383 500 OFFCURVE",
"385 516 CURVE",
"385 517 LINE",
"396 519 OFFCURVE",
"424 515 OFFCURVE",
"482 515 CURVE",
"482 512 LINE SMOOTH",
"481 347 OFFCURVE",
"470 172 OFFCURVE",
"481 3 CURVE",
"455 -4 OFFCURVE",
"394 4 OFFCURVE",
"379 -1 CURVE",
"383 116 OFFCURVE",
"384 230 OFFCURVE",
"382 352 CURVE"
);
}
);
width = 555;
}
);
leftKerningGroup = f;
note = fi;
unicode = FB01;
},
{
glyphname = fl;
layers = (
{
hints = (
{
horizontal = 1;
place = "{466, 150}";
type = Stem;
},
{
place = "{214, 180}";
type = Stem;
},
{
place = "{218, 175}";
type = Stem;
}
);
layerId = "0C1D5C58-AE70-45E1-B635-E72A3DDAF756";
paths = (
{
closed = 1;
nodes = (
"394 367 OFFCURVE",
"393 381 OFFCURVE",
"393 383 CURVE",
"307 383 LINE SMOOTH",
"269 384 OFFCURVE",
"239 384 OFFCURVE",
"214 385 CURVE",
"214 3 LINE",
"202 5 OFFCURVE",
"192 4 OFFCURVE",
"183 4 CURVE SMOOTH",
"181 4 LINE",
"162 3 OFFCURVE",
"142 1 OFFCURVE",
"125 3 CURVE",
"121 27 OFFCURVE",
"121 96 OFFCURVE",
"121 166 CURVE SMOOTH",
"121 239 OFFCURVE",
"123 337 OFFCURVE",
"123 384 CURVE",
"111 384 OFFCURVE",
"96 383 OFFCURVE",
"77 384 CURVE",
"58 384 OFFCURVE",
"41 384 OFFCURVE",
"28 384 CURVE",
"25 470 LINE",
"50 470 OFFCURVE",
"99 469 OFFCURVE",
"121 468 CURVE",
"116 540 OFFCURVE",
"112 683 OFFCURVE",
"219 700 CURVE SMOOTH",
"272 710 OFFCURVE",
"330 712 OFFCURVE",
"377 710 CURVE",
"418 710 OFFCURVE",
"456 707 OFFCURVE",
"492 710 CURVE",
"492 528 OFFCURVE",
"481 165 OFFCURVE",
"491 6 CURVE",
"477 -8 OFFCURVE",
"406 5 OFFCURVE",
"391 0 CURVE",
"399 113 OFFCURVE",
"396 228 OFFCURVE",
"394 342 CURVE"
);
},
{
closed = 1;
nodes = (
"276 466 OFFCURVE",
"334 466 OFFCURVE",
"393 467 CURVE",
"393 492 OFFCURVE",
"392 518 OFFCURVE",
"392 543 CURVE SMOOTH",
"392 567 OFFCURVE",
"393 590 OFFCURVE",
"393 614 CURVE",
"380 615 OFFCURVE",
"361 616 OFFCURVE",
"340 616 CURVE SMOOTH",
"295 616 LINE SMOOTH",
"267 616 OFFCURVE",
"246 611 OFFCURVE",
"235 602 CURVE",
"217 591 OFFCURVE",
"213 535 OFFCURVE",
"218 466 CURVE"
);
}
);
width = 562;
}
);
leftKerningGroup = f;
note = fl;
rightKerningGroup = l;
unicode = FB02;
},
{
glyphname = ordfeminine;
layers = (
{
hints = (
{
horizontal = 1;
place = "{513, 164}";
type = Stem;
},
{
place = "{70, 117}";
type = Stem;
}
);
layerId = "0C1D5C58-AE70-45E1-B635-E72A3DDAF756";
paths = (
{
closed = 1;
nodes = (
"206 723 OFFCURVE",
"210 721 OFFCURVE",
"236 720 CURVE",
"236 716 OFFCURVE",
"238 712 OFFCURVE",
"238 708 CURVE SMOOTH",
"238 704 LINE",
"235 644 OFFCURVE",
"245 470 OFFCURVE",
"229 468 CURVE",
"221 468 LINE SMOOTH",
"216 468 OFFCURVE",
"210 469 OFFCURVE",
"205 469 CURVE SMOOTH",
"200 469 OFFCURVE",
"196 468 OFFCURVE",
"192 468 CURVE",
"188 469 OFFCURVE",
"187 473 OFFCURVE",
"187 479 CURVE SMOOTH",
"187 486 OFFCURVE",
"189 491 OFFCURVE",
"189 497 CURVE",
"169 470 OFFCURVE",
"122 467 OFFCURVE",
"100 467 CURVE SMOOTH",
"49 467 OFFCURVE",
"28 548 OFFCURVE",
"28 603 CURVE SMOOTH",
"28 671 OFFCURVE",
"65 719 OFFCURVE",
"111 720 CURVE SMOOTH",
"144 720 OFFCURVE",
"173 721 OFFCURVE",
"185 696 CURVE",
"185 707 OFFCURVE",
"184 722 OFFCURVE",
"194 722 CURVE"
);
},
{
closed = 1;
nodes = (
"103 677 OFFCURVE",
"79 655 OFFCURVE",
"74 630 CURVE",
"70 618 OFFCURVE",
"70 604 OFFCURVE",
"70 591 CURVE",
"72 542 OFFCURVE",
"90 511 OFFCURVE",
"134 513 CURVE",
"186 512 OFFCURVE",
"187 544 OFFCURVE",
"187 598 CURVE SMOOTH",
"187 662 OFFCURVE",
"188 674 OFFCURVE",
"138 677 CURVE"
);
}
);
width = 276;
}
);
note = ordfeminine;
unicode = 00AA;
},
